<?xml version="1.0" encoding="UTF-8"?>
<svg version="1.1" xmlns="http://www.w3.org/2000/svg" width="888" height="830">
<path d="M0 0 C0.68964844 -0.00386719 1.37929687 -0.00773437 2.08984375 -0.01171875 C7.24666707 -0.00166646 7.24666707 -0.00166646 9.5 1.125 C9.5 1.785 9.5 2.445 9.5 3.125 C16.76 3.125 24.02 3.125 31.5 3.125 C31.5 3.785 31.5 4.445 31.5 5.125 C32.06509277 5.11452637 32.63018555 5.10405273 33.21240234 5.09326172 C35.76655653 5.05175212 38.32063982 5.0256904 40.875 5 C41.76445312 4.98324219 42.65390625 4.96648438 43.5703125 4.94921875 C44.42109375 4.94277344 45.271875 4.93632812 46.1484375 4.9296875 C47.32672119 4.91397705 47.32672119 4.91397705 48.52880859 4.89794922 C50.5 5.125 50.5 5.125 52.5 7.125 C54.63065054 7.47716206 54.63065054 7.47716206 57.0625 7.5625 C62.22235918 7.96807845 66.68653578 9.2763507 71.5 11.125 C71.5 11.785 71.5 12.445 71.5 13.125 C74.14 13.125 76.78 13.125 79.5 13.125 C79.83 13.785 80.16 14.445 80.5 15.125 C82.39533342 15.59023063 82.39533342 15.59023063 84.5625 15.75 C85.861875 15.87375 87.16125 15.9975 88.5 16.125 C88.5 16.785 88.5 17.445 88.5 18.125 C90.48 18.125 92.46 18.125 94.5 18.125 C94.5 19.115 94.5 20.105 94.5 21.125 C96.81 21.125 99.12 21.125 101.5 21.125 C101.5 22.115 101.5 23.105 101.5 24.125 C103.48 24.125 105.46 24.125 107.5 24.125 C107.5 24.785 107.5 25.445 107.5 26.125 C109.15 26.125 110.8 26.125 112.5 26.125 C112.83 27.115 113.16 28.105 113.5 29.125 C115.15 29.125 116.8 29.125 118.5 29.125 C118.5 30.115 118.5 31.105 118.5 32.125 C119.82 32.125 121.14 32.125 122.5 32.125 C122.5 32.785 122.5 33.445 122.5 34.125 C123.221875 34.24875 123.94375 34.3725 124.6875 34.5 C127.45721894 35.1154931 129.8970354 36.00944374 132.5 37.125 C132.5 37.785 132.5 38.445 132.5 39.125 C134.15 39.455 135.8 39.785 137.5 40.125 C137.5 40.785 137.5 41.445 137.5 42.125 C138.82 42.125 140.14 42.125 141.5 42.125 C141.5 43.115 141.5 44.105 141.5 45.125 C142.03625 45.2075 142.5725 45.29 143.125 45.375 C146.39790163 46.40854788 148.79469379 48.03453611 151.5 50.125 C151.5 51.115 151.5 52.105 151.5 53.125 C153.15 53.125 154.8 53.125 156.5 53.125 C156.5 53.785 156.5 54.445 156.5 55.125 C157.82 55.455 159.14 55.785 160.5 56.125 C160.5 56.785 160.5 57.445 160.5 58.125 C161.16 58.125 161.82 58.125 162.5 58.125 C162.5 59.115 162.5 60.105 162.5 61.125 C163.82 61.125 165.14 61.125 166.5 61.125 C166.5 61.785 166.5 62.445 166.5 63.125 C167.82 63.455 169.14 63.785 170.5 64.125 C170.5 64.785 170.5 65.445 170.5 66.125 C171.139375 66.393125 171.77875 66.66125 172.4375 66.9375 C174.5 68.125 174.5 68.125 175.5 71.125 C177.51508358 71.85823796 177.51508358 71.85823796 179.5 72.125 C179.5 72.785 179.5 73.445 179.5 74.125 C180.16 74.125 180.82 74.125 181.5 74.125 C181.5 74.785 181.5 75.445 181.5 76.125 C182.49 76.455 183.48 76.785 184.5 77.125 C184.5 77.785 184.5 78.445 184.5 79.125 C185.49 79.125 186.48 79.125 187.5 79.125 C187.5 80.115 187.5 81.105 187.5 82.125 C188.16 82.125 188.82 82.125 189.5 82.125 C189.5 82.785 189.5 83.445 189.5 84.125 C190.49 84.455 191.48 84.785 192.5 85.125 C192.5 85.785 192.5 86.445 192.5 87.125 C193.82 87.455 195.14 87.785 196.5 88.125 C196.5 88.785 196.5 89.445 196.5 90.125 C197.16 90.125 197.82 90.125 198.5 90.125 C198.5 90.785 198.5 91.445 198.5 92.125 C199.16 92.125 199.82 92.125 200.5 92.125 C200.5 93.115 200.5 94.105 200.5 95.125 C201.82 95.455 203.14 95.785 204.5 96.125 C204.5 96.785 204.5 97.445 204.5 98.125 C205.16 98.125 205.82 98.125 206.5 98.125 C206.5 98.785 206.5 99.445 206.5 100.125 C207.16 100.125 207.82 100.125 208.5 100.125 C208.5 101.115 208.5 102.105 208.5 103.125 C209.139375 103.393125 209.77875 103.66125 210.4375 103.9375 C212.5 105.125 212.5 105.125 213.5 108.125 C214.16 108.125 214.82 108.125 215.5 108.125 C215.5 109.115 215.5 110.105 215.5 111.125 C216.16 111.125 216.82 111.125 217.5 111.125 C217.5 111.785 217.5 112.445 217.5 113.125 C218.16 113.125 218.82 113.125 219.5 113.125 C219.5 114.115 219.5 115.105 219.5 116.125 C220.82 116.455 222.14 116.785 223.5 117.125 C223.5 117.785 223.5 118.445 223.5 119.125 C224.16 119.125 224.82 119.125 225.5 119.125 C225.5 120.115 225.5 121.105 225.5 122.125 C226.16 122.125 226.82 122.125 227.5 122.125 C227.5 122.785 227.5 123.445 227.5 124.125 C228.16 124.125 228.82 124.125 229.5 124.125 C229.5 125.115 229.5 126.105 229.5 127.125 C230.16 127.125 230.82 127.125 231.5 127.125 C234.5 131.50961538 234.5 131.50961538 234.5 134.125 C235.16 134.125 235.82 134.125 236.5 134.125 C236.5 135.115 236.5 136.105 236.5 137.125 C237.16 137.125 237.82 137.125 238.5 137.125 C238.5 138.115 238.5 139.105 238.5 140.125 C239.16 140.125 239.82 140.125 240.5 140.125 C240.5 140.785 240.5 141.445 240.5 142.125 C241.16 142.125 241.82 142.125 242.5 142.125 C242.5 143.115 242.5 144.105 242.5 145.125 C243.16 145.125 243.82 145.125 244.5 145.125 C244.5 146.115 244.5 147.105 244.5 148.125 C245.16 148.125 245.82 148.125 246.5 148.125 C246.5 148.785 246.5 149.445 246.5 150.125 C247.16 150.125 247.82 150.125 248.5 150.125 C251.5 155.875 251.5 155.875 251.5 158.125 C252.16 158.125 252.82 158.125 253.5 158.125 C253.5 159.115 253.5 160.105 253.5 161.125 C254.16 161.125 254.82 161.125 255.5 161.125 C256.75664978 164.03100261 257.5 165.92104584 257.5 169.125 C258.16 169.125 258.82 169.125 259.5 169.125 C259.5 169.785 259.5 170.445 259.5 171.125 C260.16 171.125 260.82 171.125 261.5 171.125 C261.5 172.115 261.5 173.105 261.5 174.125 C262.16 174.125 262.82 174.125 263.5 174.125 C263.5 175.775 263.5 177.425 263.5 179.125 C264.16 179.125 264.82 179.125 265.5 179.125 C265.5 180.115 265.5 181.105 265.5 182.125 C266.16 182.125 266.82 182.125 267.5 182.125 C270.51704885 185.3249003 271.99890042 187.74037866 272.5 192.125 C273.16 192.125 273.82 192.125 274.5 192.125 C274.5 193.115 274.5 194.105 274.5 195.125 C275.16 195.125 275.82 195.125 276.5 195.125 C276.5 196.115 276.5 197.105 276.5 198.125 C277.82 198.125 279.14 198.125 280.5 198.125 C280.768125 197.42375 281.03625 196.7225 281.3125 196 C282.5681449 192.9600176 284.00235123 190.0522226 285.5 187.125 C286.16 187.125 286.82 187.125 287.5 187.125 C287.5 186.465 287.5 185.805 287.5 185.125 C288.16 185.125 288.82 185.125 289.5 185.125 C289.5 184.135 289.5 183.145 289.5 182.125 C290.16 182.125 290.82 182.125 291.5 182.125 C291.5 181.135 291.5 180.145 291.5 179.125 C292.16 179.125 292.82 179.125 293.5 179.125 C293.5 177.475 293.5 175.825 293.5 174.125 C294.16 174.125 294.82 174.125 295.5 174.125 C295.5 173.135 295.5 172.145 295.5 171.125 C296.16 171.125 296.82 171.125 297.5 171.125 C297.5 170.465 297.5 169.805 297.5 169.125 C298.16 169.125 298.82 169.125 299.5 169.125 C299.644375 168.361875 299.78875 167.59875 299.9375 166.8125 C300.5 164.125 300.5 164.125 301.5 161.125 C302.16 161.125 302.82 161.125 303.5 161.125 C303.5 160.135 303.5 159.145 303.5 158.125 C304.16 158.125 304.82 158.125 305.5 158.125 C306.57525194 155.47271188 307.59456151 152.84131546 308.5 150.125 C309.16 150.125 309.82 150.125 310.5 150.125 C310.5 149.465 310.5 148.805 310.5 148.125 C311.16 148.125 311.82 148.125 312.5 148.125 C312.5 147.135 312.5 146.145 312.5 145.125 C313.16 145.125 313.82 145.125 314.5 145.125 C314.5 144.135 314.5 143.145 314.5 142.125 C315.16 142.125 315.82 142.125 316.5 142.125 C316.5 141.465 316.5 140.805 316.5 140.125 C317.16 140.125 317.82 140.125 318.5 140.125 C318.62375 139.361875 318.7475 138.59875 318.875 137.8125 C319.5 135.125 319.5 135.125 321.5 132.125 C322.16 132.125 322.82 132.125 323.5 132.125 C323.5 131.135 323.5 130.145 323.5 129.125 C324.16 129.125 324.82 129.125 325.5 129.125 C325.5 128.465 325.5 127.805 325.5 127.125 C326.16 127.125 326.82 127.125 327.5 127.125 C327.5 126.135 327.5 125.145 327.5 124.125 C328.16 124.125 328.82 124.125 329.5 124.125 C329.5 123.465 329.5 122.805 329.5 122.125 C332.96153846 119.125 332.96153846 119.125 335.5 119.125 C335.5 118.135 335.5 117.145 335.5 116.125 C336.16 116.125 336.82 116.125 337.5 116.125 C337.5 115.135 337.5 114.145 337.5 113.125 C338.16 113.125 338.82 113.125 339.5 113.125 C339.5 112.465 339.5 111.805 339.5 111.125 C340.16 111.125 340.82 111.125 341.5 111.125 C341.5 110.135 341.5 109.145 341.5 108.125 C342.16 108.125 342.82 108.125 343.5 108.125 C343.83 107.135 344.16 106.145 344.5 105.125 C345.16 105.125 345.82 105.125 346.5 105.125 C346.5 104.465 346.5 103.805 346.5 103.125 C347.16 103.125 347.82 103.125 348.5 103.125 C348.5 102.135 348.5 101.145 348.5 100.125 C349.16 100.125 349.82 100.125 350.5 100.125 C350.5 99.465 350.5 98.805 350.5 98.125 C351.82 97.795 353.14 97.465 354.5 97.125 C354.5 96.465 354.5 95.805 354.5 95.125 C355.16 95.125 355.82 95.125 356.5 95.125 C356.5 94.135 356.5 93.145 356.5 92.125 C357.16 92.125 357.82 92.125 358.5 92.125 C358.5 91.465 358.5 90.805 358.5 90.125 C359.16 90.125 359.82 90.125 360.5 90.125 C360.83 89.135 361.16 88.145 361.5 87.125 C362.16 87.125 362.82 87.125 363.5 87.125 C363.5 86.465 363.5 85.805 363.5 85.125 C364.82 84.795 366.14 84.465 367.5 84.125 C367.5 83.465 367.5 82.805 367.5 82.125 C368.16 82.125 368.82 82.125 369.5 82.125 C369.5 81.135 369.5 80.145 369.5 79.125 C370.82 79.125 372.14 79.125 373.5 79.125 C373.5 78.135 373.5 77.145 373.5 76.125 C374.16 76.125 374.82 76.125 375.5 76.125 C375.5 75.465 375.5 74.805 375.5 74.125 C376.16 74.125 376.82 74.125 377.5 74.125 C377.5 73.135 377.5 72.145 377.5 71.125 C381.72222222 68.125 381.72222222 68.125 384.5 68.125 C384.5 67.465 384.5 66.805 384.5 66.125 C385.16 66.125 385.82 66.125 386.5 66.125 C386.83 65.135 387.16 64.145 387.5 63.125 C388.49 63.125 389.48 63.125 390.5 63.125 C390.5 62.465 390.5 61.805 390.5 61.125 C391.49 61.125 392.48 61.125 393.5 61.125 C393.83 60.135 394.16 59.145 394.5 58.125 C395.16 58.125 395.82 58.125 396.5 58.125 C396.83 57.135 397.16 56.145 397.5 55.125 C398.49 55.125 399.48 55.125 400.5 55.125 C400.5 54.465 400.5 53.805 400.5 53.125 C402.15 53.125 403.8 53.125 405.5 53.125 C405.5 52.135 405.5 51.145 405.5 50.125 C406.16 50.125 406.82 50.125 407.5 50.125 C407.5 49.465 407.5 48.805 407.5 48.125 C408.82 47.795 410.14 47.465 411.5 47.125 C411.5 46.465 411.5 45.805 411.5 45.125 C412.82 45.125 414.14 45.125 415.5 45.125 C415.5 44.135 415.5 43.145 415.5 42.125 C419.955 40.64 419.955 40.64 424.5 39.125 C424.5 38.465 424.5 37.805 424.5 37.125 C425.82 37.125 427.14 37.125 428.5 37.125 C428.83 36.135 429.16 35.145 429.5 34.125 C431.15 34.125 432.8 34.125 434.5 34.125 C434.5 33.465 434.5 32.805 434.5 32.125 C435.82 32.125 437.14 32.125 438.5 32.125 C438.83 31.135 439.16 30.145 439.5 29.125 C441.48 29.125 443.46 29.125 445.5 29.125 C445.5 28.135 445.5 27.145 445.5 26.125 C446.82 26.125 448.14 26.125 449.5 26.125 C449.5 25.465 449.5 24.805 449.5 24.125 C451.48 24.125 453.46 24.125 455.5 24.125 C455.83 23.135 456.16 22.145 456.5 21.125 C458.48 21.125 460.46 21.125 462.5 21.125 C462.5 20.465 462.5 19.805 462.5 19.125 C470.92857143 15.69642857 470.92857143 15.69642857 475.5 16.125 C475.83 15.135 476.16 14.145 476.5 13.125 C478.81 13.125 481.12 13.125 483.5 13.125 C483.5 12.465 483.5 11.805 483.5 11.125 C484.67369141 10.92583984 484.67369141 10.92583984 485.87109375 10.72265625 C486.88300781 10.54605469 487.89492188 10.36945312 488.9375 10.1875 C489.94683594 10.01347656 490.95617187 9.83945312 491.99609375 9.66015625 C494.4287438 9.37748903 494.4287438 9.37748903 495.5 8.125 C498.30823199 7.84102148 501.11646635 7.67653335 503.93359375 7.50390625 C506.6606167 7.36188035 506.6606167 7.36188035 508.5 5.125 C511.5390625 4.9296875 511.5390625 4.9296875 515.125 5 C516.90777344 5.02707031 516.90777344 5.02707031 518.7265625 5.0546875 C519.64179687 5.07789063 520.55703125 5.10109375 521.5 5.125 C521.5 4.465 521.5 3.805 521.5 3.125 C530.08 3.125 538.66 3.125 547.5 3.125 C547.5 2.465 547.5 1.805 547.5 1.125 C550.76811802 -0.50905901 554.34999407 -0.05953757 557.9375 -0.0625 C558.71416016 -0.07474609 559.49082031 -0.08699219 560.29101562 -0.09960938 C564.21232309 -0.10974195 566.16618745 -0.0975417 569.5 2.125 C571.81923274 2.49076054 571.81923274 2.49076054 574.38671875 2.5390625 C575.32451172 2.57773437 576.26230469 2.61640625 577.22851562 2.65625 C578.20498047 2.6871875 579.18144531 2.718125 580.1875 2.75 C581.17556641 2.78867187 582.16363281 2.82734375 583.18164062 2.8671875 C585.62090707 2.96145867 588.06016595 3.04706218 590.5 3.125 C590.5 3.785 590.5 4.445 590.5 5.125 C594.46 5.125 598.42 5.125 602.5 5.125 C602.83 6.115 603.16 7.105 603.5 8.125 C606.14 8.125 608.78 8.125 611.5 8.125 C611.5 8.785 611.5 9.445 611.5 10.125 C613.48 10.455 615.46 10.785 617.5 11.125 C617.5 11.785 617.5 12.445 617.5 13.125 C619.15 13.125 620.8 13.125 622.5 13.125 C622.5 14.115 622.5 15.105 622.5 16.125 C624.48 16.125 626.46 16.125 628.5 16.125 C628.5 16.785 628.5 17.445 628.5 18.125 C630.48 18.455 632.46 18.785 634.5 19.125 C634.5 19.785 634.5 20.445 634.5 21.125 C636.15 21.125 637.8 21.125 639.5 21.125 C639.5 22.115 639.5 23.105 639.5 24.125 C640.82 24.125 642.14 24.125 643.5 24.125 C643.5 24.785 643.5 25.445 643.5 26.125 C644.82 26.455 646.14 26.785 647.5 27.125 C647.5 27.785 647.5 28.445 647.5 29.125 C648.82 29.455 650.14 29.785 651.5 30.125 C651.5 30.785 651.5 31.445 651.5 32.125 C652.469375 32.393125 653.43875 32.66125 654.4375 32.9375 C655.448125 33.329375 656.45875 33.72125 657.5 34.125 C657.83 35.115 658.16 36.105 658.5 37.125 C659.16 37.125 659.82 37.125 660.5 37.125 C661.16 38.775 661.82 40.425 662.5 42.125 C663.82 42.125 665.14 42.125 666.5 42.125 C666.5 43.115 666.5 44.105 666.5 45.125 C667.16 45.125 667.82 45.125 668.5 45.125 C668.5 45.785 668.5 46.445 668.5 47.125 C669.16 47.125 669.82 47.125 670.5 47.125 C670.5 48.115 670.5 49.105 670.5 50.125 C671.16 50.125 671.82 50.125 672.5 50.125 C672.5 51.115 672.5 52.105 672.5 53.125 C673.49 53.125 674.48 53.125 675.5 53.125 C675.5 53.785 675.5 54.445 675.5 55.125 C676.16 55.125 676.82 55.125 677.5 55.125 C677.5 56.115 677.5 57.105 677.5 58.125 C678.16 58.125 678.82 58.125 679.5 58.125 C679.5 59.115 679.5 60.105 679.5 61.125 C680.16 61.125 680.82 61.125 681.5 61.125 C681.5 61.785 681.5 62.445 681.5 63.125 C682.16 63.125 682.82 63.125 683.5 63.125 C683.5 64.115 683.5 65.105 683.5 66.125 C684.16 66.125 684.82 66.125 685.5 66.125 C685.5 67.115 685.5 68.105 685.5 69.125 C686.16 69.125 686.82 69.125 687.5 69.125 C687.5 70.775 687.5 72.425 687.5 74.125 C688.16 74.125 688.82 74.125 689.5 74.125 C689.5 74.785 689.5 75.445 689.5 76.125 C690.16 76.125 690.82 76.125 691.5 76.125 C691.5 77.115 691.5 78.105 691.5 79.125 C692.16 79.125 692.82 79.125 693.5 79.125 C695.65305957 82.98256507 696.89253254 85.67629785 696.5 90.125 C697.16 90.125 697.82 90.125 698.5 90.125 C699.1496875 91.919375 699.1496875 91.919375 699.8125 93.75 C700.7920246 96.40404523 701.81341183 98.69378444 703.1875 101.1875 C704.7505878 104.68583937 704.72741831 107.3346948 704.5 111.125 C705.16 111.125 705.82 111.125 706.5 111.125 C706.5 113.765 706.5 116.405 706.5 119.125 C707.16 119.125 707.82 119.125 708.5 119.125 C708.5 122.425 708.5 125.725 708.5 129.125 C709.16 129.125 709.82 129.125 710.5 129.125 C710.5 133.745 710.5 138.365 710.5 143.125 C711.16 143.125 711.82 143.125 712.5 143.125 C713.87383781 147.24651342 713.884087 151.3711362 714.10546875 155.67578125 C714.27880744 158.70621967 714.53448616 161.22845849 715.5 164.125 C715.63784221 166.01944223 715.72480358 167.91779474 715.78125 169.81640625 C715.81863281 170.92564453 715.85601563 172.03488281 715.89453125 173.17773438 C715.96496103 175.52148085 716.03527314 177.86523087 716.10546875 180.20898438 C716.14285156 181.31693359 716.18023438 182.42488281 716.21875 183.56640625 C716.24904297 184.58420166 716.27933594 185.60199707 716.31054688 186.65063477 C716.34348322 189.12665418 716.34348322 189.12665418 717.5 191.125 C717.59757427 193.26776771 717.63077146 195.41360657 717.6328125 197.55859375 C717.63410156 198.84701172 717.63539063 200.13542969 717.63671875 201.46289062 C717.63357666 202.47186401 717.63357666 202.47186401 717.63037109 203.5012207 C717.62502991 205.55101965 717.63031546 207.60059859 717.63671875 209.65039062 C717.63542969 210.94009766 717.63414062 212.22980469 717.6328125 213.55859375 C717.63112061 215.33834595 717.63112061 215.33834595 717.62939453 217.15405273 C717.5 220.125 717.5 220.125 716.5 223.125 C716.36489901 224.65446156 716.27617141 226.18831348 716.21875 227.72265625 C716.18136719 228.60630859 716.14398437 229.48996094 716.10546875 230.40039062 C716.03500864 232.26236421 715.96469676 234.12434341 715.89453125 235.98632812 C715.83845703 237.30987305 715.83845703 237.30987305 715.78125 238.66015625 C715.73581055 239.87264038 715.73581055 239.87264038 715.68945312 241.10961914 C715.5 243.125 715.5 243.125 714.5 245.125 C714.29284663 247.60796326 714.12634234 250.07542768 714 252.5625 C713.63421788 259.72234637 713.63421788 259.72234637 712.5 263.125 C711.84 263.125 711.18 263.125 710.5 263.125 C710.51740234 264.51525391 710.51740234 264.51525391 710.53515625 265.93359375 C710.54869141 267.72990234 710.54869141 267.72990234 710.5625 269.5625 C710.57410156 270.75746094 710.58570313 271.95242188 710.59765625 273.18359375 C710.5 276.125 710.5 276.125 709.5 277.125 C709.29162581 278.95406235 709.13250341 280.78888134 709 282.625 C708.61111111 288.01388889 708.61111111 288.01388889 707.5 289.125 C707.26924918 290.47247084 707.08846937 291.82877565 706.9375 293.1875 C706.793125 294.486875 706.64875 295.78625 706.5 297.125 C705.84 297.125 705.18 297.125 704.5 297.125 C704.5 299.765 704.5 302.405 704.5 305.125 C703.84 305.125 703.18 305.125 702.5 305.125 C702.5309375 307.0740625 702.5309375 307.0740625 702.5625 309.0625 C702.58399454 310.41665633 702.57148199 311.77256083 702.5 313.125 C702.17 313.455 701.84 313.785 701.5 314.125 C701.13239269 316.45317964 700.79758419 318.7868385 700.5 321.125 C699.84 321.125 699.18 321.125 698.5 321.125 C698.5 323.105 698.5 325.085 698.5 327.125 C697.84 327.125 697.18 327.125 696.5 327.125 C696.355625 328.15625 696.21125 329.1875 696.0625 330.25 C695.58339543 333.55049813 695.06124917 336.83768341 694.5 340.125 C693.51 340.125 692.52 340.125 691.5 340.125 C691.5 342.765 691.5 345.405 691.5 348.125 C690.84 348.125 690.18 348.125 689.5 348.125 C689.5 349.775 689.5 351.425 689.5 353.125 C688.84 353.125 688.18 353.125 687.5 353.125 C687.5 354.775 687.5 356.425 687.5 358.125 C686.84 358.125 686.18 358.125 685.5 358.125 C685.54125 358.82625 685.5825 359.5275 685.625 360.25 C685.48331668 363.50871628 684.63265314 366.0809947 683.5 369.125 C682.84 369.125 682.18 369.125 681.5 369.125 C681.396875 369.785 681.29375 370.445 681.1875 371.125 C680.30786436 374.96341009 678.93030104 378.45596691 677.5 382.125 C676.84 382.125 676.18 382.125 675.5 382.125 C675.5 383.775 675.5 385.425 675.5 387.125 C674.51 387.125 673.52 387.125 672.5 387.125 C672.5 389.105 672.5 391.085 672.5 393.125 C671.84 393.125 671.18 393.125 670.5 393.125 C670.5 394.445 670.5 395.765 670.5 397.125 C669.84 397.125 669.18 397.125 668.5 397.125 C668.5 398.445 668.5 399.765 668.5 401.125 C667.84 401.125 667.18 401.125 666.5 401.125 C666.5 402.775 666.5 404.425 666.5 406.125 C665.84 406.125 665.18 406.125 664.5 406.125 C664.355625 406.7025 664.21125 407.28 664.0625 407.875 C663.54166667 409.95833333 663.02083333 412.04166667 662.5 414.125 C661.84 414.125 661.18 414.125 660.5 414.125 C659.84 416.765 659.18 419.405 658.5 422.125 C657.84 422.125 657.18 422.125 656.5 422.125 C655.42474806 424.77728812 654.40543849 427.40868454 653.5 430.125 C652.84 430.125 652.18 430.125 651.5 430.125 C651.5 430.785 651.5 431.445 651.5 432.125 C650.84 432.125 650.18 432.125 649.5 432.125 C649.5 433.775 649.5 435.425 649.5 437.125 C648.84 437.125 648.18 437.125 647.5 437.125 C647.5 438.115 647.5 439.105 647.5 440.125 C646.84 440.125 646.18 440.125 645.5 440.125 C645.5 441.115 645.5 442.105 645.5 443.125 C644.84 443.125 644.18 443.125 643.5 443.125 C643.21125 444.218125 642.9225 445.31125 642.625 446.4375 C641.5 450.125 641.5 450.125 639.5 453.125 C638.84 453.125 638.18 453.125 637.5 453.125 C637.5 454.115 637.5 455.105 637.5 456.125 C636.84 456.125 636.18 456.125 635.5 456.125 C635.17 457.115 634.84 458.105 634.5 459.125 C633.84 459.125 633.18 459.125 632.5 459.125 C632.5 459.785 632.5 460.445 632.5 461.125 C631.84 461.125 631.18 461.125 630.5 461.125 C630.438125 461.785 630.37625 462.445 630.3125 463.125 C629.19621505 467.2466675 627.16238434 470.78250502 624.5 474.125 C623.84 474.125 623.18 474.125 622.5 474.125 C622.5 475.115 622.5 476.105 622.5 477.125 C621.84 477.125 621.18 477.125 620.5 477.125 C620.5 478.115 620.5 479.105 620.5 480.125 C619.84 480.125 619.18 480.125 618.5 480.125 C618.5 480.785 618.5 481.445 618.5 482.125 C617.84 482.125 617.18 482.125 616.5 482.125 C616.17 483.115 615.84 484.105 615.5 485.125 C614.84 485.125 614.18 485.125 613.5 485.125 C613.5 486.115 613.5 487.105 613.5 488.125 C612.84 488.125 612.18 488.125 611.5 488.125 C611.5 488.785 611.5 489.445 611.5 490.125 C610.84 490.125 610.18 490.125 609.5 490.125 C609.5 491.115 609.5 492.105 609.5 493.125 C608.84 493.125 608.18 493.125 607.5 493.125 C607.5 494.115 607.5 495.105 607.5 496.125 C606.84 496.125 606.18 496.125 605.5 496.125 C605.5 496.785 605.5 497.445 605.5 498.125 C604.84 498.125 604.18 498.125 603.5 498.125 C603.5 499.115 603.5 500.105 603.5 501.125 C602.84 501.125 602.18 501.125 601.5 501.125 C601.5 501.785 601.5 502.445 601.5 503.125 C600.84 503.125 600.18 503.125 599.5 503.125 C599.37625 503.888125 599.2525 504.65125 599.125 505.4375 C598.5 508.125 598.5 508.125 596.5 511.125 C595.84 511.125 595.18 511.125 594.5 511.125 C594.5 512.115 594.5 513.105 594.5 514.125 C593.84 514.125 593.18 514.125 592.5 514.125 C591.84 515.775 591.18 517.425 590.5 519.125 C589.84 519.125 589.18 519.125 588.5 519.125 C588.5 520.115 588.5 521.105 588.5 522.125 C587.84 522.125 587.18 522.125 586.5 522.125 C586.5 522.785 586.5 523.445 586.5 524.125 C585.84 524.125 585.18 524.125 584.5 524.125 C584.5 525.115 584.5 526.105 584.5 527.125 C583.84 527.125 583.18 527.125 582.5 527.125 C582.231875 527.764375 581.96375 528.40375 581.6875 529.0625 C580.5 531.125 580.5 531.125 577.5 532.125 C577.5 533.115 577.5 534.105 577.5 535.125 C572.15116279 540.125 572.15116279 540.125 569.5 540.125 C569.5 541.115 569.5 542.105 569.5 543.125 C568.84 543.125 568.18 543.125 567.5 543.125 C567.5 544.115 567.5 545.105 567.5 546.125 C566.84 546.125 566.18 546.125 565.5 546.125 C565.5 546.785 565.5 547.445 565.5 548.125 C564.84 548.125 564.18 548.125 563.5 548.125 C563.5 549.115 563.5 550.105 563.5 551.125 C562.84 551.125 562.18 551.125 561.5 551.125 C560.84 552.775 560.18 554.425 559.5 556.125 C558.51 556.125 557.52 556.125 556.5 556.125 C556.5 557.115 556.5 558.105 556.5 559.125 C555.84 559.125 555.18 559.125 554.5 559.125 C554.5 559.785 554.5 560.445 554.5 561.125 C553.84 561.125 553.18 561.125 552.5 561.125 C552.5 562.115 552.5 563.105 552.5 564.125 C551.84 564.125 551.18 564.125 550.5 564.125 C550.2525 564.764375 550.005 565.40375 549.75 566.0625 C548.5 568.125 548.5 568.125 546.375 568.875 C545.446875 568.99875 545.446875 568.99875 544.5 569.125 C544.5 570.115 544.5 571.105 544.5 572.125 C543.84 572.125 543.18 572.125 542.5 572.125 C542.5 573.115 542.5 574.105 542.5 575.125 C541.84 575.125 541.18 575.125 540.5 575.125 C540.5 575.785 540.5 576.445 540.5 577.125 C539.51 577.125 538.52 577.125 537.5 577.125 C537.5 578.115 537.5 579.105 537.5 580.125 C536.84 580.125 536.18 580.125 535.5 580.125 C535.5 580.785 535.5 581.445 535.5 582.125 C534.18 582.455 532.86 582.785 531.5 583.125 C531.5 583.785 531.5 584.445 531.5 585.125 C530.84 585.125 530.18 585.125 529.5 585.125 C529.5 586.115 529.5 587.105 529.5 588.125 C528.84 588.125 528.18 588.125 527.5 588.125 C527.5 588.785 527.5 589.445 527.5 590.125 C526.84 590.125 526.18 590.125 525.5 590.125 C525.5 591.115 525.5 592.105 525.5 593.125 C524.84 593.125 524.18 593.125 523.5 593.125 C523.17 594.115 522.84 595.105 522.5 596.125 C521.51 596.125 520.52 596.125 519.5 596.125 C519.5 596.785 519.5 597.445 519.5 598.125 C518.51 598.125 517.52 598.125 516.5 598.125 C516.5 599.115 516.5 600.105 516.5 601.125 C515.84 601.125 515.18 601.125 514.5 601.125 C514.5 602.115 514.5 603.105 514.5 604.125 C513.84 604.125 513.18 604.125 512.5 604.125 C512.5 604.785 512.5 605.445 512.5 606.125 C511.84 606.125 511.18 606.125 510.5 606.125 C510.5 607.115 510.5 608.105 510.5 609.125 C507.16666667 612.125 507.16666667 612.125 504.5 612.125 C504.5 612.785 504.5 613.445 504.5 614.125 C503.84 614.125 503.18 614.125 502.5 614.125 C502.5 615.115 502.5 616.105 502.5 617.125 C501.51 617.125 500.52 617.125 499.5 617.125 C499.5 617.785 499.5 618.445 499.5 619.125 C496.03846154 622.125 496.03846154 622.125 493.5 622.125 C493.5 623.115 493.5 624.105 493.5 625.125 C492.84 625.125 492.18 625.125 491.5 625.125 C491.5 625.785 491.5 626.445 491.5 627.125 C490.1875 628.75 490.1875 628.75 488.5 630.125 C487.51 630.125 486.52 630.125 485.5 630.125 C485.5 631.115 485.5 632.105 485.5 633.125 C484.84 633.125 484.18 633.125 483.5 633.125 C483.5 633.785 483.5 634.445 483.5 635.125 C482.51 635.125 481.52 635.125 480.5 635.125 C480.17 636.115 479.84 637.105 479.5 638.125 C478.51 638.125 477.52 638.125 476.5 638.125 C476.5 639.115 476.5 640.105 476.5 641.125 C475.84 641.125 475.18 641.125 474.5 641.125 C474.5 641.785 474.5 642.445 474.5 643.125 C473.84 643.125 473.18 643.125 472.5 643.125 C472.5 644.115 472.5 645.105 472.5 646.125 C471.18 646.125 469.86 646.125 468.5 646.125 C468.231875 646.888125 467.96375 647.65125 467.6875 648.4375 C466.5333905 651.04943202 465.78712117 652.45364222 463.5 654.125 C462.18 654.125 460.86 654.125 459.5 654.125 C459.5 654.785 459.5 655.445 459.5 656.125 C458.84 656.125 458.18 656.125 457.5 656.125 C457.5 657.115 457.5 658.105 457.5 659.125 C456.18 659.125 454.86 659.125 453.5 659.125 C453.5 660.115 453.5 661.105 453.5 662.125 C452.84 662.125 452.18 662.125 451.5 662.125 C451.5 662.785 451.5 663.445 451.5 664.125 C450.18 664.125 448.86 664.125 447.5 664.125 C447.5 665.115 447.5 666.105 447.5 667.125 C446.84 667.125 446.18 667.125 445.5 667.125 C445.17 668.115 444.84 669.105 444.5 670.125 C443.84 670.125 443.18 670.125 442.5 670.125 C442.5 670.785 442.5 671.445 442.5 672.125 C441.18 672.125 439.86 672.125 438.5 672.125 C438.5 673.115 438.5 674.105 438.5 675.125 C437.84 675.125 437.18 675.125 436.5 675.125 C436.5 675.785 436.5 676.445 436.5 677.125 C435.18 677.455 433.86 677.785 432.5 678.125 C432.5 678.785 432.5 679.445 432.5 680.125 C431.84 680.125 431.18 680.125 430.5 680.125 C430.17 681.115 429.84 682.105 429.5 683.125 C428.51 683.125 427.52 683.125 426.5 683.125 C426.5 683.785 426.5 684.445 426.5 685.125 C425.84 685.125 425.18 685.125 424.5 685.125 C424.17 686.115 423.84 687.105 423.5 688.125 C422.18 688.125 420.86 688.125 419.5 688.125 C419.5 689.115 419.5 690.105 419.5 691.125 C418.84 691.125 418.18 691.125 417.5 691.125 C417.5 691.785 417.5 692.445 417.5 693.125 C414.03846154 696.125 414.03846154 696.125 411.5 696.125 C411.5 697.115 411.5 698.105 411.5 699.125 C408.5 701.125 408.5 701.125 405.5 701.125 C405.17 702.115 404.84 703.105 404.5 704.125 C403.51 704.455 402.52 704.785 401.5 705.125 C401.17 705.785 400.84 706.445 400.5 707.125 C399.84 707.125 399.18 707.125 398.5 707.125 C398.5 707.785 398.5 708.445 398.5 709.125 C397.18 709.125 395.86 709.125 394.5 709.125 C394.5 710.115 394.5 711.105 394.5 712.125 C393.84 712.125 393.18 712.125 392.5 712.125 C392.5 712.785 392.5 713.445 392.5 714.125 C391.51 714.125 390.52 714.125 389.5 714.125 C389.17 715.115 388.84 716.105 388.5 717.125 C387.84 717.125 387.18 717.125 386.5 717.125 C386.17 718.115 385.84 719.105 385.5 720.125 C384.84 720.125 384.18 720.125 383.5 720.125 C383.5 720.785 383.5 721.445 383.5 722.125 C382.18 722.125 380.86 722.125 379.5 722.125 C379.5 723.115 379.5 724.105 379.5 725.125 C378.51 725.125 377.52 725.125 376.5 725.125 C376.17 726.115 375.84 727.105 375.5 728.125 C374.84 728.125 374.18 728.125 373.5 728.125 C373.5 728.785 373.5 729.445 373.5 730.125 C370.03846154 733.125 370.03846154 733.125 367.5 733.125 C367.17 734.115 366.84 735.105 366.5 736.125 C365.84 736.125 365.18 736.125 364.5 736.125 C364.5 736.785 364.5 737.445 364.5 738.125 C363.84 738.125 363.18 738.125 362.5 738.125 C362.5 738.785 362.5 739.445 362.5 740.125 C361.18 740.455 359.86 740.785 358.5 741.125 C358.5 741.785 358.5 742.445 358.5 743.125 C357.84 743.125 357.18 743.125 356.5 743.125 C356.5 744.115 356.5 745.105 356.5 746.125 C355.51 746.125 354.52 746.125 353.5 746.125 C353.17 747.115 352.84 748.105 352.5 749.125 C351.84 749.125 351.18 749.125 350.5 749.125 C350.5 749.785 350.5 750.445 350.5 751.125 C349.84 751.125 349.18 751.125 348.5 751.125 C348.17 752.115 347.84 753.105 347.5 754.125 C346.84 754.125 346.18 754.125 345.5 754.125 C345.5 754.785 345.5 755.445 345.5 756.125 C344.18 756.455 342.86 756.785 341.5 757.125 C341.5 757.785 341.5 758.445 341.5 759.125 C340.84 759.125 340.18 759.125 339.5 759.125 C339.5 760.115 339.5 761.105 339.5 762.125 C338.84 762.125 338.18 762.125 337.5 762.125 C337.5 762.785 337.5 763.445 337.5 764.125 C336.84 764.125 336.18 764.125 335.5 764.125 C335.17 765.115 334.84 766.105 334.5 767.125 C333.51 767.125 332.52 767.125 331.5 767.125 C331.5 768.115 331.5 769.105 331.5 770.125 C330.84 770.125 330.18 770.125 329.5 770.125 C329.5 770.785 329.5 771.445 329.5 772.125 C328.84 772.125 328.18 772.125 327.5 772.125 C327.17 773.115 326.84 774.105 326.5 775.125 C325.84 775.125 325.18 775.125 324.5 775.125 C324.5 776.115 324.5 777.105 324.5 778.125 C323.84 778.125 323.18 778.125 322.5 778.125 C322.5 778.785 322.5 779.445 322.5 780.125 C321.84 780.125 321.18 780.125 320.5 780.125 C320.5 781.115 320.5 782.105 320.5 783.125 C319.84 783.125 319.18 783.125 318.5 783.125 C318.5 783.785 318.5 784.445 318.5 785.125 C317.18 785.455 315.86 785.785 314.5 786.125 C314.5 786.785 314.5 787.445 314.5 788.125 C313.84 788.125 313.18 788.125 312.5 788.125 C312.5 789.115 312.5 790.105 312.5 791.125 C311.84 791.125 311.18 791.125 310.5 791.125 C310.17 792.115 309.84 793.105 309.5 794.125 C308.84 794.125 308.18 794.125 307.5 794.125 C307.5 794.785 307.5 795.445 307.5 796.125 C306.18 796.125 304.86 796.125 303.5 796.125 C303.5 797.115 303.5 798.105 303.5 799.125 C302.84 799.125 302.18 799.125 301.5 799.125 C301.5 799.785 301.5 800.445 301.5 801.125 C300.18 801.125 298.86 801.125 297.5 801.125 C297.5 802.115 297.5 803.105 297.5 804.125 C296.18 804.125 294.86 804.125 293.5 804.125 C293.5 805.115 293.5 806.105 293.5 807.125 C291.85 807.125 290.2 807.125 288.5 807.125 C288.5 807.785 288.5 808.445 288.5 809.125 C271.6070615 809.67853075 271.6070615 809.67853075 264.5 806.125 C264.5 805.465 264.5 804.805 264.5 804.125 C262.85 804.125 261.2 804.125 259.5 804.125 C259.5 803.135 259.5 802.145 259.5 801.125 C257.52 800.465 255.54 799.805 253.5 799.125 C253.5 798.135 253.5 797.145 253.5 796.125 C252.943125 796.0425 252.38625 795.96 251.8125 795.875 C248.73811154 794.87790104 246.83757048 793.33270546 244.5 791.125 C244.5 790.135 244.5 789.145 244.5 788.125 C243.84 788.125 243.18 788.125 242.5 788.125 C242.5 787.465 242.5 786.805 242.5 786.125 C241.84 786.125 241.18 786.125 240.5 786.125 C240.17 785.465 239.84 784.805 239.5 784.125 C238.51 783.795 237.52 783.465 236.5 783.125 C236.5 782.135 236.5 781.145 236.5 780.125 C235.84 780.125 235.18 780.125 234.5 780.125 C234.5 779.465 234.5 778.805 234.5 778.125 C233.84 778.125 233.18 778.125 232.5 778.125 C232.5 777.135 232.5 776.145 232.5 775.125 C231.84 775.125 231.18 775.125 230.5 775.125 C230.5 774.135 230.5 773.145 230.5 772.125 C229.51 772.125 228.52 772.125 227.5 772.125 C227.5 771.465 227.5 770.805 227.5 770.125 C226.9225 769.8775 226.345 769.63 225.75 769.375 C223.17060021 767.94200012 221.43878408 766.34075324 219.5 764.125 C219.5 763.465 219.5 762.805 219.5 762.125 C218.84 762.125 218.18 762.125 217.5 762.125 C217.5 761.135 217.5 760.145 217.5 759.125 C216.84 759.125 216.18 759.125 215.5 759.125 C215.5 758.465 215.5 757.805 215.5 757.125 C214.18 756.795 212.86 756.465 211.5 756.125 C211.5 755.465 211.5 754.805 211.5 754.125 C210.51 753.795 209.52 753.465 208.5 753.125 C208.5 752.465 208.5 751.805 208.5 751.125 C207.84 751.125 207.18 751.125 206.5 751.125 C206.5 750.465 206.5 749.805 206.5 749.125 C205.18 748.795 203.86 748.465 202.5 748.125 C202.5 747.465 202.5 746.805 202.5 746.125 C201.84 746.125 201.18 746.125 200.5 746.125 C200.5 745.135 200.5 744.145 200.5 743.125 C198.52 742.465 196.54 741.805 194.5 741.125 C194.5 740.135 194.5 739.145 194.5 738.125 C193.84 738.125 193.18 738.125 192.5 738.125 C192.5 737.465 192.5 736.805 192.5 736.125 C191.18 735.795 189.86 735.465 188.5 735.125 C188.5 734.465 188.5 733.805 188.5 733.125 C187.51 733.125 186.52 733.125 185.5 733.125 C185.5 732.135 185.5 731.145 185.5 730.125 C184.84 730.125 184.18 730.125 183.5 730.125 C183.5 729.465 183.5 728.805 183.5 728.125 C182.84 728.125 182.18 728.125 181.5 728.125 C181.17 727.465 180.84 726.805 180.5 726.125 C179.51 725.795 178.52 725.465 177.5 725.125 C177.5 724.135 177.5 723.145 177.5 722.125 C176.84 722.125 176.18 722.125 175.5 722.125 C175.5 721.465 175.5 720.805 175.5 720.125 C174.18 720.125 172.86 720.125 171.5 720.125 C171.5 719.135 171.5 718.145 171.5 717.125 C170.51 717.125 169.52 717.125 168.5 717.125 C168.5 716.135 168.5 715.145 168.5 714.125 C167.18 714.125 165.86 714.125 164.5 714.125 C164.5 713.465 164.5 712.805 164.5 712.125 C163.88125 711.815625 163.2625 711.50625 162.625 711.1875 C161.25 710.5 159.875 709.8125 158.5 709.125 C158.5 708.465 158.5 707.805 158.5 707.125 C157.84 707.125 157.18 707.125 156.5 707.125 C156.5 706.135 156.5 705.145 156.5 704.125 C155.18 704.125 153.86 704.125 152.5 704.125 C152.5 703.135 152.5 702.145 152.5 701.125 C151.71625 700.980625 150.9325 700.83625 150.125 700.6875 C147.5 700.125 147.5 700.125 145.5 699.125 C145.5 698.135 145.5 697.145 145.5 696.125 C144.18 696.125 142.86 696.125 141.5 696.125 C141.5 695.135 141.5 694.145 141.5 693.125 C140.84 693.125 140.18 693.125 139.5 693.125 C139.5 692.465 139.5 691.805 139.5 691.125 C138.18 691.125 136.86 691.125 135.5 691.125 C135.5 690.135 135.5 689.145 135.5 688.125 C134.84 688.125 134.18 688.125 133.5 688.125 C133.5 687.135 133.5 686.145 133.5 685.125 C132.18 685.125 130.86 685.125 129.5 685.125 C129.5 684.465 129.5 683.805 129.5 683.125 C128.51 682.795 127.52 682.465 126.5 682.125 C126.5 681.465 126.5 680.805 126.5 680.125 C125.84 680.125 125.18 680.125 124.5 680.125 C124.5 679.465 124.5 678.805 124.5 678.125 C123.18 677.795 121.86 677.465 120.5 677.125 C120.5 676.465 120.5 675.805 120.5 675.125 C119.84 675.125 119.18 675.125 118.5 675.125 C118.5 674.135 118.5 673.145 118.5 672.125 C117.18 672.125 115.86 672.125 114.5 672.125 C114.5 671.465 114.5 670.805 114.5 670.125 C113.51 669.795 112.52 669.465 111.5 669.125 C111.5 668.465 111.5 667.805 111.5 667.125 C110.18 666.795 108.86 666.465 107.5 666.125 C107.5 665.465 107.5 664.805 107.5 664.125 C106.84 664.125 106.18 664.125 105.5 664.125 C105.5 663.465 105.5 662.805 105.5 662.125 C104.84 662.125 104.18 662.125 103.5 662.125 C103.5 661.135 103.5 660.145 103.5 659.125 C102.18 659.125 100.86 659.125 99.5 659.125 C99.5 658.135 99.5 657.145 99.5 656.125 C98.84 656.125 98.18 656.125 97.5 656.125 C97.5 655.465 97.5 654.805 97.5 654.125 C96.18 654.125 94.86 654.125 93.5 654.125 C93.5 653.135 93.5 652.145 93.5 651.125 C92.51 651.125 91.52 651.125 90.5 651.125 C88.8125 649.75 88.8125 649.75 87.5 648.125 C87.5 647.465 87.5 646.805 87.5 646.125 C86.51 646.125 85.52 646.125 84.5 646.125 C84.5 645.135 84.5 644.145 84.5 643.125 C83.84 643.125 83.18 643.125 82.5 643.125 C82.5 642.465 82.5 641.805 82.5 641.125 C81.18 640.795 79.86 640.465 78.5 640.125 C78.5 639.465 78.5 638.805 78.5 638.125 C77.84 638.125 77.18 638.125 76.5 638.125 C76.5 637.135 76.5 636.145 76.5 635.125 C75.6646875 635.00125 75.6646875 635.00125 74.8125 634.875 C71.73811154 633.87790104 69.83757048 632.33270546 67.5 630.125 C67.5 629.135 67.5 628.145 67.5 627.125 C66.84 627.125 66.18 627.125 65.5 627.125 C65.5 626.465 65.5 625.805 65.5 625.125 C64.88125 624.815625 64.2625 624.50625 63.625 624.1875 C62.25 623.5 60.875 622.8125 59.5 622.125 C59.5 621.135 59.5 620.145 59.5 619.125 C58.84 619.125 58.18 619.125 57.5 619.125 C57.5 618.465 57.5 617.805 57.5 617.125 C56.51 616.795 55.52 616.465 54.5 616.125 C54.5 615.465 54.5 614.805 54.5 614.125 C53.84 614.125 53.18 614.125 52.5 614.125 C52.5 613.465 52.5 612.805 52.5 612.125 C51.51 611.795 50.52 611.465 49.5 611.125 C49.5 610.465 49.5 609.805 49.5 609.125 C48.51 609.125 47.52 609.125 46.5 609.125 C46.5 608.135 46.5 607.145 46.5 606.125 C45.84 606.125 45.18 606.125 44.5 606.125 C44.5 605.465 44.5 604.805 44.5 604.125 C43.84 604.125 43.18 604.125 42.5 604.125 C42.5 603.135 42.5 602.145 42.5 601.125 C41.18 600.795 39.86 600.465 38.5 600.125 C38.5 599.465 38.5 598.805 38.5 598.125 C37.84 598.125 37.18 598.125 36.5 598.125 C36.5 597.465 36.5 596.805 36.5 596.125 C35.51 595.795 34.52 595.465 33.5 595.125 C33.5 594.465 33.5 593.805 33.5 593.125 C32.84 593.125 32.18 593.125 31.5 593.125 C30.84 591.475 30.18 589.825 29.5 588.125 C28.84 588.125 28.18 588.125 27.5 588.125 C27.17 587.465 26.84 586.805 26.5 586.125 C25.51 585.795 24.52 585.465 23.5 585.125 C22.3125 582.5625 22.3125 582.5625 21.5 580.125 C20.84 580.125 20.18 580.125 19.5 580.125 C19.5 579.135 19.5 578.145 19.5 577.125 C18.84 577.125 18.18 577.125 17.5 577.125 C17.5 576.465 17.5 575.805 17.5 575.125 C16.51 574.795 15.52 574.465 14.5 574.125 C14.5 573.465 14.5 572.805 14.5 572.125 C13.51 571.795 12.52 571.465 11.5 571.125 C11.5 570.465 11.5 569.805 11.5 569.125 C10.51 569.125 9.52 569.125 8.5 569.125 C8.5 568.465 8.5 567.805 8.5 567.125 C7.84 567.125 7.18 567.125 6.5 567.125 C6.5 566.135 6.5 565.145 6.5 564.125 C5.84 564.125 5.18 564.125 4.5 564.125 C4.5 563.135 4.5 562.145 4.5 561.125 C3.84 561.125 3.18 561.125 2.5 561.125 C2.5 560.465 2.5 559.805 2.5 559.125 C1.84 559.125 1.18 559.125 0.5 559.125 C0.5 558.135 0.5 557.145 0.5 556.125 C-0.16 556.125 -0.82 556.125 -1.5 556.125 C-1.5 555.465 -1.5 554.805 -1.5 554.125 C-2.49 553.795 -3.48 553.465 -4.5 553.125 C-4.5 552.465 -4.5 551.805 -4.5 551.125 C-5.16 551.125 -5.82 551.125 -6.5 551.125 C-6.5 550.135 -6.5 549.145 -6.5 548.125 C-7.16 548.125 -7.82 548.125 -8.5 548.125 C-8.5 547.465 -8.5 546.805 -8.5 546.125 C-9.16 546.125 -9.82 546.125 -10.5 546.125 C-10.5 545.135 -10.5 544.145 -10.5 543.125 C-11.16 543.125 -11.82 543.125 -12.5 543.125 C-12.5 542.135 -12.5 541.145 -12.5 540.125 C-13.16 540.125 -13.82 540.125 -14.5 540.125 C-14.5 539.465 -14.5 538.805 -14.5 538.125 C-15.16 538.125 -15.82 538.125 -16.5 538.125 C-16.5 537.135 -16.5 536.145 -16.5 535.125 C-17.16 535.125 -17.82 535.125 -18.5 535.125 C-19.16 533.475 -19.82 531.825 -20.5 530.125 C-21.49 530.125 -22.48 530.125 -23.5 530.125 C-25.7265625 527.82421875 -25.7265625 527.82421875 -28.125 524.8125 C-28.92164063 523.82636719 -29.71828125 522.84023438 -30.5390625 521.82421875 C-32.5 519.125 -32.5 519.125 -33.5 516.125 C-34.16 516.125 -34.82 516.125 -35.5 516.125 C-39.5 510.71323529 -39.5 510.71323529 -39.5 508.125 C-40.16 508.125 -40.82 508.125 -41.5 508.125 C-41.5 507.465 -41.5 506.805 -41.5 506.125 C-42.16 506.125 -42.82 506.125 -43.5 506.125 C-47.375 499.5 -47.375 499.5 -48.5 496.125 C-49.16 496.125 -49.82 496.125 -50.5 496.125 C-51.90234375 494.515625 -51.90234375 494.515625 -53.4375 492.375 C-54.19353516 491.33085938 -54.19353516 491.33085938 -54.96484375 490.265625 C-55.72474609 489.20601563 -55.72474609 489.20601563 -56.5 488.125 C-57.05816406 487.41859375 -57.61632812 486.7121875 -58.19140625 485.984375 C-59.5 484.125 -59.5 484.125 -59.5 482.125 C-60.16 482.125 -60.82 482.125 -61.5 482.125 C-61.5 481.465 -61.5 480.805 -61.5 480.125 C-62.16 480.125 -62.82 480.125 -63.5 480.125 C-63.5 479.135 -63.5 478.145 -63.5 477.125 C-64.16 477.125 -64.82 477.125 -65.5 477.125 C-65.5 476.135 -65.5 475.145 -65.5 474.125 C-66.16 474.125 -66.82 474.125 -67.5 474.125 C-67.5 473.465 -67.5 472.805 -67.5 472.125 C-68.16 472.125 -68.82 472.125 -69.5 472.125 C-69.5 471.135 -69.5 470.145 -69.5 469.125 C-70.16 469.125 -70.82 469.125 -71.5 469.125 C-72.16 467.475 -72.82 465.825 -73.5 464.125 C-74.16 464.125 -74.82 464.125 -75.5 464.125 C-76.75664978 461.21899739 -77.5 459.32895416 -77.5 456.125 C-78.49 455.795 -79.48 455.465 -80.5 455.125 C-80.5 454.465 -80.5 453.805 -80.5 453.125 C-81.16 453.125 -81.82 453.125 -82.5 453.125 C-83.75664978 450.21899739 -84.5 448.32895416 -84.5 445.125 C-85.16 445.125 -85.82 445.125 -86.5 445.125 C-86.5 444.465 -86.5 443.805 -86.5 443.125 C-87.16 443.125 -87.82 443.125 -88.5 443.125 C-88.5 442.135 -88.5 441.145 -88.5 440.125 C-89.16 440.125 -89.82 440.125 -90.5 440.125 C-90.5 439.135 -90.5 438.145 -90.5 437.125 C-91.16 437.125 -91.82 437.125 -92.5 437.125 C-92.5 435.475 -92.5 433.825 -92.5 432.125 C-93.16 432.125 -93.82 432.125 -94.5 432.125 C-94.5 431.465 -94.5 430.805 -94.5 430.125 C-95.16 430.125 -95.82 430.125 -96.5 430.125 C-96.5 429.135 -96.5 428.145 -96.5 427.125 C-97.16 427.125 -97.82 427.125 -98.5 427.125 C-102.90774487 418.863041 -102.90774487 418.863041 -103.5 414.125 C-104.16 414.125 -104.82 414.125 -105.5 414.125 C-107.26462683 411.03690305 -107.5 409.89187864 -107.5 406.125 C-108.16 406.125 -108.82 406.125 -109.5 406.125 C-109.5 404.475 -109.5 402.825 -109.5 401.125 C-110.16 401.125 -110.82 401.125 -111.5 401.125 C-113.26462683 398.03690305 -113.5 396.89187864 -113.5 393.125 C-114.16 393.125 -114.82 393.125 -115.5 393.125 C-115.5 391.145 -115.5 389.165 -115.5 387.125 C-116.16 387.125 -116.82 387.125 -117.5 387.125 C-117.5 385.475 -117.5 383.825 -117.5 382.125 C-118.49 382.125 -119.48 382.125 -120.5 382.125 C-122.26462683 379.03690305 -122.5 377.89187864 -122.5 374.125 C-123.16 374.125 -123.82 374.125 -124.5 374.125 C-124.5 372.475 -124.5 370.825 -124.5 369.125 C-125.16 369.125 -125.82 369.125 -126.5 369.125 C-126.5 367.475 -126.5 365.825 -126.5 364.125 C-127.16 364.125 -127.82 364.125 -128.5 364.125 C-128.5 362.145 -128.5 360.165 -128.5 358.125 C-129.16 358.125 -129.82 358.125 -130.5 358.125 C-130.5 356.475 -130.5 354.825 -130.5 353.125 C-131.16 353.125 -131.82 353.125 -132.5 353.125 C-132.5 351.475 -132.5 349.825 -132.5 348.125 C-133.16 348.125 -133.82 348.125 -134.5 348.125 C-134.5 345.485 -134.5 342.845 -134.5 340.125 C-135.16 340.125 -135.82 340.125 -136.5 340.125 C-136.5 338.475 -136.5 336.825 -136.5 335.125 C-137.16 335.125 -137.82 335.125 -138.5 335.125 C-140.53993514 330.19515675 -141.90652968 326.54539575 -141.5 321.125 C-142.16 321.125 -142.82 321.125 -143.5 321.125 C-143.644375 319.990625 -143.78875 318.85625 -143.9375 317.6875 C-144.11171478 314.31722799 -144.11171478 314.31722799 -145.5 313.125 C-145.54092937 310.79202567 -145.54241723 308.45794775 -145.5 306.125 C-146.16 306.125 -146.82 306.125 -147.5 306.125 C-147.5 303.485 -147.5 300.845 -147.5 298.125 C-148.16 298.125 -148.82 298.125 -149.5 298.125 C-149.5 295.485 -149.5 292.845 -149.5 290.125 C-150.16 290.125 -150.82 290.125 -151.5 290.125 C-151.5 285.835 -151.5 281.545 -151.5 277.125 C-152.16 277.125 -152.82 277.125 -153.5 277.125 C-153.56058594 276.34253906 -153.62117187 275.56007813 -153.68359375 274.75390625 C-153.80927734 273.23603516 -153.80927734 273.23603516 -153.9375 271.6875 C-154.01871094 270.67816406 -154.09992188 269.66882813 -154.18359375 268.62890625 C-154.23211468 266.18859221 -154.23211468 266.18859221 -155.5 265.125 C-155.57258946 262.93860547 -155.58373783 260.74999611 -155.5625 258.5625 C-155.55347656 257.36496094 -155.54445312 256.16742188 -155.53515625 254.93359375 C-155.52355469 254.00675781 -155.51195312 253.07992187 -155.5 252.125 C-156.16 252.125 -156.82 252.125 -157.5 252.125 C-158.43946252 249.30661244 -158.67450114 247.34681718 -158.78125 244.4140625 C-158.81863281 243.49882812 -158.85601562 242.58359375 -158.89453125 241.640625 C-158.92933594 240.68671875 -158.96414062 239.7328125 -159 238.75 C-159.06926384 236.86704958 -159.1420685 234.98422543 -159.21875 233.1015625 C-159.26418945 231.84980225 -159.26418945 231.84980225 -159.31054688 230.57275391 C-159.44236712 228.13139142 -159.44236712 228.13139142 -160.00927734 225.81420898 C-160.66012828 222.24748111 -160.64286634 218.73304717 -160.6328125 215.12109375 C-160.63376923 214.36079361 -160.63472595 213.60049347 -160.63571167 212.81715393 C-160.63638981 211.21607378 -160.63456112 209.61499083 -160.63037109 208.01391602 C-160.6250102 205.5671572 -160.63033228 203.12058132 -160.63671875 200.67382812 C-160.63605805 199.11458293 -160.63477705 197.55533785 -160.6328125 195.99609375 C-160.63483673 195.26684189 -160.63686096 194.53759003 -160.63894653 193.78623962 C-160.62330135 190.38991018 -160.40381018 187.39102165 -159.5 184.125 C-159.36684591 182.35538903 -159.27692814 180.58225333 -159.21875 178.80859375 C-159.18136719 177.79732422 -159.14398438 176.78605469 -159.10546875 175.74414062 C-159.0350269 173.61914491 -158.96471488 171.49414489 -158.89453125 169.36914062 C-158.85714844 168.35916016 -158.81976563 167.34917969 -158.78125 166.30859375 C-158.75095703 165.38618896 -158.72066406 164.46378418 -158.68945312 163.51342773 C-158.5 161.125 -158.5 161.125 -157.5 158.125 C-156.84 158.125 -156.18 158.125 -155.5 158.125 C-155.5 153.175 -155.5 148.225 -155.5 143.125 C-154.84 143.125 -154.18 143.125 -153.5 143.125 C-153.5 138.505 -153.5 133.885 -153.5 129.125 C-152.84 129.125 -152.18 129.125 -151.5 129.125 C-151.5 125.825 -151.5 122.525 -151.5 119.125 C-150.84 119.125 -150.18 119.125 -149.5 119.125 C-149.5 116.485 -149.5 113.845 -149.5 111.125 C-148.84 111.125 -148.18 111.125 -147.5 111.125 C-147.54125 110.42375 -147.5825 109.7225 -147.625 109 C-147.48331668 105.74128372 -146.63265314 103.1690053 -145.5 100.125 C-144.84 100.125 -144.18 100.125 -143.5 100.125 C-143.5 98.475 -143.5 96.825 -143.5 95.125 C-142.84 95.125 -142.18 95.125 -141.5 95.125 C-141.5 93.475 -141.5 91.825 -141.5 90.125 C-140.84 90.125 -140.18 90.125 -139.5 90.125 C-139.37625 89.361875 -139.2525 88.59875 -139.125 87.8125 C-138.5 85.125 -138.5 85.125 -136.5 82.125 C-135.84 82.125 -135.18 82.125 -134.5 82.125 C-134.355625 81.5475 -134.21125 80.97 -134.0625 80.375 C-133.54166667 78.29166667 -133.02083333 76.20833333 -132.5 74.125 C-131.84 74.125 -131.18 74.125 -130.5 74.125 C-130.5 73.135 -130.5 72.145 -130.5 71.125 C-129.84 71.125 -129.18 71.125 -128.5 71.125 C-128.355625 70.361875 -128.21125 69.59875 -128.0625 68.8125 C-127.5 66.125 -127.5 66.125 -126.5 63.125 C-125.84 63.125 -125.18 63.125 -124.5 63.125 C-124.5 62.465 -124.5 61.805 -124.5 61.125 C-123.84 61.125 -123.18 61.125 -122.5 61.125 C-122.5 60.135 -122.5 59.145 -122.5 58.125 C-121.84 58.125 -121.18 58.125 -120.5 58.125 C-120.17 57.135 -119.84 56.145 -119.5 55.125 C-118.84 55.125 -118.18 55.125 -117.5 55.125 C-117.5 54.465 -117.5 53.805 -117.5 53.125 C-116.84 53.125 -116.18 53.125 -115.5 53.125 C-115.5 52.135 -115.5 51.145 -115.5 50.125 C-114.84 50.125 -114.18 50.125 -113.5 50.125 C-113.5 49.135 -113.5 48.145 -113.5 47.125 C-112.84 47.125 -112.18 47.125 -111.5 47.125 C-111.5 46.465 -111.5 45.805 -111.5 45.125 C-110.84 45.125 -110.18 45.125 -109.5 45.125 C-109.5 44.135 -109.5 43.145 -109.5 42.125 C-108.84 42.125 -108.18 42.125 -107.5 42.125 C-107.5 41.465 -107.5 40.805 -107.5 40.125 C-106.51 39.795 -105.52 39.465 -104.5 39.125 C-104.005 38.135 -104.005 38.135 -103.5 37.125 C-102.84 37.125 -102.18 37.125 -101.5 37.125 C-101.17 36.135 -100.84 35.145 -100.5 34.125 C-99.18 34.125 -97.86 34.125 -96.5 34.125 C-96.5 33.465 -96.5 32.805 -96.5 32.125 C-95.84 32.125 -95.18 32.125 -94.5 32.125 C-94.5 31.135 -94.5 30.145 -94.5 29.125 C-93.18 29.125 -91.86 29.125 -90.5 29.125 C-90.5 28.135 -90.5 27.145 -90.5 26.125 C-89.18 26.125 -87.86 26.125 -86.5 26.125 C-86.5 25.465 -86.5 24.805 -86.5 24.125 C-85.18 24.125 -83.86 24.125 -82.5 24.125 C-82.5 23.135 -82.5 22.145 -82.5 21.125 C-80.85 21.125 -79.2 21.125 -77.5 21.125 C-77.005 19.64 -77.005 19.64 -76.5 18.125 C-73.17908998 16.41966783 -71.31507216 16.125 -67.5 16.125 C-67.5 15.135 -67.5 14.145 -67.5 13.125 C-65.85 13.125 -64.2 13.125 -62.5 13.125 C-62.5 12.465 -62.5 11.805 -62.5 11.125 C-59.79120665 9.77060332 -57.49066732 10.05998549 -54.5 10.125 C-54.5 9.465 -54.5 8.805 -54.5 8.125 C-51.86 8.125 -49.22 8.125 -46.5 8.125 C-46.17 7.135 -45.84 6.145 -45.5 5.125 C-44.43458984 5.03412109 -44.43458984 5.03412109 -43.34765625 4.94140625 C-41.96900391 4.81572266 -41.96900391 4.81572266 -40.5625 4.6875 C-39.64597656 4.60628906 -38.72945313 4.52507813 -37.78515625 4.44140625 C-35.53840268 4.36455024 -35.53840268 4.36455024 -34.5 3.125 C-32.64630389 3.03762355 -30.78932459 3.01801847 -28.93359375 3.02734375 C-27.80888672 3.03056641 -26.68417969 3.03378906 -25.52539062 3.03710938 C-24.34138672 3.04548828 -23.15738281 3.05386719 -21.9375 3.0625 C-20.74962891 3.06701172 -19.56175781 3.07152344 -18.33789062 3.07617188 C-15.39187774 3.08800325 -12.44596319 3.10448713 -9.5 3.125 C-9.5 2.465 -9.5 1.805 -9.5 1.125 C-6.46570323 -0.39214839 -3.32398333 -0.01863916 0 0 Z " fill="#5CE1E6" transform="translate(165.5,16.875)"/>
<path d="M0 0 C1.98 0 3.96 0 6 0 C6 0.66 6 1.32 6 2 C7.98 2.33 9.96 2.66 12 3 C12 3.66 12 4.32 12 5 C13.65 5 15.3 5 17 5 C17 5.99 17 6.98 17 8 C18.32 8 19.64 8 21 8 C21 8.66 21 9.32 21 10 C22.32 10.33 23.64 10.66 25 11 C25 11.66 25 12.32 25 13 C26.32 13.33 27.64 13.66 29 14 C29 14.66 29 15.32 29 16 C30.4540625 16.4021875 30.4540625 16.4021875 31.9375 16.8125 C32.948125 17.204375 33.95875 17.59625 35 18 C35.33 18.99 35.66 19.98 36 21 C36.66 21 37.32 21 38 21 C38.66 22.65 39.32 24.3 40 26 C41.32 26 42.64 26 44 26 C44 26.99 44 27.98 44 29 C44.66 29 45.32 29 46 29 C46 29.66 46 30.32 46 31 C46.66 31 47.32 31 48 31 C48 31.99 48 32.98 48 34 C48.66 34 49.32 34 50 34 C50 34.99 50 35.98 50 37 C50.99 37 51.98 37 53 37 C53 37.66 53 38.32 53 39 C53.66 39 54.32 39 55 39 C55 39.99 55 40.98 55 42 C55.66 42 56.32 42 57 42 C57 42.99 57 43.98 57 45 C57.66 45 58.32 45 59 45 C59 45.66 59 46.32 59 47 C59.66 47 60.32 47 61 47 C61 47.99 61 48.98 61 50 C61.66 50 62.32 50 63 50 C63 50.99 63 51.98 63 53 C63.66 53 64.32 53 65 53 C65 54.65 65 56.3 65 58 C65.66 58 66.32 58 67 58 C67 58.66 67 59.32 67 60 C67.66 60 68.32 60 69 60 C69 60.99 69 61.98 69 63 C69.66 63 70.32 63 71 63 C73.15305957 66.85756507 74.39253254 69.55129785 74 74 C74.66 74 75.32 74 76 74 C76.6496875 75.794375 76.6496875 75.794375 77.3125 77.625 C78.2920246 80.27904523 79.31341183 82.56878444 80.6875 85.0625 C82.2505878 88.56083937 82.22741831 91.2096948 82 95 C82.66 95 83.32 95 84 95 C84 97.64 84 100.28 84 103 C84.66 103 85.32 103 86 103 C86 106.3 86 109.6 86 113 C86.66 113 87.32 113 88 113 C88 117.62 88 122.24 88 127 C88.66 127 89.32 127 90 127 C91.37383781 131.12151342 91.384087 135.2461362 91.60546875 139.55078125 C91.77880744 142.58121967 92.03448616 145.10345849 93 148 C93.13784221 149.89444223 93.22480358 151.79279474 93.28125 153.69140625 C93.31863281 154.80064453 93.35601563 155.90988281 93.39453125 157.05273438 C93.46496103 159.39648085 93.53527314 161.74023087 93.60546875 164.08398438 C93.64285156 165.19193359 93.68023438 166.29988281 93.71875 167.44140625 C93.74904297 168.45920166 93.77933594 169.47699707 93.81054688 170.52563477 C93.84348322 173.00165418 93.84348322 173.00165418 95 175 C95.09757427 177.14276771 95.13077146 179.28860657 95.1328125 181.43359375 C95.13410156 182.72201172 95.13539063 184.01042969 95.13671875 185.33789062 C95.13357666 186.34686401 95.13357666 186.34686401 95.13037109 187.3762207 C95.12502991 189.42601965 95.13031546 191.47559859 95.13671875 193.52539062 C95.13542969 194.81509766 95.13414062 196.10480469 95.1328125 197.43359375 C95.13112061 199.21334595 95.13112061 199.21334595 95.12939453 201.02905273 C95 204 95 204 94 207 C93.86489901 208.52946156 93.77617141 210.06331348 93.71875 211.59765625 C93.68136719 212.48130859 93.64398437 213.36496094 93.60546875 214.27539062 C93.53500864 216.13736421 93.46469676 217.99934341 93.39453125 219.86132812 C93.33845703 221.18487305 93.33845703 221.18487305 93.28125 222.53515625 C93.23581055 223.74764038 93.23581055 223.74764038 93.18945312 224.98461914 C93 227 93 227 92 229 C91.79284663 231.48296326 91.62634234 233.95042768 91.5 236.4375 C91.13421788 243.59734637 91.13421788 243.59734637 90 247 C89.34 247 88.68 247 88 247 C88.01160156 247.92683594 88.02320313 248.85367188 88.03515625 249.80859375 C88.04869141 251.60490234 88.04869141 251.60490234 88.0625 253.4375 C88.07990234 255.22994141 88.07990234 255.22994141 88.09765625 257.05859375 C88 260 88 260 87 261 C86.79162581 262.82906235 86.63250341 264.66388134 86.5 266.5 C86.11111111 271.88888889 86.11111111 271.88888889 85 273 C84.76924918 274.34747084 84.58846937 275.70377565 84.4375 277.0625 C84.293125 278.361875 84.14875 279.66125 84 281 C83.34 281 82.68 281 82 281 C82 283.64 82 286.28 82 289 C81.34 289 80.68 289 80 289 C80.0309375 290.9490625 80.0309375 290.9490625 80.0625 292.9375 C80.08399454 294.29165633 80.07148199 295.64756083 80 297 C79.67 297.33 79.34 297.66 79 298 C78.63239269 300.32817964 78.29758419 302.6618385 78 305 C77.34 305 76.68 305 76 305 C76 306.98 76 308.96 76 311 C75.34 311 74.68 311 74 311 C73.855625 312.03125 73.71125 313.0625 73.5625 314.125 C73.08339543 317.42549813 72.56124917 320.71268341 72 324 C71.01 324 70.02 324 69 324 C69 326.64 69 329.28 69 332 C68.34 332 67.68 332 67 332 C67 333.65 67 335.3 67 337 C66.34 337 65.68 337 65 337 C65 338.65 65 340.3 65 342 C64.34 342 63.68 342 63 342 C63.04125 342.70125 63.0825 343.4025 63.125 344.125 C62.98331668 347.38371628 62.13265314 349.9559947 61 353 C60.34 353 59.68 353 59 353 C58.896875 353.66 58.79375 354.32 58.6875 355 C57.80786436 358.83841009 56.43030104 362.33096691 55 366 C54.34 366 53.68 366 53 366 C53 367.65 53 369.3 53 371 C52.01 371 51.02 371 50 371 C50 372.98 50 374.96 50 377 C49.34 377 48.68 377 48 377 C48 378.32 48 379.64 48 381 C47.34 381 46.68 381 46 381 C46 382.32 46 383.64 46 385 C45.34 385 44.68 385 44 385 C44 386.65 44 388.3 44 390 C43.34 390 42.68 390 42 390 C41.855625 390.5775 41.71125 391.155 41.5625 391.75 C41.04166667 393.83333333 40.52083333 395.91666667 40 398 C39.34 398 38.68 398 38 398 C37.34 400.64 36.68 403.28 36 406 C35.34 406 34.68 406 34 406 C32.92474806 408.65228812 31.90543849 411.28368454 31 414 C30.34 414 29.68 414 29 414 C29 414.66 29 415.32 29 416 C28.34 416 27.68 416 27 416 C27 417.65 27 419.3 27 421 C26.34 421 25.68 421 25 421 C25 421.99 25 422.98 25 424 C24.34 424 23.68 424 23 424 C23 424.99 23 425.98 23 427 C22.34 427 21.68 427 21 427 C20.71125 428.093125 20.4225 429.18625 20.125 430.3125 C19 434 19 434 17 437 C16.34 437 15.68 437 15 437 C15 437.99 15 438.98 15 440 C14.34 440 13.68 440 13 440 C12.67 440.99 12.34 441.98 12 443 C11.34 443 10.68 443 10 443 C10 443.66 10 444.32 10 445 C9.34 445 8.68 445 8 445 C7.938125 445.66 7.87625 446.32 7.8125 447 C6.69621505 451.1216675 4.66238434 454.65750502 2 458 C1.34 458 0.68 458 0 458 C0 458.99 0 459.98 0 461 C-0.66 461 -1.32 461 -2 461 C-2 461.99 -2 462.98 -2 464 C-2.66 464 -3.32 464 -4 464 C-4 464.66 -4 465.32 -4 466 C-4.66 466 -5.32 466 -6 466 C-6.33 466.99 -6.66 467.98 -7 469 C-7.66 469 -8.32 469 -9 469 C-9 469.99 -9 470.98 -9 472 C-9.66 472 -10.32 472 -11 472 C-11 472.66 -11 473.32 -11 474 C-11.66 474 -12.32 474 -13 474 C-13 474.99 -13 475.98 -13 477 C-13.66 477 -14.32 477 -15 477 C-15 477.99 -15 478.98 -15 480 C-15.66 480 -16.32 480 -17 480 C-17 480.66 -17 481.32 -17 482 C-17.66 482 -18.32 482 -19 482 C-19 482.99 -19 483.98 -19 485 C-19.66 485 -20.32 485 -21 485 C-21 485.66 -21 486.32 -21 487 C-21.66 487 -22.32 487 -23 487 C-23.12375 487.763125 -23.2475 488.52625 -23.375 489.3125 C-24 492 -24 492 -26 495 C-26.66 495 -27.32 495 -28 495 C-28 495.99 -28 496.98 -28 498 C-28.66 498 -29.32 498 -30 498 C-30.66 499.65 -31.32 501.3 -32 503 C-32.66 503 -33.32 503 -34 503 C-34 503.99 -34 504.98 -34 506 C-34.66 506 -35.32 506 -36 506 C-36 506.66 -36 507.32 -36 508 C-36.66 508 -37.32 508 -38 508 C-38 508.99 -38 509.98 -38 511 C-38.66 511 -39.32 511 -40 511 C-40.268125 511.639375 -40.53625 512.27875 -40.8125 512.9375 C-42 515 -42 515 -45 516 C-45 516.99 -45 517.98 -45 519 C-50.34883721 524 -50.34883721 524 -53 524 C-53 524.99 -53 525.98 -53 527 C-53.66 527 -54.32 527 -55 527 C-55 527.99 -55 528.98 -55 530 C-55.66 530 -56.32 530 -57 530 C-57 530.66 -57 531.32 -57 532 C-57.66 532 -58.32 532 -59 532 C-59 532.99 -59 533.98 -59 535 C-59.66 535 -60.32 535 -61 535 C-61.66 536.65 -62.32 538.3 -63 540 C-63.99 540 -64.98 540 -66 540 C-66 540.99 -66 541.98 -66 543 C-66.66 543 -67.32 543 -68 543 C-68 543.66 -68 544.32 -68 545 C-68.66 545 -69.32 545 -70 545 C-70 545.99 -70 546.98 -70 548 C-70.66 548 -71.32 548 -72 548 C-72.2475 548.639375 -72.495 549.27875 -72.75 549.9375 C-74 552 -74 552 -76.125 552.75 C-77.053125 552.87375 -77.053125 552.87375 -78 553 C-78 553.99 -78 554.98 -78 556 C-78.66 556 -79.32 556 -80 556 C-80 556.99 -80 557.98 -80 559 C-80.66 559 -81.32 559 -82 559 C-82 559.66 -82 560.32 -82 561 C-82.99 561 -83.98 561 -85 561 C-85 561.99 -85 562.98 -85 564 C-85.66 564 -86.32 564 -87 564 C-87 564.66 -87 565.32 -87 566 C-88.32 566.33 -89.64 566.66 -91 567 C-91 567.66 -91 568.32 -91 569 C-91.66 569 -92.32 569 -93 569 C-93 569.99 -93 570.98 -93 572 C-93.66 572 -94.32 572 -95 572 C-95 572.66 -95 573.32 -95 574 C-95.66 574 -96.32 574 -97 574 C-97 574.99 -97 575.98 -97 577 C-97.66 577 -98.32 577 -99 577 C-99.33 577.99 -99.66 578.98 -100 580 C-100.99 580 -101.98 580 -103 580 C-103 580.66 -103 581.32 -103 582 C-103.99 582 -104.98 582 -106 582 C-106 582.99 -106 583.98 -106 585 C-106.66 585 -107.32 585 -108 585 C-108 585.99 -108 586.98 -108 588 C-108.66 588 -109.32 588 -110 588 C-110 588.66 -110 589.32 -110 590 C-110.66 590 -111.32 590 -112 590 C-112 590.99 -112 591.98 -112 593 C-115.33333333 596 -115.33333333 596 -118 596 C-118 596.66 -118 597.32 -118 598 C-118.66 598 -119.32 598 -120 598 C-120 598.99 -120 599.98 -120 601 C-120.99 601 -121.98 601 -123 601 C-123 601.66 -123 602.32 -123 603 C-126.46153846 606 -126.46153846 606 -129 606 C-129 606.99 -129 607.98 -129 609 C-129.66 609 -130.32 609 -131 609 C-131 609.66 -131 610.32 -131 611 C-132.3125 612.625 -132.3125 612.625 -134 614 C-134.99 614 -135.98 614 -137 614 C-137 614.99 -137 615.98 -137 617 C-137.66 617 -138.32 617 -139 617 C-139 617.66 -139 618.32 -139 619 C-139.99 619 -140.98 619 -142 619 C-142.33 619.99 -142.66 620.98 -143 622 C-143.99 622 -144.98 622 -146 622 C-146 622.99 -146 623.98 -146 625 C-146.66 625 -147.32 625 -148 625 C-148 625.66 -148 626.32 -148 627 C-148.66 627 -149.32 627 -150 627 C-150 627.99 -150 628.98 -150 630 C-151.32 630 -152.64 630 -154 630 C-154.268125 630.763125 -154.53625 631.52625 -154.8125 632.3125 C-155.9666095 634.92443202 -156.71287883 636.32864222 -159 638 C-160.32 638 -161.64 638 -163 638 C-163 638.66 -163 639.32 -163 640 C-163.66 640 -164.32 640 -165 640 C-165 640.99 -165 641.98 -165 643 C-166.32 643 -167.64 643 -169 643 C-169 643.99 -169 644.98 -169 646 C-169.66 646 -170.32 646 -171 646 C-171 646.66 -171 647.32 -171 648 C-172.32 648 -173.64 648 -175 648 C-175 648.99 -175 649.98 -175 651 C-175.66 651 -176.32 651 -177 651 C-177.33 651.99 -177.66 652.98 -178 654 C-178.66 654 -179.32 654 -180 654 C-180 654.66 -180 655.32 -180 656 C-181.32 656 -182.64 656 -184 656 C-184 656.99 -184 657.98 -184 659 C-184.66 659 -185.32 659 -186 659 C-186 659.66 -186 660.32 -186 661 C-187.32 661.33 -188.64 661.66 -190 662 C-190 662.66 -190 663.32 -190 664 C-190.66 664 -191.32 664 -192 664 C-192.33 664.99 -192.66 665.98 -193 667 C-193.99 667 -194.98 667 -196 667 C-196 667.66 -196 668.32 -196 669 C-196.66 669 -197.32 669 -198 669 C-198.33 669.99 -198.66 670.98 -199 672 C-200.32 672 -201.64 672 -203 672 C-203 672.99 -203 673.98 -203 675 C-203.66 675 -204.32 675 -205 675 C-205 675.66 -205 676.32 -205 677 C-208.46153846 680 -208.46153846 680 -211 680 C-211 680.99 -211 681.98 -211 683 C-214 685 -214 685 -217 685 C-217.33 685.99 -217.66 686.98 -218 688 C-218.99 688.33 -219.98 688.66 -221 689 C-221.33 689.66 -221.66 690.32 -222 691 C-222.66 691 -223.32 691 -224 691 C-224 691.66 -224 692.32 -224 693 C-225.32 693 -226.64 693 -228 693 C-228 693.99 -228 694.98 -228 696 C-228.66 696 -229.32 696 -230 696 C-230 696.66 -230 697.32 -230 698 C-230.99 698 -231.98 698 -233 698 C-233.33 698.99 -233.66 699.98 -234 701 C-234.66 701 -235.32 701 -236 701 C-236.33 701.99 -236.66 702.98 -237 704 C-237.66 704 -238.32 704 -239 704 C-239 704.66 -239 705.32 -239 706 C-240.32 706 -241.64 706 -243 706 C-243 706.99 -243 707.98 -243 709 C-243.99 709 -244.98 709 -246 709 C-246.33 709.99 -246.66 710.98 -247 712 C-247.66 712 -248.32 712 -249 712 C-249 712.66 -249 713.32 -249 714 C-252.46153846 717 -252.46153846 717 -255 717 C-255.33 717.99 -255.66 718.98 -256 720 C-256.66 720 -257.32 720 -258 720 C-258 720.66 -258 721.32 -258 722 C-258.66 722 -259.32 722 -260 722 C-260 722.66 -260 723.32 -260 724 C-261.32 724.33 -262.64 724.66 -264 725 C-264 725.66 -264 726.32 -264 727 C-264.66 727 -265.32 727 -266 727 C-266 727.99 -266 728.98 -266 730 C-266.99 730 -267.98 730 -269 730 C-269.33 730.99 -269.66 731.98 -270 733 C-270.66 733 -271.32 733 -272 733 C-272 733.66 -272 734.32 -272 735 C-272.66 735 -273.32 735 -274 735 C-274.33 735.99 -274.66 736.98 -275 738 C-275.66 738 -276.32 738 -277 738 C-277 738.66 -277 739.32 -277 740 C-278.32 740.33 -279.64 740.66 -281 741 C-281 741.66 -281 742.32 -281 743 C-281.66 743 -282.32 743 -283 743 C-283 743.99 -283 744.98 -283 746 C-283.66 746 -284.32 746 -285 746 C-285 746.66 -285 747.32 -285 748 C-285.66 748 -286.32 748 -287 748 C-287.33 748.99 -287.66 749.98 -288 751 C-288.99 751 -289.98 751 -291 751 C-291 751.99 -291 752.98 -291 754 C-291.66 754 -292.32 754 -293 754 C-293 754.66 -293 755.32 -293 756 C-293.66 756 -294.32 756 -295 756 C-295.33 756.99 -295.66 757.98 -296 759 C-296.66 759 -297.32 759 -298 759 C-298 759.99 -298 760.98 -298 762 C-298.66 762 -299.32 762 -300 762 C-300 762.66 -300 763.32 -300 764 C-300.66 764 -301.32 764 -302 764 C-302 764.99 -302 765.98 -302 767 C-302.66 767 -303.32 767 -304 767 C-304 767.66 -304 768.32 -304 769 C-305.32 769.33 -306.64 769.66 -308 770 C-308 770.66 -308 771.32 -308 772 C-308.66 772 -309.32 772 -310 772 C-310 772.99 -310 773.98 -310 775 C-310.66 775 -311.32 775 -312 775 C-312.33 775.99 -312.66 776.98 -313 778 C-313.66 778 -314.32 778 -315 778 C-315 778.66 -315 779.32 -315 780 C-316.32 780 -317.64 780 -319 780 C-319 780.99 -319 781.98 -319 783 C-319.66 783 -320.32 783 -321 783 C-321 783.66 -321 784.32 -321 785 C-322.32 785 -323.64 785 -325 785 C-325 785.99 -325 786.98 -325 788 C-326.32 788 -327.64 788 -329 788 C-329 788.99 -329 789.98 -329 791 C-330.65 791 -332.3 791 -334 791 C-334 791.66 -334 792.32 -334 793 C-350.8929385 793.55353075 -350.8929385 793.55353075 -358 790 C-358 789.34 -358 788.68 -358 788 C-359.65 788 -361.3 788 -363 788 C-363 787.01 -363 786.02 -363 785 C-364.98 784.34 -366.96 783.68 -369 783 C-369 782.01 -369 781.02 -369 780 C-369.556875 779.9175 -370.11375 779.835 -370.6875 779.75 C-373.76188846 778.75290104 -375.66242952 777.20770546 -378 775 C-378 774.01 -378 773.02 -378 772 C-378.66 772 -379.32 772 -380 772 C-380 771.34 -380 770.68 -380 770 C-380.66 770 -381.32 770 -382 770 C-382.33 769.34 -382.66 768.68 -383 768 C-383.99 767.67 -384.98 767.34 -386 767 C-386 766.01 -386 765.02 -386 764 C-386.66 764 -387.32 764 -388 764 C-388 763.34 -388 762.68 -388 762 C-388.66 762 -389.32 762 -390 762 C-390 761.01 -390 760.02 -390 759 C-390.66 759 -391.32 759 -392 759 C-392 758.01 -392 757.02 -392 756 C-392.99 756 -393.98 756 -395 756 C-395 755.34 -395 754.68 -395 754 C-395.5775 753.7525 -396.155 753.505 -396.75 753.25 C-399.32939979 751.81700012 -401.06121592 750.21575324 -403 748 C-403 747.34 -403 746.68 -403 746 C-403.66 746 -404.32 746 -405 746 C-405 745.01 -405 744.02 -405 743 C-405.66 743 -406.32 743 -407 743 C-407 742.34 -407 741.68 -407 741 C-408.32 740.67 -409.64 740.34 -411 740 C-411 739.34 -411 738.68 -411 738 C-411.99 737.67 -412.98 737.34 -414 737 C-414 736.34 -414 735.68 -414 735 C-414.66 735 -415.32 735 -416 735 C-416 734.34 -416 733.68 -416 733 C-417.32 732.67 -418.64 732.34 -420 732 C-420 731.34 -420 730.68 -420 730 C-420.66 730 -421.32 730 -422 730 C-422 729.01 -422 728.02 -422 727 C-423.98 726.34 -425.96 725.68 -428 725 C-428 724.01 -428 723.02 -428 722 C-428.66 722 -429.32 722 -430 722 C-430 721.34 -430 720.68 -430 720 C-431.32 719.67 -432.64 719.34 -434 719 C-434 718.34 -434 717.68 -434 717 C-434.99 717 -435.98 717 -437 717 C-437 716.01 -437 715.02 -437 714 C-437.66 714 -438.32 714 -439 714 C-439 713.34 -439 712.68 -439 712 C-439.66 712 -440.32 712 -441 712 C-441.33 711.34 -441.66 710.68 -442 710 C-442.99 709.67 -443.98 709.34 -445 709 C-445 708.01 -445 707.02 -445 706 C-445.66 706 -446.32 706 -447 706 C-447 705.34 -447 704.68 -447 704 C-448.32 704 -449.64 704 -451 704 C-451 703.01 -451 702.02 -451 701 C-451.99 701 -452.98 701 -454 701 C-454 700.01 -454 699.02 -454 698 C-455.32 698 -456.64 698 -458 698 C-458 697.34 -458 696.68 -458 696 C-458.61875 695.690625 -459.2375 695.38125 -459.875 695.0625 C-461.25 694.375 -462.625 693.6875 -464 693 C-464 692.34 -464 691.68 -464 691 C-464.66 691 -465.32 691 -466 691 C-466 690.01 -466 689.02 -466 688 C-467.32 688 -468.64 688 -470 688 C-470 687.01 -470 686.02 -470 685 C-470.78375 684.855625 -471.5675 684.71125 -472.375 684.5625 C-475 684 -475 684 -477 683 C-477 682.01 -477 681.02 -477 680 C-478.32 680 -479.64 680 -481 680 C-481 679.01 -481 678.02 -481 677 C-481.66 677 -482.32 677 -483 677 C-483 676.34 -483 675.68 -483 675 C-484.32 675 -485.64 675 -487 675 C-487 674.01 -487 673.02 -487 672 C-487.66 672 -488.32 672 -489 672 C-489 671.01 -489 670.02 -489 669 C-490.32 669 -491.64 669 -493 669 C-493 668.34 -493 667.68 -493 667 C-493.99 666.67 -494.98 666.34 -496 666 C-496 665.34 -496 664.68 -496 664 C-496.66 664 -497.32 664 -498 664 C-498 663.34 -498 662.68 -498 662 C-499.32 661.67 -500.64 661.34 -502 661 C-502 660.34 -502 659.68 -502 659 C-502.66 659 -503.32 659 -504 659 C-504 658.01 -504 657.02 -504 656 C-505.32 656 -506.64 656 -508 656 C-508 655.34 -508 654.68 -508 654 C-508.99 653.67 -509.98 653.34 -511 653 C-511 652.34 -511 651.68 -511 651 C-512.32 650.67 -513.64 650.34 -515 650 C-515 649.34 -515 648.68 -515 648 C-515.66 648 -516.32 648 -517 648 C-517 647.34 -517 646.68 -517 646 C-517.66 646 -518.32 646 -519 646 C-519 645.01 -519 644.02 -519 643 C-520.32 643 -521.64 643 -523 643 C-523 642.01 -523 641.02 -523 640 C-523.66 640 -524.32 640 -525 640 C-525 639.34 -525 638.68 -525 638 C-526.32 638 -527.64 638 -529 638 C-529 637.01 -529 636.02 -529 635 C-529.99 635 -530.98 635 -532 635 C-533.6875 633.625 -533.6875 633.625 -535 632 C-535 631.34 -535 630.68 -535 630 C-535.99 630 -536.98 630 -538 630 C-538 629.01 -538 628.02 -538 627 C-538.66 627 -539.32 627 -540 627 C-540 626.34 -540 625.68 -540 625 C-541.32 624.67 -542.64 624.34 -544 624 C-544 623.34 -544 622.68 -544 622 C-544.66 622 -545.32 622 -546 622 C-546 621.01 -546 620.02 -546 619 C-546.8353125 618.87625 -546.8353125 618.87625 -547.6875 618.75 C-550.76188846 617.75290104 -552.66242952 616.20770546 -555 614 C-555 613.01 -555 612.02 -555 611 C-555.66 611 -556.32 611 -557 611 C-557 610.34 -557 609.68 -557 609 C-557.61875 608.690625 -558.2375 608.38125 -558.875 608.0625 C-560.25 607.375 -561.625 606.6875 -563 606 C-563 605.01 -563 604.02 -563 603 C-563.66 603 -564.32 603 -565 603 C-565 602.34 -565 601.68 -565 601 C-565.99 600.67 -566.98 600.34 -568 600 C-568 599.34 -568 598.68 -568 598 C-568.66 598 -569.32 598 -570 598 C-570 597.34 -570 596.68 -570 596 C-570.99 595.67 -571.98 595.34 -573 595 C-573 594.34 -573 593.68 -573 593 C-573.99 593 -574.98 593 -576 593 C-576 592.01 -576 591.02 -576 590 C-576.66 590 -577.32 590 -578 590 C-578 589.34 -578 588.68 -578 588 C-578.66 588 -579.32 588 -580 588 C-580 587.01 -580 586.02 -580 585 C-581.32 584.67 -582.64 584.34 -584 584 C-584 583.34 -584 582.68 -584 582 C-584.66 582 -585.32 582 -586 582 C-586 581.34 -586 580.68 -586 580 C-586.99 579.67 -587.98 579.34 -589 579 C-589 578.34 -589 577.68 -589 577 C-589.66 577 -590.32 577 -591 577 C-591.66 575.35 -592.32 573.7 -593 572 C-593.66 572 -594.32 572 -595 572 C-595.33 571.34 -595.66 570.68 -596 570 C-596.99 569.67 -597.98 569.34 -599 569 C-600.1875 566.4375 -600.1875 566.4375 -601 564 C-601.66 564 -602.32 564 -603 564 C-603 563.01 -603 562.02 -603 561 C-603.66 561 -604.32 561 -605 561 C-605 560.34 -605 559.68 -605 559 C-605.99 558.67 -606.98 558.34 -608 558 C-608 557.34 -608 556.68 -608 556 C-608.99 555.67 -609.98 555.34 -611 555 C-611 554.34 -611 553.68 -611 553 C-611.99 553 -612.98 553 -614 553 C-614 552.34 -614 551.68 -614 551 C-614.66 551 -615.32 551 -616 551 C-616 550.01 -616 549.02 -616 548 C-616.66 548 -617.32 548 -618 548 C-618 547.01 -618 546.02 -618 545 C-618.66 545 -619.32 545 -620 545 C-620 544.34 -620 543.68 -620 543 C-620.66 543 -621.32 543 -622 543 C-622 542.01 -622 541.02 -622 540 C-622.66 540 -623.32 540 -624 540 C-624 539.34 -624 538.68 -624 538 C-624.99 537.67 -625.98 537.34 -627 537 C-627 536.34 -627 535.68 -627 535 C-627.66 535 -628.32 535 -629 535 C-629 534.01 -629 533.02 -629 532 C-629.66 532 -630.32 532 -631 532 C-631 531.34 -631 530.68 -631 530 C-631.66 530 -632.32 530 -633 530 C-633 529.01 -633 528.02 -633 527 C-633.66 527 -634.32 527 -635 527 C-635 526.01 -635 525.02 -635 524 C-635.66 524 -636.32 524 -637 524 C-637 523.34 -637 522.68 -637 522 C-637.66 522 -638.32 522 -639 522 C-639 521.01 -639 520.02 -639 519 C-639.66 519 -640.32 519 -641 519 C-641.66 517.35 -642.32 515.7 -643 514 C-643.99 514 -644.98 514 -646 514 C-648.2265625 511.69921875 -648.2265625 511.69921875 -650.625 508.6875 C-651.42164063 507.70136719 -652.21828125 506.71523438 -653.0390625 505.69921875 C-655 503 -655 503 -656 500 C-656.66 500 -657.32 500 -658 500 C-662 494.58823529 -662 494.58823529 -662 492 C-662.66 492 -663.32 492 -664 492 C-664 491.34 -664 490.68 -664 490 C-664.66 490 -665.32 490 -666 490 C-669.875 483.375 -669.875 483.375 -671 480 C-671.66 480 -672.32 480 -673 480 C-674.40234375 478.390625 -674.40234375 478.390625 -675.9375 476.25 C-676.69353516 475.20585938 -676.69353516 475.20585938 -677.46484375 474.140625 C-678.22474609 473.08101563 -678.22474609 473.08101563 -679 472 C-679.55816406 471.29359375 -680.11632812 470.5871875 -680.69140625 469.859375 C-682 468 -682 468 -682 466 C-682.66 466 -683.32 466 -684 466 C-684 465.34 -684 464.68 -684 464 C-684.66 464 -685.32 464 -686 464 C-686 463.01 -686 462.02 -686 461 C-686.66 461 -687.32 461 -688 461 C-688 460.01 -688 459.02 -688 458 C-688.66 458 -689.32 458 -690 458 C-690 457.34 -690 456.68 -690 456 C-690.66 456 -691.32 456 -692 456 C-692 455.01 -692 454.02 -692 453 C-692.66 453 -693.32 453 -694 453 C-694.66 451.35 -695.32 449.7 -696 448 C-696.66 448 -697.32 448 -698 448 C-699.25664978 445.09399739 -700 443.20395416 -700 440 C-700.99 439.67 -701.98 439.34 -703 439 C-703 438.34 -703 437.68 -703 437 C-703.66 437 -704.32 437 -705 437 C-707.125 432.375 -707.125 432.375 -706 429 C-705.67950684 429.47606689 -705.35901367 429.95213379 -705.02880859 430.44262695 C-693.47654823 447.56261097 -681.42357063 464.19738633 -668.41601562 480.24121094 C-666.1012548 483.11630352 -663.83388963 486.02811651 -661.5625 488.9375 C-655.95789419 496.09877108 -650.22527947 503.15359566 -644.47216797 510.19580078 C-643.17728489 511.78273046 -641.88709522 513.37348737 -640.59765625 514.96484375 C-632.33729588 525.13718627 -623.80979374 535.07744554 -615.00390625 544.78125 C-613.18688018 546.79308393 -611.40055608 548.82660434 -609.625 550.875 C-605.42479468 555.69459044 -601.09181666 560.39238481 -596.75317383 565.0871582 C-595.44203981 566.51770201 -594.14149859 567.95796728 -592.84643555 569.40307617 C-584.78674611 578.33270034 -576.31691978 586.83533533 -567.80151367 595.32885742 C-565.30336032 597.82161995 -562.81063802 600.31972475 -560.31835938 602.81835938 C-558.70865409 604.42740428 -557.09863885 606.03613918 -555.48828125 607.64453125 C-554.7547493 608.38008743 -554.02121735 609.11564362 -553.26545715 609.87348938 C-549.23834925 613.88258276 -545.12444818 617.72801 -540.81054688 621.42756653 C-537.67973351 624.14663213 -534.69655013 627.02284634 -531.6875 629.875 C-526.53655961 634.72437206 -521.27361805 639.3112663 -515.7421875 643.7265625 C-512.549564 646.37343839 -509.52580916 649.16587706 -506.5 652 C-501.76757821 656.42672411 -496.91342312 660.61110801 -491.859375 664.671875 C-488.62410989 667.3060526 -485.46777054 670.02110545 -482.3125 672.75 C-477.21395537 677.14873054 -472.04509438 681.44914191 -466.8125 685.6875 C-466.13517822 686.23615723 -465.45785645 686.78481445 -464.76000977 687.35009766 C-461.83313961 689.71738244 -458.90175688 692.07877151 -455.96484375 694.43359375 C-450.01872481 699.23326673 -444.35691276 704.26325459 -438.7578125 709.45703125 C-436.59659452 711.44988239 -434.41653031 713.39707785 -432.1875 715.3125 C-420.67270301 725.36473205 -409.81437925 736.08257428 -399 746.875 C-398.40996185 747.46244995 -397.81992371 748.0498999 -397.21200562 748.65515137 C-390.91879695 754.92659785 -384.74369576 761.2136986 -379 768 C-373.97732394 773.66897629 -368.57923857 778.22445068 -362.3125 782.4375 C-361.68279297 782.86272949 -361.05308594 783.28795898 -360.40429688 783.72607422 C-353.19152247 788.42501814 -346.58702053 789.9582083 -338 789 C-323.43361704 784.79252558 -310.26715796 768.26347251 -300.72314453 757.22094727 C-297.16779314 753.13993251 -293.4298477 749.28489052 -289.59765625 745.46484375 C-288.91626083 744.78249161 -288.23486542 744.10013947 -287.53282166 743.39710999 C-286.10294259 741.96655563 -284.67182089 740.53724233 -283.23950195 739.10913086 C-281.06802289 736.94300926 -278.90193675 734.77159826 -276.73632812 732.59960938 C-275.33625798 731.20020013 -273.93587762 729.80110116 -272.53515625 728.40234375 C-271.58008934 727.44424049 -271.58008934 727.44424049 -270.60572815 726.46678162 C-266.77480648 722.65541678 -262.82994005 719.0282352 -258.73724365 715.49913025 C-256.5159046 713.58225661 -254.35293869 711.60461295 -252.1875 709.625 C-247.87441296 705.73270194 -243.43268288 702.03788431 -238.91796875 698.3828125 C-235.74582593 695.79244152 -232.61956706 693.15317133 -229.5 690.5 C-224.65060094 686.37875818 -219.74838629 682.33008186 -214.8125 678.3125 C-211.1195036 675.27603629 -207.47676835 672.18239924 -203.8359375 669.08374023 C-200.43054787 666.19127733 -196.9827889 663.36189282 -193.5 660.5625 C-188.76149128 656.71246166 -184.30066982 652.62505846 -179.84912109 648.45263672 C-175.53493848 644.4316385 -171.02411584 640.71283906 -166.42578125 637.01953125 C-163.66465266 634.72081389 -161.16862153 632.26177027 -158.67578125 629.6796875 C-156.85655544 627.85622107 -154.95232089 626.17981721 -153 624.5 C-149.8038805 621.74642012 -146.82692509 618.85361586 -143.87510681 615.84242249 C-142.06841179 614.06721933 -140.20465085 612.41638166 -138.27954102 610.77124023 C-134.0209759 607.06675103 -130.01136712 603.1560313 -126.02734375 599.16015625 C-125.30059952 598.43436874 -124.57385529 597.70858124 -123.8250885 596.96080017 C-122.30037704 595.43676444 -120.7769085 593.91148431 -119.25463867 592.38500977 C-116.94366109 590.06867537 -114.62739229 587.75772922 -112.31054688 585.44726562 C-110.8199918 583.95604966 -109.329747 582.46452347 -107.83984375 580.97265625 C-107.15736069 580.29219742 -106.47487762 579.61173859 -105.77171326 578.91065979 C-101.86443731 574.98456171 -98.14374515 570.95035849 -94.52412415 566.75770569 C-92.78054045 564.7469069 -90.97599247 562.80641878 -89.1328125 560.88671875 C-88.47941895 560.20174316 -87.82602539 559.51676758 -87.15283203 558.81103516 C-86.48364746 558.11026855 -85.81446289 557.40950195 -85.125 556.6875 C-79.85792149 551.13591003 -74.83140867 545.53116452 -70.0703125 539.5390625 C-67.8072758 536.76364014 -65.42607849 534.1338161 -63 531.5 C-58.10486353 526.17360731 -53.53935236 520.62976618 -49 515 C-47.60449481 513.31222863 -46.20865431 511.62473445 -44.8125 509.9375 C-39.5784688 503.54339556 -34.53231897 497.00499857 -29.47265625 490.47265625 C-26.95435145 487.22285368 -24.41686626 483.98949162 -21.86303711 480.76757812 C-0.12237447 453.3091253 19.72724557 425.05674815 36 394 C36.46792969 393.10941895 36.93585937 392.21883789 37.41796875 391.30126953 C49.57354123 368.00734511 59.16890684 343.71972199 68 319 C68.29745117 318.18160645 68.59490234 317.36321289 68.90136719 316.52001953 C94.51360273 245.81603757 104.44173072 145.9390566 72.15625 75.92578125 C56.32834578 42.79742451 33.60140299 16.63578383 0 1 C0 0.67 0 0.34 0 0 Z " fill="#F9FDFE" transform="translate(788,33)"/>
<path d="M0 0 C1.65 0 3.3 0 5 0 C5 0.66 5 1.32 5 2 C6.32 2.33 7.64 2.66 9 3 C9 3.66 9 4.32 9 5 C9.66 5 10.32 5 11 5 C11 5.99 11 6.98 11 8 C12.32 8 13.64 8 15 8 C15 8.66 15 9.32 15 10 C16.32 10.33 17.64 10.66 19 11 C19 11.66 19 12.32 19 13 C19.639375 13.268125 20.27875 13.53625 20.9375 13.8125 C23 15 23 15 24 18 C26.01508358 18.73323796 26.01508358 18.73323796 28 19 C28 19.66 28 20.32 28 21 C28.66 21 29.32 21 30 21 C30 21.66 30 22.32 30 23 C30.99 23.33 31.98 23.66 33 24 C33 24.66 33 25.32 33 26 C33.99 26 34.98 26 36 26 C36 26.99 36 27.98 36 29 C36.66 29 37.32 29 38 29 C38 29.66 38 30.32 38 31 C38.99 31.33 39.98 31.66 41 32 C41 32.66 41 33.32 41 34 C42.32 34.33 43.64 34.66 45 35 C45 35.66 45 36.32 45 37 C45.66 37 46.32 37 47 37 C47 37.66 47 38.32 47 39 C47.66 39 48.32 39 49 39 C49 39.99 49 40.98 49 42 C50.32 42.33 51.64 42.66 53 43 C53 43.66 53 44.32 53 45 C53.66 45 54.32 45 55 45 C55 45.66 55 46.32 55 47 C55.66 47 56.32 47 57 47 C57 47.99 57 48.98 57 50 C57.639375 50.268125 58.27875 50.53625 58.9375 50.8125 C61 52 61 52 62 55 C62.66 55 63.32 55 64 55 C64 55.99 64 56.98 64 58 C64.66 58 65.32 58 66 58 C66 58.66 66 59.32 66 60 C66.66 60 67.32 60 68 60 C68 60.99 68 61.98 68 63 C69.98 63.495 69.98 63.495 72 64 C72 64.66 72 65.32 72 66 C72.66 66 73.32 66 74 66 C74 66.99 74 67.98 74 69 C74.66 69 75.32 69 76 69 C76 69.66 76 70.32 76 71 C76.66 71 77.32 71 78 71 C78 71.99 78 72.98 78 74 C78.66 74 79.32 74 80 74 C83 78.38461538 83 78.38461538 83 81 C83.66 81 84.32 81 85 81 C85 81.99 85 82.98 85 84 C85.66 84 86.32 84 87 84 C87 84.99 87 85.98 87 87 C87.66 87 88.32 87 89 87 C89 87.66 89 88.32 89 89 C89.66 89 90.32 89 91 89 C91 89.99 91 90.98 91 92 C91.66 92 92.32 92 93 92 C93 92.99 93 93.98 93 95 C93.66 95 94.32 95 95 95 C95 95.66 95 96.32 95 97 C95.66 97 96.32 97 97 97 C100 102.75 100 102.75 100 105 C100.66 105 101.32 105 102 105 C102 105.99 102 106.98 102 108 C102.66 108 103.32 108 104 108 C105.25664978 110.90600261 106 112.79604584 106 116 C106.66 116 107.32 116 108 116 C108 116.66 108 117.32 108 118 C108.66 118 109.32 118 110 118 C110 118.99 110 119.98 110 121 C110.66 121 111.32 121 112 121 C112 122.65 112 124.3 112 126 C112.66 126 113.32 126 114 126 C114 126.99 114 127.98 114 129 C114.66 129 115.32 129 116 129 C119.01704885 132.1999003 120.49890042 134.61537866 121 139 C121.66 139 122.32 139 123 139 C123 139.99 123 140.98 123 142 C123.66 142 124.32 142 125 142 C125 142.99 125 143.98 125 145 C126.32 145.33 127.64 145.66 129 146 C128.34 146.66 127.68 147.32 127 148 C126.01 148 125.02 148 124 148 C122.28152583 145.7443063 120.7956875 143.5318361 119.3125 141.125 C118.84118652 140.37976074 118.36987305 139.63452148 117.88427734 138.86669922 C114.25613767 133.10176952 110.7214648 127.27887293 107.16918945 121.46704102 C89.61985513 92.77567143 70.2848669 65.9870991 46.27734375 42.3125 C44.36753982 40.37321368 42.60350518 38.41106455 40.875 36.3125 C38.27522745 33.19999453 35.40122106 30.62073302 32.3125 28 C30.11405554 26.09864263 27.98810877 24.13325479 25.86767578 22.14575195 C20.37985828 17.01427458 14.69320117 12.26290758 8.72021484 7.70410156 C5.59465566 5.30955637 2.70813035 2.86079456 0 0 Z " fill="#F7FDFD" transform="translate(317,70)"/>
<path d="M0 0 C0.33 0 0.66 0 1 0 C0.99777939 0.95640884 0.99555878 1.91281769 0.99327087 2.89820862 C0.97287544 11.97339479 0.9579496 21.04857624 0.94818783 30.12378025 C0.94300029 34.78785226 0.93597896 39.45190555 0.92456055 44.1159668 C0.91358327 48.62880064 0.90769219 53.14161664 0.90512276 57.65446281 C0.90329495 59.36416847 0.8997267 61.07387331 0.89426994 62.78357124 C0.86227111 73.23852497 1.14410624 83.5766078 2 94 C1.34 94 0.68 94 0 94 C-0.93946252 91.18161244 -1.17450114 89.22181718 -1.28125 86.2890625 C-1.31863281 85.37382812 -1.35601562 84.45859375 -1.39453125 83.515625 C-1.42933594 82.56171875 -1.46414062 81.6078125 -1.5 80.625 C-1.56926384 78.74204958 -1.6420685 76.85922543 -1.71875 74.9765625 C-1.76418945 73.72480225 -1.76418945 73.72480225 -1.81054688 72.44775391 C-1.94236712 70.00639142 -1.94236712 70.00639142 -2.50927734 67.68920898 C-3.16012828 64.12248111 -3.14286634 60.60804717 -3.1328125 56.99609375 C-3.13376923 56.23579361 -3.13472595 55.47549347 -3.13571167 54.69215393 C-3.13638981 53.09107378 -3.13456112 51.48999083 -3.13037109 49.88891602 C-3.1250102 47.4421572 -3.13033228 44.99558132 -3.13671875 42.54882812 C-3.13605805 40.98958293 -3.13477705 39.43033785 -3.1328125 37.87109375 C-3.13483673 37.14184189 -3.13686096 36.41259003 -3.13894653 35.66123962 C-3.12330135 32.26491018 -2.90381018 29.26602165 -2 26 C-1.86684591 24.23038903 -1.77692814 22.45725333 -1.71875 20.68359375 C-1.68136719 19.67232422 -1.64398438 18.66105469 -1.60546875 17.61914062 C-1.5350269 15.49414491 -1.46471488 13.36914489 -1.39453125 11.24414062 C-1.35714844 10.23416016 -1.31976563 9.22417969 -1.28125 8.18359375 C-1.25095703 7.26118896 -1.22066406 6.33878418 -1.18945312 5.38842773 C-1 3 -1 3 0 0 Z " fill="#E0F9FA" transform="translate(8,175)"/>
<path d="M0 0 C2.24653821 2.8205543 3.87391684 5.58832491 5.3828125 8.859375 C5.82391357 9.80337158 6.26501465 10.74736816 6.71948242 11.7199707 C7.18330322 12.71988037 7.64712402 13.71979004 8.125 14.75 C11.90052116 22.7935016 15.85137313 30.64233694 20.35791016 38.30175781 C23 42.81679849 23 42.81679849 23 45 C22.34 45 21.68 45 21 45 C21 44.34 21 43.68 21 43 C20.34 43 19.68 43 19 43 C19 42.01 19 41.02 19 40 C18.34 40 17.68 40 17 40 C12.59225513 31.738041 12.59225513 31.738041 12 27 C11.34 27 10.68 27 10 27 C8.23537317 23.91190305 8 22.76687864 8 19 C7.34 19 6.68 19 6 19 C6 17.35 6 15.7 6 14 C5.34 14 4.68 14 4 14 C2.23537317 10.91190305 2 9.76687864 2 6 C1.34 6 0.68 6 0 6 C0 4.02 0 2.04 0 0 Z " fill="#F5FDFD" transform="translate(50,404)"/>
<path d="M0 0 C1.99737956 2.99606933 3.15954883 5.71669991 4.4609375 9.06640625 C4.93273438 10.27490234 5.40453125 11.48339844 5.890625 12.72851562 C6.3855451 14.00646069 6.88033603 15.28445578 7.375 16.5625 C7.86164055 17.81328284 8.34861654 19.06393522 8.8359375 20.31445312 C9.78177568 22.74201878 10.72678557 25.16990735 11.67089844 27.59814453 C13.42049216 32.07625601 15.20239229 36.54097382 17 41 C16.01 41 15.02 41 14 41 C12.23537317 37.91190305 12 36.76687864 12 33 C11.34 33 10.68 33 10 33 C10 31.35 10 29.7 10 28 C9.34 28 8.68 28 8 28 C8 26.35 8 24.7 8 23 C7.34 23 6.68 23 6 23 C6 21.02 6 19.04 6 17 C5.34 17 4.68 17 4 17 C4 15.35 4 13.7 4 12 C3.34 12 2.68 12 2 12 C2 10.35 2 8.7 2 7 C1.34 7 0.68 7 0 7 C0 4.69 0 2.38 0 0 Z " fill="#F0FCFC" transform="translate(31,358)"/>
<path d="M0 0 C1.32 0 2.64 0 4 0 C4 0.66 4 1.32 4 2 C5.0828125 2.185625 5.0828125 2.185625 6.1875 2.375 C8.95721894 2.9904931 11.3970354 3.88444374 14 5 C14 5.66 14 6.32 14 7 C15.65 7.33 17.3 7.66 19 8 C19 8.66 19 9.32 19 10 C20.32 10 21.64 10 23 10 C23 10.99 23 11.98 23 13 C23.53625 13.0825 24.0725 13.165 24.625 13.25 C27.89790163 14.28354788 30.29469379 15.90953611 33 18 C33 18.99 33 19.98 33 21 C30.3094301 19.70334428 27.80450029 18.28921226 25.3125 16.64453125 C24.61890381 16.18997559 23.92530762 15.73541992 23.21069336 15.26708984 C22.48116455 14.7870752 21.75163574 14.30706055 21 13.8125 C14.78050874 9.74372393 8.51044635 5.87968668 2.02734375 2.2421875 C1.35832031 1.83226562 0.68929688 1.42234375 0 1 C0 0.67 0 0.34 0 0 Z " fill="#F5FDFD" transform="translate(284,49)"/>
<path d="M0 0 C0.99 0 1.98 0 3 0 C1.49401013 3.52198428 -0.55215826 5.80985409 -3.24609375 8.51171875 C-4.50196289 9.77145508 -4.50196289 9.77145508 -5.78320312 11.05664062 C-6.65912109 11.92482422 -7.53503906 12.79300781 -8.4375 13.6875 C-9.30955078 14.56728516 -10.18160156 15.44707031 -11.08007812 16.35351562 C-11.91861328 17.18947266 -12.75714844 18.02542969 -13.62109375 18.88671875 C-14.3886499 19.65201904 -15.15620605 20.41731934 -15.94702148 21.20581055 C-18 23 -18 23 -21 24 C-21 23.01 -21 22.02 -21 21 C-20.34 21 -19.68 21 -19 21 C-19 20.34 -19 19.68 -19 19 C-17.68 18.67 -16.36 18.34 -15 18 C-15 17.34 -15 16.68 -15 16 C-14.34 16 -13.68 16 -13 16 C-13 15.01 -13 14.02 -13 13 C-12.34 13 -11.68 13 -11 13 C-11 12.34 -11 11.68 -11 11 C-10.34 11 -9.68 11 -9 11 C-8.67 10.01 -8.34 9.02 -8 8 C-7.34 8 -6.68 8 -6 8 C-6 7.34 -6 6.68 -6 6 C-4.68 5.67 -3.36 5.34 -2 5 C-2 4.34 -2 3.68 -2 3 C-1.34 3 -0.68 3 0 3 C0 2.01 0 1.02 0 0 Z " fill="#A4EEF1" transform="translate(535,96)"/>
<path d="M0 0 C2.29141286 -0.05384521 4.58318188 -0.09272087 6.875 -0.125 C8.78925781 -0.15980469 8.78925781 -0.15980469 10.7421875 -0.1953125 C14 0 14 0 16 2 C18.13065054 2.35216206 18.13065054 2.35216206 20.5625 2.4375 C25.72235918 2.84307845 30.18653578 4.1513507 35 6 C35 6.66 35 7.32 35 8 C30.34561319 7.37648292 25.78049318 6.58379345 21.19140625 5.58984375 C19.95068359 5.32236328 18.70996094 5.05488281 17.43164062 4.77929688 C16.15482422 4.50150391 14.87800781 4.22371094 13.5625 3.9375 C12.24549087 3.65277193 10.92843396 3.36826476 9.61132812 3.08398438 C6.40707626 2.39149038 3.20332593 1.69676235 0 1 C0 0.67 0 0.34 0 0 Z " fill="#F2FCFD" transform="translate(202,22)"/>
<path d="M0 0 C3.3 0 6.6 0 10 0 C10.33 0.99 10.66 1.98 11 3 C13.64 3 16.28 3 19 3 C19 3.66 19 4.32 19 5 C21.97 5.495 21.97 5.495 25 6 C25 6.66 25 7.32 25 8 C26.65 8 28.3 8 30 8 C30 8.99 30 9.98 30 11 C23.47132563 8.90149752 17.06597589 6.54881097 10.67382812 4.06982422 C7.13900429 2.71883179 3.74191312 1.59464511 0 1 C0 0.67 0 0.34 0 0 Z " fill="#F2FCFD" transform="translate(758,22)"/>
<path d="M0 0 C1.16499023 -0.0309375 1.16499023 -0.0309375 2.35351562 -0.0625 C4.62109375 -0.078125 4.62109375 -0.078125 8.5625 0.25 C9.5525 1.24 10.5425 2.23 11.5625 3.25 C4.3025 3.25 -2.9575 3.25 -10.4375 3.25 C-10.4375 2.59 -10.4375 1.93 -10.4375 1.25 C-7.16728041 -0.38510979 -3.59016249 0.02371701 0 0 Z " fill="#E6FAFB" transform="translate(723.4375,16.75)"/>
<path d="M0 0 C0.68964844 -0.00386719 1.37929687 -0.00773437 2.08984375 -0.01171875 C7.24666707 -0.00166646 7.24666707 -0.00166646 9.5 1.125 C9.5 1.785 9.5 2.445 9.5 3.125 C3.23 3.125 -3.04 3.125 -9.5 3.125 C-9.5 2.465 -9.5 1.805 -9.5 1.125 C-6.46570323 -0.39214839 -3.32398333 -0.01863916 0 0 Z " fill="#E8FAFB" transform="translate(165.5,16.875)"/>
<path d="M0 0 C2.20797361 2.20797361 2.59757579 3.41458345 3.47265625 6.359375 C3.73240234 7.22820312 3.99214844 8.09703125 4.25976562 8.9921875 C4.52466797 9.90226562 4.78957031 10.81234375 5.0625 11.75 C5.33126953 12.64460938 5.60003906 13.53921875 5.87695312 14.4609375 C7.20583157 18.95460128 8.37547982 23.34308408 9 28 C8.34 28 7.68 28 7 28 C4.96006486 23.07015675 3.59347032 19.42039575 4 14 C3.34 14 2.68 14 2 14 C1.855625 12.865625 1.71125 11.73125 1.5625 10.5625 C1.38828522 7.19222799 1.38828522 7.19222799 0 6 C-0.04080783 4.00041636 -0.04254356 1.99954746 0 0 Z " fill="#E9FBFB" transform="translate(20,324)"/>
<path d="M0 0 C2.64 0 5.28 0 8 0 C8 0.66 8 1.32 8 2 C9.98 2 11.96 2 14 2 C14 2.99 14 3.98 14 5 C16.31 5 18.62 5 21 5 C21 5.99 21 6.98 21 8 C16.31196344 7.26951699 12.09114445 5.63363115 7.6875 3.9375 C6.94693359 3.65583984 6.20636719 3.37417969 5.44335938 3.08398438 C3.62757345 2.39281425 1.81360101 1.69688311 0 1 C0 0.67 0 0.34 0 0 Z " fill="#EEFBFC" transform="translate(246,33)"/>
<path d="M0 0 C1.98 0 3.96 0 6 0 C6 0.66 6 1.32 6 2 C7.65 2 9.3 2 11 2 C11.33 2.99 11.66 3.98 12 5 C13.65 5 15.3 5 17 5 C17 5.99 17 6.98 17 8 C11.00067626 6.1668733 5.55079437 3.92678249 0 1 C0 0.67 0 0.34 0 0 Z " fill="#F3FCFD" transform="translate(267,41)"/>
<path d="M0 0 C2.31242092 2.16323247 4.0156396 4.37647804 5.6875 7.0625 C6.12449219 7.75472656 6.56148438 8.44695312 7.01171875 9.16015625 C8 11 8 11 8 13 C7.34 13 6.68 13 6 13 C6 12.34 6 11.68 6 11 C5.34 11 4.68 11 4 11 C4 10.01 4 9.02 4 8 C3.34 8 2.68 8 2 8 C2 7.01 2 6.02 2 5 C1.34 5 0.68 5 0 5 C0 3.35 0 1.7 0 0 Z " fill="#F3FCFD" transform="translate(73,449)"/>
<path d="M0 0 C0.66 0.33 1.32 0.66 2 1 C-1.3 4.3 -4.6 7.6 -8 11 C-8.33 10.01 -8.66 9.02 -9 8 C-8.34 8 -7.68 8 -7 8 C-7 7.34 -7 6.68 -7 6 C-6.34 6 -5.68 6 -5 6 C-4.67 5.01 -4.34 4.02 -4 3 C-3.34 3 -2.68 3 -2 3 C-2 2.34 -2 1.68 -2 1 C-1.34 0.67 -0.68 0.34 0 0 Z " fill="#DFF9FA" transform="translate(531,101)"/>
<path d="M0 0 C2.64 0 5.28 0 8 0 C8.33 0.99 8.66 1.98 9 3 C4.545 2.01 4.545 2.01 0 1 C0 0.67 0 0.34 0 0 Z " fill="#F2FCFD" transform="translate(237,30)"/>
</svg>
