<?xml version="1.0" encoding="UTF-8"?>
<svg version="1.1" xmlns="http://www.w3.org/2000/svg" width="900" height="830">
<path d="M0 0 C3.12498063 -0.02895976 6.2499269 -0.04678483 9.375 -0.0625 C10.70917969 -0.07506836 10.70917969 -0.07506836 12.0703125 -0.08789062 C12.92109375 -0.09111328 13.771875 -0.09433594 14.6484375 -0.09765625 C15.43395996 -0.10289307 16.21948242 -0.10812988 17.02880859 -0.11352539 C19 0 19 0 21 1 C21 1.66 21 2.32 21 3 C21.60062256 2.99476318 22.20124512 2.98952637 22.82006836 2.98413086 C25.52586838 2.96341986 28.23165177 2.95035875 30.9375 2.9375 C32.35579102 2.92493164 32.35579102 2.92493164 33.80273438 2.91210938 C35.15141602 2.90727539 35.15141602 2.90727539 36.52734375 2.90234375 C37.77632446 2.89448853 37.77632446 2.89448853 39.05053711 2.88647461 C41 3 41 3 42 4 C45.18089225 4.23659529 48.35409437 4.39625615 51.54101562 4.51757812 C56.78671875 4.78671875 56.78671875 4.78671875 59 7 C61.66242821 7.46290221 61.66242821 7.46290221 64.625 7.625 C66.12933594 7.73714844 66.12933594 7.73714844 67.6640625 7.8515625 C68.43492187 7.90054687 69.20578125 7.94953125 70 8 C70 8.66 70 9.32 70 10 C71.093125 9.979375 72.18625 9.95875 73.3125 9.9375 C77 10 77 10 80 11 C80 11.66 80 12.32 80 13 C82.31 13 84.62 13 87 13 C87.33 13.99 87.66 14.98 88 16 C89.175625 15.95875 90.35125 15.9175 91.5625 15.875 C95.72409674 15.86016365 99.06487667 16.68829222 103 18 C103 18.99 103 19.98 103 21 C105.31 21 107.62 21 110 21 C110 21.99 110 22.98 110 24 C111.98 24 113.96 24 116 24 C116 24.66 116 25.32 116 26 C117.65 26 119.3 26 121 26 C121.33 26.99 121.66 27.98 122 29 C123.65 29 125.3 29 127 29 C127 29.99 127 30.98 127 32 C128.32 32 129.64 32 131 32 C131 32.66 131 33.32 131 34 C131.721875 34.12375 132.44375 34.2475 133.1875 34.375 C135.95721894 34.9904931 138.3970354 35.88444374 141 37 C141 37.66 141 38.32 141 39 C143.97 39.99 146.94 40.98 150 42 C150 42.99 150 43.98 150 45 C151.32 45 152.64 45 154 45 C154 45.66 154 46.32 154 47 C154.61875 47.309375 155.2375 47.61875 155.875 47.9375 C157.25 48.625 158.625 49.3125 160 50 C160 50.99 160 51.98 160 53 C161.65 53 163.3 53 165 53 C165 53.66 165 54.32 165 55 C166.32 55.33 167.64 55.66 169 56 C169 56.66 169 57.32 169 58 C169.66 58 170.32 58 171 58 C171 58.99 171 59.98 171 61 C172.32 61 173.64 61 175 61 C175 61.66 175 62.32 175 63 C176.32 63.33 177.64 63.66 179 64 C179 64.66 179 65.32 179 66 C179.639375 66.268125 180.27875 66.53625 180.9375 66.8125 C183 68 183 68 184 71 C186.01508358 71.73323796 186.01508358 71.73323796 188 72 C188 72.66 188 73.32 188 74 C188.66 74 189.32 74 190 74 C190 74.66 190 75.32 190 76 C190.66 76 191.32 76 192 76 C192.33 76.66 192.66 77.32 193 78 C193.99 78.33 194.98 78.66 196 79 C196 79.99 196 80.98 196 82 C196.66 82 197.32 82 198 82 C198 82.66 198 83.32 198 84 C198.99 84.33 199.98 84.66 201 85 C201 85.66 201 86.32 201 87 C202.32 87.33 203.64 87.66 205 88 C205 88.66 205 89.32 205 90 C205.66 90 206.32 90 207 90 C207 90.66 207 91.32 207 92 C207.66 92 208.32 92 209 92 C209 92.99 209 93.98 209 95 C210.32 95.33 211.64 95.66 213 96 C213 96.66 213 97.32 213 98 C213.66 98 214.32 98 215 98 C215 98.66 215 99.32 215 100 C215.66 100 216.32 100 217 100 C217 100.99 217 101.98 217 103 C217.639375 103.268125 218.27875 103.53625 218.9375 103.8125 C221 105 221 105 222 108 C222.66 108 223.32 108 224 108 C224 108.99 224 109.98 224 111 C224.66 111 225.32 111 226 111 C226 111.66 226 112.32 226 113 C226.66 113 227.32 113 228 113 C228 113.99 228 114.98 228 116 C229.32 116.33 230.64 116.66 232 117 C232 117.66 232 118.32 232 119 C232.66 119 233.32 119 234 119 C234.66 120.65 235.32 122.3 236 124 C236.66 124 237.32 124 238 124 C238 124.99 238 125.98 238 127 C238.66 127 239.32 127 240 127 C242.29648649 129.5614657 243 130.47967572 243 134 C243.66 134 244.32 134 245 134 C245 134.99 245 135.98 245 137 C245.66 137 246.32 137 247 137 C247 137.99 247 138.98 247 140 C247.66 140 248.32 140 249 140 C249 140.66 249 141.32 249 142 C249.66 142 250.32 142 251 142 C251 142.99 251 143.98 251 145 C251.66 145 252.32 145 253 145 C253 145.99 253 146.98 253 148 C253.66 148 254.32 148 255 148 C255 148.66 255 149.32 255 150 C255.66 150 256.32 150 257 150 C257 150.99 257 151.98 257 153 C257.66 153 258.32 153 259 153 C259.33 154.65 259.66 156.3 260 158 C260.66 158 261.32 158 262 158 C262 158.99 262 159.98 262 161 C262.66 161 263.32 161 264 161 C265.76462683 164.08809695 266 165.23312136 266 169 C266.66 169 267.32 169 268 169 C268 169.66 268 170.32 268 171 C268.66 171 269.32 171 270 171 C270 171.99 270 172.98 270 174 C270.66 174 271.32 174 272 174 C272 175.65 272 177.3 272 179 C272.66 179 273.32 179 274 179 C274 179.99 274 180.98 274 182 C274.66 182 275.32 182 276 182 C276 182.99 276 183.98 276 185 C276.99 185.33 277.98 185.66 279 186 C280.1875 189.0625 280.1875 189.0625 281 192 C281.66 192 282.32 192 283 192 C283 192.99 283 193.98 283 195 C283.66 195 284.32 195 285 195 C285 195.99 285 196.98 285 198 C286.32 198 287.64 198 289 198 C289.268125 197.29875 289.53625 196.5975 289.8125 195.875 C291.0681449 192.8350176 292.50235123 189.9272226 294 187 C294.66 187 295.32 187 296 187 C296.66 185.35 297.32 183.7 298 182 C298.66 182 299.32 182 300 182 C300.144375 181.236875 300.28875 180.47375 300.4375 179.6875 C301 177 301 177 302 174 C302.66 174 303.32 174 304 174 C304 173.01 304 172.02 304 171 C304.66 171 305.32 171 306 171 C306 170.34 306 169.68 306 169 C306.66 169 307.32 169 308 169 C308.103125 168.484375 308.20625 167.96875 308.3125 167.4375 C309.60531496 162.85388334 311.0342841 157.93118132 315 155 C315.66 155 316.32 155 317 155 C317 153.35 317 151.7 317 150 C317.66 150 318.32 150 319 150 C319 149.34 319 148.68 319 148 C319.66 148 320.32 148 321 148 C321 147.01 321 146.02 321 145 C321.66 145 322.32 145 323 145 C323 144.01 323 143.02 323 142 C323.66 142 324.32 142 325 142 C325.66 139.69 326.32 137.38 327 135 C327.66 135 328.32 135 329 135 C329 134.01 329 133.02 329 132 C329.66 132 330.32 132 331 132 C331.33 131.01 331.66 130.02 332 129 C332.66 129 333.32 129 334 129 C334 128.34 334 127.68 334 127 C334.66 127 335.32 127 336 127 C336 126.01 336 125.02 336 124 C336.66 124 337.32 124 338 124 C338 123.01 338 122.02 338 121 C338.66 121 339.32 121 340 121 C340 120.34 340 119.68 340 119 C340.99 119 341.98 119 343 119 C343.33 118.01 343.66 117.02 344 116 C344.66 116 345.32 116 346 116 C346 115.01 346 114.02 346 113 C346.66 113 347.32 113 348 113 C348 112.34 348 111.68 348 111 C348.66 111 349.32 111 350 111 C350 110.01 350 109.02 350 108 C351.375 106.3125 351.375 106.3125 353 105 C353.66 105 354.32 105 355 105 C355 104.34 355 103.68 355 103 C356.32 103 357.64 103 359 103 C359 102.01 359 101.02 359 100 C359.66 100 360.32 100 361 100 C361.66 98.35 362.32 96.7 363 95 C363.66 95 364.32 95 365 95 C365 94.01 365 93.02 365 92 C365.66 92 366.32 92 367 92 C367 91.34 367 90.68 367 90 C368.375 88.375 368.375 88.375 370 87 C370.66 87 371.32 87 372 87 C372 86.34 372 85.68 372 85 C373.32 84.67 374.64 84.34 376 84 C376 83.34 376 82.68 376 82 C376.66 82 377.32 82 378 82 C378 81.01 378 80.02 378 79 C379.32 79 380.64 79 382 79 C382 78.01 382 77.02 382 76 C382.66 76 383.32 76 384 76 C384 75.34 384 74.68 384 74 C384.66 74 385.32 74 386 74 C386.33 73.01 386.66 72.02 387 71 C387.99 71 388.98 71 390 71 C390.33 70.01 390.66 69.02 391 68 C391.66 68 392.32 68 393 68 C393 67.34 393 66.68 393 66 C396.46153846 63 396.46153846 63 399 63 C399 62.34 399 61.68 399 61 C400.32 61 401.64 61 403 61 C403 60.01 403 59.02 403 58 C403.66 58 404.32 58 405 58 C405.33 57.01 405.66 56.02 406 55 C406.99 55 407.98 55 409 55 C409 54.34 409 53.68 409 53 C410.65 53 412.3 53 414 53 C414 52.01 414 51.02 414 50 C414.66 50 415.32 50 416 50 C416 49.34 416 48.68 416 48 C417.32 47.67 418.64 47.34 420 47 C420 46.34 420 45.68 420 45 C421.32 45 422.64 45 424 45 C424 44.01 424 43.02 424 42 C428.455 40.515 428.455 40.515 433 39 C433 38.34 433 37.68 433 37 C433.804375 36.87625 434.60875 36.7525 435.4375 36.625 C436.283125 36.41875 437.12875 36.2125 438 36 C438.33 35.34 438.66 34.68 439 34 C440.32 34 441.64 34 443 34 C443 33.34 443 32.68 443 32 C444.65 32 446.3 32 448 32 C448.33 31.01 448.66 30.02 449 29 C450.65 29 452.3 29 454 29 C454 28.01 454 27.02 454 26 C455.65 26 457.3 26 459 26 C459 25.34 459 24.68 459 24 C460.65 24 462.3 24 464 24 C464.33 23.01 464.66 22.02 465 21 C466.98 21 468.96 21 471 21 C471 20.34 471 19.68 471 19 C473.70879335 17.64560332 476.00933268 17.93498549 479 18 C479 17.34 479 16.68 479 16 C480.98 16 482.96 16 485 16 C485.33 15.01 485.66 14.02 486 13 C491.09184266 11.11823206 496.39818318 10.34580359 501.7421875 9.46484375 C503.95919365 9.22413654 503.95919365 9.22413654 505 8 C508.06886617 7.71525984 511.13775297 7.55128201 514.21484375 7.37890625 C517.13584433 7.2677106 517.13584433 7.2677106 519 5 C522.0390625 4.8046875 522.0390625 4.8046875 525.625 4.875 C527.40777344 4.90207031 527.40777344 4.90207031 529.2265625 4.9296875 C530.14179687 4.95289063 531.05703125 4.97609375 532 5 C532 4.34 532 3.68 532 3 C532.97610229 2.970271 532.97610229 2.970271 533.97192383 2.93994141 C536.91919151 2.84470701 539.86574885 2.73502182 542.8125 2.625 C543.83666016 2.5940625 544.86082031 2.563125 545.91601562 2.53125 C547.39038086 2.47324219 547.39038086 2.47324219 548.89453125 2.4140625 C550.25348511 2.36693115 550.25348511 2.36693115 551.63989258 2.31884766 C554.26525392 2.13972081 554.26525392 2.13972081 557 0 C559.12890625 -0.24291992 559.12890625 -0.24291992 561.5625 -0.23046875 C562.88121094 -0.22756836 562.88121094 -0.22756836 564.2265625 -0.22460938 C565.59941406 -0.20624023 565.59941406 -0.20624023 567 -0.1875 C567.91523437 -0.18685547 568.83046875 -0.18621094 569.7734375 -0.18554688 C576.57805488 -0.14064837 576.57805488 -0.14064837 580 1 C580 1.66 580 2.32 580 3 C580.85549438 2.99214478 580.85549438 2.99214478 581.72827148 2.98413086 C584.29800323 2.96341779 586.86771747 2.9503581 589.4375 2.9375 C590.78424805 2.92493164 590.78424805 2.92493164 592.15820312 2.91210938 C593.01220703 2.90888672 593.86621094 2.90566406 594.74609375 2.90234375 C595.53685303 2.89710693 596.3276123 2.89187012 597.14233398 2.88647461 C599 3 599 3 600 4 C601.84891946 4.23363881 603.70488031 4.41303635 605.5625 4.5625 C606.57441406 4.64628906 607.58632813 4.73007812 608.62890625 4.81640625 C609.80259766 4.90728516 609.80259766 4.90728516 611 5 C611.33 5.99 611.66 6.98 612 8 C614.64 8 617.28 8 620 8 C620 8.66 620 9.32 620 10 C621.98 10.33 623.96 10.66 626 11 C626 11.66 626 12.32 626 13 C627.65 13 629.3 13 631 13 C631 13.99 631 14.98 631 16 C632.98 16 634.96 16 637 16 C637 16.66 637 17.32 637 18 C638.98 18.33 640.96 18.66 643 19 C643 19.66 643 20.32 643 21 C645.475 21.495 645.475 21.495 648 22 C648 22.66 648 23.32 648 24 C649.32 24 650.64 24 652 24 C652 24.66 652 25.32 652 26 C653.32 26.33 654.64 26.66 656 27 C656 27.66 656 28.32 656 29 C656.66 29 657.32 29 658 29 C658 29.99 658 30.98 658 32 C658.7425 32.12375 659.485 32.2475 660.25 32.375 C662.80141485 32.95486701 664.7267573 33.73708739 667 35 C667 35.66 667 36.32 667 37 C667.66 37 668.32 37 669 37 C670.625 38.375 670.625 38.375 672 40 C672 40.66 672 41.32 672 42 C672.99 42 673.98 42 675 42 C675 42.99 675 43.98 675 45 C675.66 45 676.32 45 677 45 C677 45.66 677 46.32 677 47 C677.66 47 678.32 47 679 47 C679 47.99 679 48.98 679 50 C679.66 50 680.32 50 681 50 C681 50.99 681 51.98 681 53 C681.99 53 682.98 53 684 53 C684 53.66 684 54.32 684 55 C684.66 55 685.32 55 686 55 C686 55.99 686 56.98 686 58 C686.66 58 687.32 58 688 58 C688 58.99 688 59.98 688 61 C688.66 61 689.32 61 690 61 C690 61.66 690 62.32 690 63 C690.66 63 691.32 63 692 63 C692 63.99 692 64.98 692 66 C692.66 66 693.32 66 694 66 C695.25664978 68.90600261 696 70.79604584 696 74 C696.66 74 697.32 74 698 74 C698 74.66 698 75.32 698 76 C698.66 76 699.32 76 700 76 C700 77.98 700 79.96 700 82 C700.99 82 701.98 82 703 82 C704.76462683 85.08809695 705 86.23312136 705 90 C705.66 90 706.32 90 707 90 C707 91.65 707 93.3 707 95 C707.66 95 708.32 95 709 95 C710.60355101 98.50776784 711.22036864 101.14354879 711 105 C711.66 105 712.32 105 713 105 C713 106.98 713 108.96 713 111 C713.66 111 714.32 111 715 111 C715.22786458 113.05078125 715.45572917 115.1015625 715.68359375 117.15234375 C715.81886614 119.01140229 715.81886614 119.01140229 717 120 C717.07205511 121.68608966 717.08386068 123.37500659 717.0625 125.0625 C717.05347656 125.98160156 717.04445313 126.90070313 717.03515625 127.84765625 C717.01775391 128.91306641 717.01775391 128.91306641 717 130 C717.66 130 718.32 130 719 130 C719 134.29 719 138.58 719 143 C719.66 143 720.32 143 721 143 C722.43673475 147.31020425 722.38902415 151.69005832 722.60546875 156.1953125 C722.77370125 159.33951984 722.99885537 161.99656612 724 165 C724.13975378 167.23588034 724.2254431 169.47529522 724.28125 171.71484375 C724.29965942 172.36699356 724.31806885 173.01914337 724.33703613 173.6910553 C724.39567733 175.77311354 724.4485271 177.85525296 724.5 179.9375 C724.56786653 182.67594628 724.64156712 185.41414602 724.71875 188.15234375 C724.74904297 189.36913818 724.77933594 190.58593262 724.81054688 191.83959961 C724.96548453 194.42422327 725.30315054 196.53190484 726 199 C726.09157594 200.83151879 726.13003791 202.66620016 726.125 204.5 C726.12757813 205.4384375 726.13015625 206.376875 726.1328125 207.34375 C726 210 726 210 725.50927734 211.80639648 C724.88768654 214.48376625 724.80137303 217.00647067 724.71875 219.75390625 C724.66267578 221.40616211 724.66267578 221.40616211 724.60546875 223.09179688 C724.53503766 225.40950161 724.46472555 227.72720996 724.39453125 230.04492188 C724.33845703 231.69524414 724.33845703 231.69524414 724.28125 233.37890625 C724.23581055 234.88819702 724.23581055 234.88819702 724.18945312 236.42797852 C724 239 724 239 723 242 C722.74006036 245.64276527 722.55719417 249.27986773 722.39453125 252.92773438 C722.10073855 258.79852289 722.10073855 258.79852289 721 261 C720.34 261 719.68 261 719 261 C719.01160156 262.07121094 719.02320313 263.14242188 719.03515625 264.24609375 C719.04453299 265.64322743 719.05363331 267.04036299 719.0625 268.4375 C719.07087891 269.14455078 719.07925781 269.85160156 719.08789062 270.58007812 C719.09653588 272.38693559 719.05220011 274.19387603 719 276 C718.67 276.33 718.34 276.66 718 277 C717.76712992 278.68183948 717.58735834 280.3712416 717.4375 282.0625 C717.35371094 282.98160156 717.26992188 283.90070313 717.18359375 284.84765625 C717.12300781 285.55792969 717.06242188 286.26820313 717 287 C716.34 287 715.68 287 715 287 C715 289.64 715 292.28 715 295 C714.34 295 713.68 295 713 295 C713.01740234 295.95712891 713.01740234 295.95712891 713.03515625 296.93359375 C713.04869141 298.17302734 713.04869141 298.17302734 713.0625 299.4375 C713.07410156 300.26121094 713.08570313 301.08492188 713.09765625 301.93359375 C713 304 713 304 712 305 C711.87625 306.175625 711.7525 307.35125 711.625 308.5625 C711.20971046 312.17871349 710.25728673 315.27005025 708.89453125 318.66015625 C707.7652152 321.61413142 706.81728159 324.60627244 705.875 327.625 C705.54242187 328.68976563 705.20984375 329.75453125 704.8671875 330.8515625 C704.02936997 333.89336847 703.45899238 336.88072526 703 340 C702.01 340 701.02 340 700 340 C700.0928125 341.546875 700.0928125 341.546875 700.1875 343.125 C699.98548629 347.29995008 698.96802541 349.37883325 697 353 C696.30092586 355.73572585 696.30092586 355.73572585 696 358 C695.34 358 694.68 358 694 358 C694 359.98 694 361.96 694 364 C693.34 364 692.68 364 692 364 C692 365.65 692 367.3 692 369 C691.34 369 690.68 369 690 369 C689.88785156 369.68449219 689.77570312 370.36898438 689.66015625 371.07421875 C688.89228607 374.47738305 687.71586052 377.56743098 686.4375 380.8125 C685.98246094 381.97394531 685.52742187 383.13539063 685.05859375 384.33203125 C684.70925781 385.21246094 684.35992188 386.09289062 684 387 C683.01 387 682.02 387 681 387 C681 388.98 681 390.96 681 393 C680.34 393 679.68 393 679 393 C679 393.66 679 394.32 679 395 C678.34 395 677.68 395 677 395 C677 396.98 677 398.96 677 401 C676.34 401 675.68 401 675 401 C674.855625 401.763125 674.71125 402.52625 674.5625 403.3125 C674 406 674 406 673 409 C672.34 409 671.68 409 671 409 C671 410.65 671 412.3 671 414 C670.34 414 669.68 414 669 414 C668.855625 414.763125 668.71125 415.52625 668.5625 416.3125 C668 419 668 419 667 422 C666.34 422 665.68 422 665 422 C663.92474806 424.65228812 662.90543849 427.28368454 662 430 C661.34 430 660.68 430 660 430 C660 430.66 660 431.32 660 432 C659.34 432 658.68 432 658 432 C658 432.99 658 433.98 658 435 C657.34 435 656.68 435 656 435 C656 436.65 656 438.3 656 440 C655.34 440 654.68 440 654 440 C654 440.99 654 441.98 654 443 C653.34 443 652.68 443 652 443 C651.896875 443.721875 651.79375 444.44375 651.6875 445.1875 C650.93206053 448.27793421 649.84468685 450.41743841 648 453 C647.34 453 646.68 453 646 453 C646 453.99 646 454.98 646 456 C645.34 456 644.68 456 644 456 C643.67 456.99 643.34 457.98 643 459 C642.34 459 641.68 459 641 459 C641 459.66 641 460.32 641 461 C640.34 461 639.68 461 639 461 C638.855625 461.763125 638.71125 462.52625 638.5625 463.3125 C638 466 638 466 637 469 C636.34 469 635.68 469 635 469 C635 469.99 635 470.98 635 472 C634.34 472 633.68 472 633 472 C633 472.66 633 473.32 633 474 C632.34 474 631.68 474 631 474 C631 474.99 631 475.98 631 477 C630.34 477 629.68 477 629 477 C629 477.99 629 478.98 629 480 C628.34 480 627.68 480 627 480 C627 480.66 627 481.32 627 482 C626.34 482 625.68 482 625 482 C624.67 482.99 624.34 483.98 624 485 C623.34 485 622.68 485 622 485 C622 485.99 622 486.98 622 488 C621.34 488 620.68 488 620 488 C620 488.66 620 489.32 620 490 C619.34 490 618.68 490 618 490 C618 490.99 618 491.98 618 493 C617.34 493 616.68 493 616 493 C616 493.99 616 494.98 616 496 C615.34 496 614.68 496 614 496 C614 496.66 614 497.32 614 498 C613.34 498 612.68 498 612 498 C612 498.99 612 499.98 612 501 C611.34 501 610.68 501 610 501 C610 501.66 610 502.32 610 503 C609.34 503 608.68 503 608 503 C608 503.99 608 504.98 608 506 C607.34 506 606.68 506 606 506 C605.67 507.65 605.34 509.3 605 511 C604.34 511 603.68 511 603 511 C602.34 512.65 601.68 514.3 601 516 C600.34 516 599.68 516 599 516 C599 516.99 599 517.98 599 519 C598.34 519 597.68 519 597 519 C596.34 520.65 595.68 522.3 595 524 C594.34 524 593.68 524 593 524 C592.67 524.99 592.34 525.98 592 527 C591.34 527 590.68 527 590 527 C589.34 528.65 588.68 530.3 588 532 C587.34 532 586.68 532 586 532 C586 532.66 586 533.32 586 534 C584.68 534.33 583.36 534.66 582 535 C582 535.99 582 536.98 582 538 C581.34 538 580.68 538 580 538 C580 538.66 580 539.32 580 540 C579.34 540 578.68 540 578 540 C578 540.99 578 541.98 578 543 C577.34 543 576.68 543 576 543 C576 543.99 576 544.98 576 546 C575.34 546 574.68 546 574 546 C574 546.66 574 547.32 574 548 C573.34 548 572.68 548 572 548 C572 548.99 572 549.98 572 551 C571.34 551 570.68 551 570 551 C569.34 552.65 568.68 554.3 568 556 C567.01 556 566.02 556 565 556 C565 556.99 565 557.98 565 559 C564.34 559 563.68 559 563 559 C563 559.66 563 560.32 563 561 C562.34 561 561.68 561 561 561 C561 561.99 561 562.98 561 564 C560.34 564 559.68 564 559 564 C559 564.66 559 565.32 559 566 C555.53846154 569 555.53846154 569 553 569 C553 569.99 553 570.98 553 572 C552.34 572 551.68 572 551 572 C551 572.99 551 573.98 551 575 C550.34 575 549.68 575 549 575 C549 575.66 549 576.32 549 577 C548.01 577 547.02 577 546 577 C546 577.99 546 578.98 546 580 C545.34 580 544.68 580 544 580 C544 580.66 544 581.32 544 582 C540.53846154 585 540.53846154 585 538 585 C538 585.99 538 586.98 538 588 C537.34 588 536.68 588 536 588 C535.34 589.65 534.68 591.3 534 593 C533.34 593 532.68 593 532 593 C531.67 593.99 531.34 594.98 531 596 C530.01 596 529.02 596 528 596 C528 596.66 528 597.32 528 598 C527.01 598 526.02 598 525 598 C525 598.99 525 599.98 525 601 C524.34 601 523.68 601 523 601 C523 601.99 523 602.98 523 604 C522.34 604 521.68 604 521 604 C521 604.66 521 605.32 521 606 C520.34 606 519.68 606 519 606 C519 606.99 519 607.98 519 609 C518.01 609 517.02 609 516 609 C515.67 609.99 515.34 610.98 515 612 C514.34 612 513.68 612 513 612 C513 612.66 513 613.32 513 614 C512.34 614 511.68 614 511 614 C510.67 614.99 510.34 615.98 510 617 C509.34 617 508.68 617 508 617 C508 617.66 508 618.32 508 619 C506.68 619.33 505.36 619.66 504 620 C504 620.66 504 621.32 504 622 C503.34 622 502.68 622 502 622 C502 622.99 502 623.98 502 625 C501.34 625 500.68 625 500 625 C500 625.66 500 626.32 500 627 C499.34 627 498.68 627 498 627 C497.67 627.99 497.34 628.98 497 630 C496.01 630 495.02 630 494 630 C494 630.99 494 631.98 494 633 C493.34 633 492.68 633 492 633 C492 633.66 492 634.32 492 635 C491.01 635 490.02 635 489 635 C488.67 635.99 488.34 636.98 488 638 C487.01 638 486.02 638 485 638 C485 638.99 485 639.98 485 641 C484.34 641 483.68 641 483 641 C483 641.66 483 642.32 483 643 C482.34 643 481.68 643 481 643 C480.67 643.99 480.34 644.98 480 646 C479.01 646 478.02 646 477 646 C476.34 647.65 475.68 649.3 475 651 C474.01 651 473.02 651 472 651 C471.67 651.99 471.34 652.98 471 654 C470.01 654 469.02 654 468 654 C468 654.66 468 655.32 468 656 C467.34 656 466.68 656 466 656 C466 656.99 466 657.98 466 659 C464.68 659 463.36 659 462 659 C462 659.99 462 660.98 462 662 C461.34 662 460.68 662 460 662 C460 662.66 460 663.32 460 664 C458.68 664 457.36 664 456 664 C456 664.99 456 665.98 456 667 C455.34 667 454.68 667 454 667 C453.67 667.99 453.34 668.98 453 670 C450 672 450 672 447 672 C447 672.99 447 673.98 447 675 C446.34 675 445.68 675 445 675 C445 675.66 445 676.32 445 677 C443.68 677.33 442.36 677.66 441 678 C441 678.66 441 679.32 441 680 C440.34 680 439.68 680 439 680 C438.67 680.99 438.34 681.98 438 683 C437.01 683 436.02 683 435 683 C435 683.66 435 684.32 435 685 C433.75 686.625 433.75 686.625 432 688 C430.68 688 429.36 688 428 688 C428 688.99 428 689.98 428 691 C427.34 691 426.68 691 426 691 C426 691.66 426 692.32 426 693 C425.34 693 424.68 693 424 693 C423.67 693.99 423.34 694.98 423 696 C422.01 696 421.02 696 420 696 C420 696.99 420 697.98 420 699 C419.01 699 418.02 699 417 699 C417 699.66 417 700.32 417 701 C416.01 701 415.02 701 414 701 C413.67 701.99 413.34 702.98 413 704 C412.01 704.33 411.02 704.66 410 705 C409.67 705.66 409.34 706.32 409 707 C408.34 707 407.68 707 407 707 C407 707.66 407 708.32 407 709 C405.68 709 404.36 709 403 709 C403 709.99 403 710.98 403 712 C402.34 712 401.68 712 401 712 C401 712.66 401 713.32 401 714 C400.34 714 399.68 714 399 714 C398.67 714.99 398.34 715.98 398 717 C397.01 717 396.02 717 395 717 C394.67 717.99 394.34 718.98 394 720 C393.34 720 392.68 720 392 720 C392 720.66 392 721.32 392 722 C390.68 722 389.36 722 388 722 C388 722.99 388 723.98 388 725 C384.66666667 728 384.66666667 728 382 728 C382 728.66 382 729.32 382 730 C381.01 730 380.02 730 379 730 C378.67 730.99 378.34 731.98 378 733 C377.34 733 376.68 733 376 733 C375.67 733.99 375.34 734.98 375 736 C374.34 736 373.68 736 373 736 C373 736.66 373 737.32 373 738 C369.53846154 741 369.53846154 741 367 741 C367 741.66 367 742.32 367 743 C366.34 743 365.68 743 365 743 C365 743.99 365 744.98 365 746 C364.01 746.33 363.02 746.66 362 747 C361.67 747.66 361.34 748.32 361 749 C360.34 749 359.68 749 359 749 C359 749.66 359 750.32 359 751 C358.34 751 357.68 751 357 751 C356.67 751.99 356.34 752.98 356 754 C355.34 754 354.68 754 354 754 C354 754.66 354 755.32 354 756 C352.68 756.33 351.36 756.66 350 757 C350 757.66 350 758.32 350 759 C349.34 759 348.68 759 348 759 C348 759.99 348 760.98 348 762 C347.34 762 346.68 762 346 762 C346 762.66 346 763.32 346 764 C342.53846154 767 342.53846154 767 340 767 C340 767.99 340 768.98 340 770 C339.34 770 338.68 770 338 770 C338 770.66 338 771.32 338 772 C337.34 772 336.68 772 336 772 C335.67 772.99 335.34 773.98 335 775 C334.34 775 333.68 775 333 775 C333 775.99 333 776.98 333 778 C332.34 778 331.68 778 331 778 C331 778.66 331 779.32 331 780 C330.34 780 329.68 780 329 780 C328.67 780.99 328.34 781.98 328 783 C326.5625 784.6875 326.5625 784.6875 325 786 C324.34 786 323.68 786 323 786 C323 786.66 323 787.32 323 788 C322.34 788 321.68 788 321 788 C321 788.99 321 789.98 321 791 C320.34 791 319.68 791 319 791 C319 791.66 319 792.32 319 793 C316.4385343 795.29648649 315.52032428 796 312 796 C312 796.99 312 797.98 312 799 C311.34 799 310.68 799 310 799 C310 799.66 310 800.32 310 801 C308.68 801 307.36 801 306 801 C306 801.99 306 802.98 306 804 C304.68 804 303.36 804 302 804 C302 804.99 302 805.98 302 807 C300.35 807 298.7 807 297 807 C297 807.66 297 808.32 297 809 C294.3118751 809.08164159 291.626277 809.14079668 288.9375 809.1875 C287.80924805 809.22520508 287.80924805 809.22520508 286.65820312 809.26367188 C281.33368144 809.33282151 277.75653566 808.40669334 273 806 C273 805.34 273 804.68 273 804 C272.1028125 803.814375 272.1028125 803.814375 271.1875 803.625 C269 803 269 803 266 801 C266 800.34 266 799.68 266 799 C264.68 799 263.36 799 262 799 C262 798.01 262 797.02 262 796 C261.443125 795.731875 260.88625 795.46375 260.3125 795.1875 C257.77378296 793.88383449 255.34708441 792.62991973 253 791 C253 790.01 253 789.02 253 788 C252.34 788 251.68 788 251 788 C251 787.34 251 786.68 251 786 C250.34 786 249.68 786 249 786 C249 785.01 249 784.02 249 783 C248.38125 782.690625 247.7625 782.38125 247.125 782.0625 C245.75 781.375 244.375 780.6875 243 780 C243 779.34 243 778.68 243 778 C242.34 778 241.68 778 241 778 C241 777.01 241 776.02 241 775 C240.34 775 239.68 775 239 775 C239 774.01 239 773.02 239 772 C238.01 772 237.02 772 236 772 C236 771.34 236 770.68 236 770 C235.34 770 234.68 770 234 770 C234 769.01 234 768.02 234 767 C233.38125 766.690625 232.7625 766.38125 232.125 766.0625 C230.75 765.375 229.375 764.6875 228 764 C228 763.34 228 762.68 228 762 C227.34 762 226.68 762 226 762 C226 761.01 226 760.02 226 759 C225.34 759 224.68 759 224 759 C224 758.34 224 757.68 224 757 C222.68 756.67 221.36 756.34 220 756 C220 755.34 220 754.68 220 754 C219.34 754 218.68 754 218 754 C216.375 752.625 216.375 752.625 215 751 C215 750.34 215 749.68 215 749 C213.68 748.67 212.36 748.34 211 748 C211 747.34 211 746.68 211 746 C210.34 746 209.68 746 209 746 C209 745.01 209 744.02 209 743 C208.34 743 207.68 743 207 743 C207 742.34 207 741.68 207 741 C205.68 740.67 204.36 740.34 203 740 C203 739.34 203 738.68 203 738 C202.34 738 201.68 738 201 738 C201 737.34 201 736.68 201 736 C200.01 735.67 199.02 735.34 198 735 C198 734.34 198 733.68 198 733 C196.68 732.67 195.36 732.34 194 732 C194 731.34 194 730.68 194 730 C193.34 730 192.68 730 192 730 C192 729.34 192 728.68 192 728 C191.34 728 190.68 728 190 728 C190 727.01 190 726.02 190 725 C188.68 725 187.36 725 186 725 C186 724.01 186 723.02 186 722 C185.34 722 184.68 722 184 722 C184 721.34 184 720.68 184 720 C182.68 719.67 181.36 719.34 180 719 C180 718.34 180 717.68 180 717 C179.01 717 178.02 717 177 717 C177 716.01 177 715.02 177 714 C175.68 714 174.36 714 173 714 C173 713.34 173 712.68 173 712 C172.34 712 171.68 712 171 712 C171 711.01 171 710.02 171 709 C169.68 709 168.36 709 167 709 C166.34 707.35 165.68 705.7 165 704 C163.68 704 162.36 704 161 704 C161 703.01 161 702.02 161 701 C159.68 701 158.36 701 157 701 C157 700.34 157 699.68 157 699 C156.01 698.67 155.02 698.34 154 698 C154 697.34 154 696.68 154 696 C153.01 695.67 152.02 695.34 151 695 C151 694.34 151 693.68 151 693 C150.01 693 149.02 693 148 693 C148 692.34 148 691.68 148 691 C146.68 690.67 145.36 690.34 144 690 C144 689.34 144 688.68 144 688 C143.34 688 142.68 688 142 688 C142 687.01 142 686.02 142 685 C141.01 685 140.02 685 139 685 C139 684.34 139 683.68 139 683 C137.68 682.67 136.36 682.34 135 682 C135 681.34 135 680.68 135 680 C134.34 680 133.68 680 133 680 C133 679.34 133 678.68 133 678 C131.68 677.67 130.36 677.34 129 677 C129 676.34 129 675.68 129 675 C128.34 675 127.68 675 127 675 C127 674.01 127 673.02 127 672 C125.68 672 124.36 672 123 672 C123 671.34 123 670.68 123 670 C122.01 669.67 121.02 669.34 120 669 C120 668.34 120 667.68 120 667 C119.34 667 118.68 667 118 667 C118 666.01 118 665.02 118 664 C116.68 664 115.36 664 114 664 C114 663.34 114 662.68 114 662 C113.34 662 112.68 662 112 662 C112 661.01 112 660.02 112 659 C110.68 659 109.36 659 108 659 C108 658.01 108 657.02 108 656 C107.34 656 106.68 656 106 656 C106 655.34 106 654.68 106 654 C104.68 654 103.36 654 102 654 C102 653.01 102 652.02 102 651 C101.01 651 100.02 651 99 651 C98.7525 650.195625 98.505 649.39125 98.25 648.5625 C97.27761141 645.828919 97.27761141 645.828919 94.875 645.1875 C94.25625 645.125625 93.6375 645.06375 93 645 C93 644.34 93 643.68 93 643 C92.34 643 91.68 643 91 643 C91 642.34 91 641.68 91 641 C90.34 641 89.68 641 89 641 C89 640.01 89 639.02 89 638 C87.68 638 86.36 638 85 638 C85 637.01 85 636.02 85 635 C84.01 635 83.02 635 82 635 C82 634.34 82 633.68 82 633 C81.34 633 80.68 633 80 633 C80 632.01 80 631.02 80 630 C78.68 630 77.36 630 76 630 C76 629.01 76 628.02 76 627 C75.34 627 74.68 627 74 627 C74 626.34 74 625.68 74 625 C73.01 624.67 72.02 624.34 71 624 C71 623.34 71 622.68 71 622 C70.01 622 69.02 622 68 622 C67.731875 621.195625 67.46375 620.39125 67.1875 619.5625 C66.795625 618.716875 66.40375 617.87125 66 617 C65.01 616.67 64.02 616.34 63 616 C63 615.34 63 614.68 63 614 C62.34 614 61.68 614 61 614 C61 613.34 61 612.68 61 612 C60.34 612 59.68 612 59 612 C59 611.01 59 610.02 59 609 C57.68 608.67 56.36 608.34 55 608 C55 607.34 55 606.68 55 606 C54.34 606 53.68 606 53 606 C53 605.34 53 604.68 53 604 C52.34 604 51.68 604 51 604 C51 603.01 51 602.02 51 601 C50.34 601 49.68 601 49 601 C49 600.01 49 599.02 49 598 C47.68 598 46.36 598 45 598 C45 597.34 45 596.68 45 596 C44.01 595.67 43.02 595.34 42 595 C42 594.34 42 593.68 42 593 C41.34 593 40.68 593 40 593 C39.34 591.35 38.68 589.7 38 588 C37.34 588 36.68 588 36 588 C36 587.01 36 586.02 36 585 C35.38125 584.690625 34.7625 584.38125 34.125 584.0625 C32.75 583.375 31.375 582.6875 30 582 C30 581.34 30 580.68 30 580 C29.34 580 28.68 580 28 580 C28 579.01 28 578.02 28 577 C27.34 577 26.68 577 26 577 C26 576.34 26 575.68 26 575 C25.01 574.67 24.02 574.34 23 574 C23 573.34 23 572.68 23 572 C22.34 572 21.68 572 21 572 C21 571.01 21 570.02 21 569 C20.38125 568.9175 19.7625 568.835 19.125 568.75 C17 568 17 568 15.75 565.9375 C15.5025 565.298125 15.255 564.65875 15 564 C14.34 564 13.68 564 13 564 C13 563.01 13 562.02 13 561 C12.34 561 11.68 561 11 561 C11 560.34 11 559.68 11 559 C10.34 559 9.68 559 9 559 C9 558.01 9 557.02 9 556 C8.34 556 7.68 556 7 556 C7 555.34 7 554.68 7 554 C6.01 553.67 5.02 553.34 4 553 C4 552.34 4 551.68 4 551 C3.34 551 2.68 551 2 551 C2 550.01 2 549.02 2 548 C1.34 548 0.68 548 0 548 C0 547.34 0 546.68 0 546 C-0.66 546 -1.32 546 -2 546 C-2 545.01 -2 544.02 -2 543 C-2.66 543 -3.32 543 -4 543 C-4 542.01 -4 541.02 -4 540 C-4.66 540 -5.32 540 -6 540 C-6 539.34 -6 538.68 -6 538 C-6.66 538 -7.32 538 -8 538 C-8 537.01 -8 536.02 -8 535 C-8.66 535 -9.32 535 -10 535 C-10.66 533.35 -11.32 531.7 -12 530 C-12.99 530 -13.98 530 -15 530 C-15 529.01 -15 528.02 -15 527 C-15.66 527 -16.32 527 -17 527 C-17 526.34 -17 525.68 -17 525 C-17.66 525 -18.32 525 -19 525 C-20.8046875 523.0234375 -20.8046875 523.0234375 -22.875 520.375 C-23.58914062 519.46234375 -24.30328125 518.5496875 -25.0390625 517.609375 C-26.51605902 515.64396927 -27.91993157 513.6892662 -29.25 511.625 C-30.83872682 509.03752382 -30.83872682 509.03752382 -32.69921875 507.3671875 C-35.98074899 503.99094416 -38.72919912 500.2543627 -41.5625 496.5 C-42.13935547 495.74074219 -42.71621094 494.98148437 -43.31054688 494.19921875 C-44.87730928 492.13550172 -46.4405541 490.06924982 -48 488 C-48.55679443 487.29939453 -49.11358887 486.59878906 -49.68725586 485.87695312 C-51 484 -51 484 -51 482 C-51.66 482 -52.32 482 -53 482 C-53 481.34 -53 480.68 -53 480 C-53.66 480 -54.32 480 -55 480 C-55 479.01 -55 478.02 -55 477 C-55.66 477 -56.32 477 -57 477 C-57 476.01 -57 475.02 -57 474 C-57.66 474 -58.32 474 -59 474 C-59 473.34 -59 472.68 -59 472 C-59.66 472 -60.32 472 -61 472 C-61 471.01 -61 470.02 -61 469 C-61.66 469 -62.32 469 -63 469 C-63 468.01 -63 467.02 -63 466 C-63.66 466 -64.32 466 -65 466 C-65.99 462.535 -65.99 462.535 -67 459 C-67.66 459 -68.32 459 -69 459 C-69 458.01 -69 457.02 -69 456 C-69.66 456 -70.32 456 -71 456 C-72.2890625 454.35546875 -72.2890625 454.35546875 -73.625 452.1875 C-74.07101563 451.47980469 -74.51703125 450.77210938 -74.9765625 450.04296875 C-76 448 -76 448 -76 445 C-76.66 445 -77.32 445 -78 445 C-78 444.34 -78 443.68 -78 443 C-78.66 443 -79.32 443 -80 443 C-80 442.01 -80 441.02 -80 440 C-80.66 440 -81.32 440 -82 440 C-83.76462683 436.91190305 -84 435.76687864 -84 432 C-84.66 432 -85.32 432 -86 432 C-86 431.34 -86 430.68 -86 430 C-86.66 430 -87.32 430 -88 430 C-88.97109641 428.05780718 -89.94181732 426.11544495 -90.91015625 424.171875 C-91.84177505 422.31531568 -92.79383293 420.4690365 -93.75 418.625 C-95 416 -95 416 -95 414 C-95.66 414 -96.32 414 -97 414 C-97 412.35 -97 410.7 -97 409 C-97.66 409 -98.32 409 -99 409 C-99 408.01 -99 407.02 -99 406 C-99.66 406 -100.32 406 -101 406 C-101 404.35 -101 402.7 -101 401 C-101.66 401 -102.32 401 -103 401 C-104.25664978 398.09399739 -105 396.20395416 -105 393 C-105.66 393 -106.32 393 -107 393 C-107 391.02 -107 389.04 -107 387 C-107.66 387 -108.32 387 -109 387 C-109 385.35 -109 383.7 -109 382 C-109.99 382 -110.98 382 -112 382 C-112.67595315 380.58774074 -113.34040059 379.16997095 -114 377.75 C-114.37125 376.96109375 -114.7425 376.1721875 -115.125 375.359375 C-116 373 -116 373 -116 369 C-116.66 369 -117.32 369 -118 369 C-119.42258812 365.17679443 -120.24042276 362.08718695 -120 358 C-120.66 358 -121.32 358 -122 358 C-122 356.35 -122 354.7 -122 353 C-122.66 353 -123.32 353 -124 353 C-124 351.35 -124 349.7 -124 348 C-124.66 348 -125.32 348 -126 348 C-126 345.36 -126 342.72 -126 340 C-126.66 340 -127.32 340 -128 340 C-128 338.35 -128 336.7 -128 335 C-128.99 334.67 -129.98 334.34 -131 334 C-132.65049717 329.56971812 -133.22973141 325.70949382 -133 321 C-133.66 321 -134.32 321 -135 321 C-135.144375 319.865625 -135.28875 318.73125 -135.4375 317.5625 C-135.61171478 314.19222799 -135.61171478 314.19222799 -137 313 C-137.04092937 310.66702567 -137.04241723 308.33294775 -137 306 C-137.66 306 -138.32 306 -139 306 C-139 303.36 -139 300.72 -139 298 C-139.66 298 -140.32 298 -141 298 C-141.22786458 295.94921875 -141.45572917 293.8984375 -141.68359375 291.84765625 C-141.81886614 289.98859771 -141.81886614 289.98859771 -143 289 C-143.07244053 286.98035801 -143.08377188 284.95832876 -143.0625 282.9375 C-143.05347656 281.83277344 -143.04445312 280.72804688 -143.03515625 279.58984375 C-143.02355469 278.73519531 -143.01195312 277.88054687 -143 277 C-143.66 277 -144.32 277 -145 277 C-145 273.37 -145 269.74 -145 266 C-145.66 266 -146.32 266 -147 266 C-147 260.72 -147 255.44 -147 250 C-147.66 250 -148.32 250 -149 250 C-149.82173146 247.08568112 -150.16555702 244.39778681 -150.28125 241.375 C-150.31863281 240.50359375 -150.35601562 239.6321875 -150.39453125 238.734375 C-150.46484375 236.91145833 -150.53515625 235.08854167 -150.60546875 233.265625 C-150.64285156 232.39421875 -150.68023437 231.5228125 -150.71875 230.625 C-150.74904297 229.83351562 -150.77933594 229.04203125 -150.81054688 228.2265625 C-150.92649087 226.04447664 -150.92649087 226.04447664 -151.50927734 224.17773438 C-152.23014967 220.97863929 -152.14240105 217.79326643 -152.1328125 214.53125 C-152.13376923 213.813927 -152.13472595 213.096604 -152.13571167 212.35754395 C-152.13639056 210.84464429 -152.13455658 209.33174168 -152.13037109 207.81884766 C-152.1250187 205.50807123 -152.1303259 203.19748916 -152.13671875 200.88671875 C-152.13605792 199.41406207 -152.13477665 197.94140552 -152.1328125 196.46875 C-152.13483673 195.78010864 -152.13686096 195.09146729 -152.13894653 194.38195801 C-152.12285214 191.07607744 -151.86541509 188.17999419 -151 185 C-150.87802405 183.24189937 -150.79986839 181.4804774 -150.75390625 179.71875 C-150.72103516 178.71199219 -150.68816406 177.70523438 -150.65429688 176.66796875 C-150.59310213 174.55609907 -150.53580988 172.4441127 -150.48242188 170.33203125 C-150.44826172 169.32527344 -150.41410156 168.31851563 -150.37890625 167.28125 C-150.34132202 165.90549805 -150.34132202 165.90549805 -150.30297852 164.50195312 C-149.98608565 161.88509726 -149.20942931 160.31108476 -148 158 C-147.72958707 155.24847872 -147.53795592 152.56891251 -147.4375 149.8125 C-147.12123631 142.12123631 -147.12123631 142.12123631 -146 141 C-145.76572222 138.98405418 -145.58663876 136.961526 -145.4375 134.9375 C-145.35371094 133.83277344 -145.26992187 132.72804687 -145.18359375 131.58984375 C-145.12300781 130.73519531 -145.06242188 129.88054687 -145 129 C-144.34 129 -143.68 129 -143 129 C-143 125.7 -143 122.4 -143 119 C-142.34 119 -141.68 119 -141 119 C-141 116.36 -141 113.72 -141 111 C-140.34 111 -139.68 111 -139 111 C-139.04125 110.29875 -139.0825 109.5975 -139.125 108.875 C-138.98331668 105.61628372 -138.13265314 103.0440053 -137 100 C-136.34 100 -135.68 100 -135 100 C-135 98.35 -135 96.7 -135 95 C-134.34 95 -133.68 95 -133 95 C-133 93.35 -133 91.7 -133 90 C-132.34 90 -131.68 90 -131 90 C-130.67 88.02 -130.34 86.04 -130 84 C-129.34 84 -128.68 84 -128 84 C-128 83.34 -128 82.68 -128 82 C-127.34 82 -126.68 82 -126 82 C-126 80.35 -126 78.7 -126 77 C-125.34 77 -124.68 77 -124 77 C-124 76.01 -124 75.02 -124 74 C-123.34 74 -122.68 74 -122 74 C-122 73.01 -122 72.02 -122 71 C-121.34 71 -120.68 71 -120 71 C-119.566875 69.3603125 -119.566875 69.3603125 -119.125 67.6875 C-118 64 -118 64 -116 61 C-115.34 61 -114.68 61 -114 61 C-114 60.01 -114 59.02 -114 58 C-113.34 58 -112.68 58 -112 58 C-111.67 57.01 -111.34 56.02 -111 55 C-110.34 55 -109.68 55 -109 55 C-109 54.34 -109 53.68 -109 53 C-108.34 53 -107.68 53 -107 53 C-107 52.01 -107 51.02 -107 50 C-106.34 50 -105.68 50 -105 50 C-105 49.01 -105 48.02 -105 47 C-104.34 47 -103.68 47 -103 47 C-103 46.34 -103 45.68 -103 45 C-102.34 45 -101.68 45 -101 45 C-101 44.01 -101 43.02 -101 42 C-100.01 42 -99.02 42 -98 42 C-98 41.34 -98 40.68 -98 40 C-96.625 38.375 -96.625 38.375 -95 37 C-94.34 37 -93.68 37 -93 37 C-92.67 36.01 -92.34 35.02 -92 34 C-90.68 34 -89.36 34 -88 34 C-88 33.34 -88 32.68 -88 32 C-87.34 32 -86.68 32 -86 32 C-86 31.01 -86 30.02 -86 29 C-84.68 29 -83.36 29 -82 29 C-82 28.01 -82 27.02 -82 26 C-80.68 26 -79.36 26 -78 26 C-78 25.34 -78 24.68 -78 24 C-76.68 24 -75.36 24 -74 24 C-73.505 22.515 -73.505 22.515 -73 21 C-71.68 21 -70.36 21 -69 21 C-69 20.34 -69 19.68 -69 19 C-67.02 18.67 -65.04 18.34 -63 18 C-63 17.34 -63 16.68 -63 16 C-61.68 16 -60.36 16 -59 16 C-58.67 15.01 -58.34 14.02 -58 13 C-56.35 13 -54.7 13 -53 13 C-53 12.34 -53 11.68 -53 11 C-49.535 10.505 -49.535 10.505 -46 10 C-46 9.34 -46 8.68 -46 8 C-42.7 8 -39.4 8 -36 8 C-35.67 7.01 -35.34 6.02 -35 5 C-31.7 5 -28.4 5 -25 5 C-25 4.34 -25 3.68 -25 3 C-17.08 3 -9.16 3 -1 3 C-0.67 2.01 -0.34 1.02 0 0 Z " fill="#FF9B9B" transform="translate(161,17)"/>
<path d="M0 0 C3.34373475 0.55728913 6.03312999 1.35173889 9 3 C9 3.66 9 4.32 9 5 C9.66 5 10.32 5 11 5 C12.625 6.375 12.625 6.375 14 8 C14 8.66 14 9.32 14 10 C14.99 10 15.98 10 17 10 C17 10.99 17 11.98 17 13 C17.66 13 18.32 13 19 13 C19 13.66 19 14.32 19 15 C19.66 15 20.32 15 21 15 C21 15.99 21 16.98 21 18 C21.66 18 22.32 18 23 18 C23 18.99 23 19.98 23 21 C23.99 21 24.98 21 26 21 C26 21.66 26 22.32 26 23 C26.66 23 27.32 23 28 23 C28 23.99 28 24.98 28 26 C28.66 26 29.32 26 30 26 C30 26.99 30 27.98 30 29 C30.66 29 31.32 29 32 29 C32 29.66 32 30.32 32 31 C32.66 31 33.32 31 34 31 C34 31.99 34 32.98 34 34 C34.66 34 35.32 34 36 34 C37.25664978 36.90600261 38 38.79604584 38 42 C38.66 42 39.32 42 40 42 C40 42.66 40 43.32 40 44 C40.66 44 41.32 44 42 44 C42 45.98 42 47.96 42 50 C42.99 50 43.98 50 45 50 C46.76462683 53.08809695 47 54.23312136 47 58 C47.66 58 48.32 58 49 58 C49 59.65 49 61.3 49 63 C49.66 63 50.32 63 51 63 C52.60355101 66.50776784 53.22036864 69.14354879 53 73 C53.66 73 54.32 73 55 73 C55 74.98 55 76.96 55 79 C55.66 79 56.32 79 57 79 C57.22786458 81.05078125 57.45572917 83.1015625 57.68359375 85.15234375 C57.81886614 87.01140229 57.81886614 87.01140229 59 88 C59.07205511 89.68608966 59.08386068 91.37500659 59.0625 93.0625 C59.05347656 93.98160156 59.04445313 94.90070313 59.03515625 95.84765625 C59.01775391 96.91306641 59.01775391 96.91306641 59 98 C59.66 98 60.32 98 61 98 C61 102.29 61 106.58 61 111 C61.66 111 62.32 111 63 111 C64.43673475 115.31020425 64.38902415 119.69005832 64.60546875 124.1953125 C64.77370125 127.33951984 64.99885537 129.99656612 66 133 C66.13975378 135.23588034 66.2254431 137.47529522 66.28125 139.71484375 C66.29965942 140.36699356 66.31806885 141.01914337 66.33703613 141.6910553 C66.39567733 143.77311354 66.4485271 145.85525296 66.5 147.9375 C66.56786653 150.67594628 66.64156712 153.41414602 66.71875 156.15234375 C66.74904297 157.36913818 66.77933594 158.58593262 66.81054688 159.83959961 C66.96548453 162.42422327 67.30315054 164.53190484 68 167 C68.09157594 168.83151879 68.13003791 170.66620016 68.125 172.5 C68.12757813 173.4384375 68.13015625 174.376875 68.1328125 175.34375 C68 178 68 178 67.50927734 179.80639648 C66.88768654 182.48376625 66.80137303 185.00647067 66.71875 187.75390625 C66.66267578 189.40616211 66.66267578 189.40616211 66.60546875 191.09179688 C66.53503766 193.40950161 66.46472555 195.72720996 66.39453125 198.04492188 C66.33845703 199.69524414 66.33845703 199.69524414 66.28125 201.37890625 C66.23581055 202.88819702 66.23581055 202.88819702 66.18945312 204.42797852 C66 207 66 207 65 210 C64.74006036 213.64276527 64.55719417 217.27986773 64.39453125 220.92773438 C64.10073855 226.79852289 64.10073855 226.79852289 63 229 C62.34 229 61.68 229 61 229 C61.01160156 230.07121094 61.02320313 231.14242187 61.03515625 232.24609375 C61.04453299 233.64322743 61.05363331 235.04036299 61.0625 236.4375 C61.07087891 237.14455078 61.07925781 237.85160156 61.08789062 238.58007812 C61.09653588 240.38693559 61.05220011 242.19387603 61 244 C60.67 244.33 60.34 244.66 60 245 C59.76712992 246.68183948 59.58735834 248.3712416 59.4375 250.0625 C59.35371094 250.98160156 59.26992188 251.90070313 59.18359375 252.84765625 C59.12300781 253.55792969 59.06242188 254.26820313 59 255 C58.34 255 57.68 255 57 255 C57 257.64 57 260.28 57 263 C56.34 263 55.68 263 55 263 C55.01740234 263.95712891 55.01740234 263.95712891 55.03515625 264.93359375 C55.04869141 266.17302734 55.04869141 266.17302734 55.0625 267.4375 C55.07410156 268.26121094 55.08570313 269.08492188 55.09765625 269.93359375 C55 272 55 272 54 273 C53.87625 274.175625 53.7525 275.35125 53.625 276.5625 C53.20971046 280.17871349 52.25728673 283.27005025 50.89453125 286.66015625 C49.7652152 289.61413142 48.81728159 292.60627244 47.875 295.625 C47.54242187 296.68976563 47.20984375 297.75453125 46.8671875 298.8515625 C46.02936997 301.89336847 45.45899238 304.88072526 45 308 C44.01 308 43.02 308 42 308 C42.0928125 309.546875 42.0928125 309.546875 42.1875 311.125 C41.98548629 315.29995008 40.96802541 317.37883325 39 321 C38.30092586 323.73572585 38.30092586 323.73572585 38 326 C37.34 326 36.68 326 36 326 C36 327.98 36 329.96 36 332 C35.34 332 34.68 332 34 332 C34 333.65 34 335.3 34 337 C33.34 337 32.68 337 32 337 C31.88785156 337.68449219 31.77570312 338.36898438 31.66015625 339.07421875 C30.89228607 342.47738305 29.71586052 345.56743098 28.4375 348.8125 C27.98246094 349.97394531 27.52742187 351.13539063 27.05859375 352.33203125 C26.70925781 353.21246094 26.35992188 354.09289062 26 355 C25.01 355 24.02 355 23 355 C23 356.98 23 358.96 23 361 C22.34 361 21.68 361 21 361 C21 361.66 21 362.32 21 363 C20.34 363 19.68 363 19 363 C19 364.98 19 366.96 19 369 C18.34 369 17.68 369 17 369 C16.855625 369.763125 16.71125 370.52625 16.5625 371.3125 C16 374 16 374 15 377 C14.34 377 13.68 377 13 377 C13 378.65 13 380.3 13 382 C12.34 382 11.68 382 11 382 C10.855625 382.763125 10.71125 383.52625 10.5625 384.3125 C10 387 10 387 9 390 C8.34 390 7.68 390 7 390 C5.92474806 392.65228812 4.90543849 395.28368454 4 398 C3.34 398 2.68 398 2 398 C2 398.66 2 399.32 2 400 C1.34 400 0.68 400 0 400 C0 400.99 0 401.98 0 403 C-0.66 403 -1.32 403 -2 403 C-2 404.65 -2 406.3 -2 408 C-2.66 408 -3.32 408 -4 408 C-4 408.99 -4 409.98 -4 411 C-4.66 411 -5.32 411 -6 411 C-6.103125 411.721875 -6.20625 412.44375 -6.3125 413.1875 C-7.06793947 416.27793421 -8.15531315 418.41743841 -10 421 C-10.66 421 -11.32 421 -12 421 C-12 421.99 -12 422.98 -12 424 C-12.66 424 -13.32 424 -14 424 C-14.33 424.99 -14.66 425.98 -15 427 C-15.66 427 -16.32 427 -17 427 C-17 427.66 -17 428.32 -17 429 C-17.66 429 -18.32 429 -19 429 C-19.144375 429.763125 -19.28875 430.52625 -19.4375 431.3125 C-20 434 -20 434 -21 437 C-21.66 437 -22.32 437 -23 437 C-23 437.99 -23 438.98 -23 440 C-23.66 440 -24.32 440 -25 440 C-25 440.66 -25 441.32 -25 442 C-25.66 442 -26.32 442 -27 442 C-27 442.99 -27 443.98 -27 445 C-27.66 445 -28.32 445 -29 445 C-29 445.99 -29 446.98 -29 448 C-29.66 448 -30.32 448 -31 448 C-31 448.66 -31 449.32 -31 450 C-31.66 450 -32.32 450 -33 450 C-33.33 450.99 -33.66 451.98 -34 453 C-34.66 453 -35.32 453 -36 453 C-36 453.99 -36 454.98 -36 456 C-36.66 456 -37.32 456 -38 456 C-38 456.66 -38 457.32 -38 458 C-38.66 458 -39.32 458 -40 458 C-40 458.99 -40 459.98 -40 461 C-40.66 461 -41.32 461 -42 461 C-42 461.99 -42 462.98 -42 464 C-42.66 464 -43.32 464 -44 464 C-44 464.66 -44 465.32 -44 466 C-44.66 466 -45.32 466 -46 466 C-46 466.99 -46 467.98 -46 469 C-46.66 469 -47.32 469 -48 469 C-48 469.66 -48 470.32 -48 471 C-48.66 471 -49.32 471 -50 471 C-50 471.99 -50 472.98 -50 474 C-50.66 474 -51.32 474 -52 474 C-52.33 475.65 -52.66 477.3 -53 479 C-53.66 479 -54.32 479 -55 479 C-55.66 480.65 -56.32 482.3 -57 484 C-57.66 484 -58.32 484 -59 484 C-59 484.99 -59 485.98 -59 487 C-59.66 487 -60.32 487 -61 487 C-61.66 488.65 -62.32 490.3 -63 492 C-63.66 492 -64.32 492 -65 492 C-65.33 492.99 -65.66 493.98 -66 495 C-66.66 495 -67.32 495 -68 495 C-68.66 496.65 -69.32 498.3 -70 500 C-70.66 500 -71.32 500 -72 500 C-72 500.66 -72 501.32 -72 502 C-73.32 502.33 -74.64 502.66 -76 503 C-76 503.99 -76 504.98 -76 506 C-76.66 506 -77.32 506 -78 506 C-78 506.66 -78 507.32 -78 508 C-78.66 508 -79.32 508 -80 508 C-80 508.99 -80 509.98 -80 511 C-80.66 511 -81.32 511 -82 511 C-82 511.99 -82 512.98 -82 514 C-82.66 514 -83.32 514 -84 514 C-84 514.66 -84 515.32 -84 516 C-84.66 516 -85.32 516 -86 516 C-86 516.99 -86 517.98 -86 519 C-86.66 519 -87.32 519 -88 519 C-88.66 520.65 -89.32 522.3 -90 524 C-90.99 524 -91.98 524 -93 524 C-93 524.99 -93 525.98 -93 527 C-93.66 527 -94.32 527 -95 527 C-95 527.66 -95 528.32 -95 529 C-95.66 529 -96.32 529 -97 529 C-97 529.99 -97 530.98 -97 532 C-97.66 532 -98.32 532 -99 532 C-99 532.66 -99 533.32 -99 534 C-102.46153846 537 -102.46153846 537 -105 537 C-105 537.99 -105 538.98 -105 540 C-105.66 540 -106.32 540 -107 540 C-107 540.99 -107 541.98 -107 543 C-107.66 543 -108.32 543 -109 543 C-109 543.66 -109 544.32 -109 545 C-109.99 545 -110.98 545 -112 545 C-112 545.99 -112 546.98 -112 548 C-112.66 548 -113.32 548 -114 548 C-114 548.66 -114 549.32 -114 550 C-117.46153846 553 -117.46153846 553 -120 553 C-120 553.99 -120 554.98 -120 556 C-120.66 556 -121.32 556 -122 556 C-122.66 557.65 -123.32 559.3 -124 561 C-124.66 561 -125.32 561 -126 561 C-126.33 561.99 -126.66 562.98 -127 564 C-127.99 564 -128.98 564 -130 564 C-130 564.66 -130 565.32 -130 566 C-130.99 566 -131.98 566 -133 566 C-133 566.99 -133 567.98 -133 569 C-133.66 569 -134.32 569 -135 569 C-135 569.99 -135 570.98 -135 572 C-135.66 572 -136.32 572 -137 572 C-137 572.66 -137 573.32 -137 574 C-137.66 574 -138.32 574 -139 574 C-139 574.99 -139 575.98 -139 577 C-139.99 577 -140.98 577 -142 577 C-142.33 577.99 -142.66 578.98 -143 580 C-143.66 580 -144.32 580 -145 580 C-145 580.66 -145 581.32 -145 582 C-145.66 582 -146.32 582 -147 582 C-147.33 582.99 -147.66 583.98 -148 585 C-148.66 585 -149.32 585 -150 585 C-150 585.66 -150 586.32 -150 587 C-151.32 587.33 -152.64 587.66 -154 588 C-154 588.66 -154 589.32 -154 590 C-154.66 590 -155.32 590 -156 590 C-156 590.99 -156 591.98 -156 593 C-156.66 593 -157.32 593 -158 593 C-158 593.66 -158 594.32 -158 595 C-158.66 595 -159.32 595 -160 595 C-160.33 595.99 -160.66 596.98 -161 598 C-161.99 598 -162.98 598 -164 598 C-164 598.99 -164 599.98 -164 601 C-164.66 601 -165.32 601 -166 601 C-166 601.66 -166 602.32 -166 603 C-166.99 603 -167.98 603 -169 603 C-169.33 603.99 -169.66 604.98 -170 606 C-170.99 606 -171.98 606 -173 606 C-173 606.99 -173 607.98 -173 609 C-173.66 609 -174.32 609 -175 609 C-175 609.66 -175 610.32 -175 611 C-175.66 611 -176.32 611 -177 611 C-177.33 611.99 -177.66 612.98 -178 614 C-178.99 614 -179.98 614 -181 614 C-181.66 615.65 -182.32 617.3 -183 619 C-183.99 619 -184.98 619 -186 619 C-186.33 619.99 -186.66 620.98 -187 622 C-187.99 622 -188.98 622 -190 622 C-190 622.66 -190 623.32 -190 624 C-190.66 624 -191.32 624 -192 624 C-192 624.99 -192 625.98 -192 627 C-193.32 627 -194.64 627 -196 627 C-196 627.99 -196 628.98 -196 630 C-196.66 630 -197.32 630 -198 630 C-198 630.66 -198 631.32 -198 632 C-199.32 632 -200.64 632 -202 632 C-202 632.99 -202 633.98 -202 635 C-202.66 635 -203.32 635 -204 635 C-204.33 635.99 -204.66 636.98 -205 638 C-208 640 -208 640 -211 640 C-211 640.99 -211 641.98 -211 643 C-211.66 643 -212.32 643 -213 643 C-213 643.66 -213 644.32 -213 645 C-214.32 645.33 -215.64 645.66 -217 646 C-217 646.66 -217 647.32 -217 648 C-217.66 648 -218.32 648 -219 648 C-219.33 648.99 -219.66 649.98 -220 651 C-220.99 651 -221.98 651 -223 651 C-223 651.66 -223 652.32 -223 653 C-224.25 654.625 -224.25 654.625 -226 656 C-227.32 656 -228.64 656 -230 656 C-230 656.99 -230 657.98 -230 659 C-230.66 659 -231.32 659 -232 659 C-232 659.66 -232 660.32 -232 661 C-232.66 661 -233.32 661 -234 661 C-234.33 661.99 -234.66 662.98 -235 664 C-235.99 664 -236.98 664 -238 664 C-238 664.99 -238 665.98 -238 667 C-238.99 667 -239.98 667 -241 667 C-241 667.66 -241 668.32 -241 669 C-241.99 669 -242.98 669 -244 669 C-244.33 669.99 -244.66 670.98 -245 672 C-245.99 672.33 -246.98 672.66 -248 673 C-248.33 673.66 -248.66 674.32 -249 675 C-249.66 675 -250.32 675 -251 675 C-251 675.66 -251 676.32 -251 677 C-252.32 677 -253.64 677 -255 677 C-255 677.99 -255 678.98 -255 680 C-255.66 680 -256.32 680 -257 680 C-257 680.66 -257 681.32 -257 682 C-257.66 682 -258.32 682 -259 682 C-259.33 682.99 -259.66 683.98 -260 685 C-260.99 685 -261.98 685 -263 685 C-263.33 685.99 -263.66 686.98 -264 688 C-264.66 688 -265.32 688 -266 688 C-266 688.66 -266 689.32 -266 690 C-267.32 690 -268.64 690 -270 690 C-270 690.99 -270 691.98 -270 693 C-273.33333333 696 -273.33333333 696 -276 696 C-276 696.66 -276 697.32 -276 698 C-276.99 698 -277.98 698 -279 698 C-279.33 698.99 -279.66 699.98 -280 701 C-280.66 701 -281.32 701 -282 701 C-282.33 701.99 -282.66 702.98 -283 704 C-283.66 704 -284.32 704 -285 704 C-285 704.66 -285 705.32 -285 706 C-288.46153846 709 -288.46153846 709 -291 709 C-291 709.66 -291 710.32 -291 711 C-291.66 711 -292.32 711 -293 711 C-293 711.99 -293 712.98 -293 714 C-293.99 714.33 -294.98 714.66 -296 715 C-296.33 715.66 -296.66 716.32 -297 717 C-297.66 717 -298.32 717 -299 717 C-299 717.66 -299 718.32 -299 719 C-299.66 719 -300.32 719 -301 719 C-301.33 719.99 -301.66 720.98 -302 722 C-302.66 722 -303.32 722 -304 722 C-304 722.66 -304 723.32 -304 724 C-305.32 724.33 -306.64 724.66 -308 725 C-308 725.66 -308 726.32 -308 727 C-308.66 727 -309.32 727 -310 727 C-310 727.99 -310 728.98 -310 730 C-310.66 730 -311.32 730 -312 730 C-312 730.66 -312 731.32 -312 732 C-315.46153846 735 -315.46153846 735 -318 735 C-318 735.99 -318 736.98 -318 738 C-318.66 738 -319.32 738 -320 738 C-320 738.66 -320 739.32 -320 740 C-320.66 740 -321.32 740 -322 740 C-322.33 740.99 -322.66 741.98 -323 743 C-323.66 743 -324.32 743 -325 743 C-325 743.99 -325 744.98 -325 746 C-325.66 746 -326.32 746 -327 746 C-327 746.66 -327 747.32 -327 748 C-327.66 748 -328.32 748 -329 748 C-329.33 748.99 -329.66 749.98 -330 751 C-331.4375 752.6875 -331.4375 752.6875 -333 754 C-333.66 754 -334.32 754 -335 754 C-335 754.66 -335 755.32 -335 756 C-335.66 756 -336.32 756 -337 756 C-337 756.99 -337 757.98 -337 759 C-337.66 759 -338.32 759 -339 759 C-339 759.66 -339 760.32 -339 761 C-341.5614657 763.29648649 -342.47967572 764 -346 764 C-346 764.99 -346 765.98 -346 767 C-346.66 767 -347.32 767 -348 767 C-348 767.66 -348 768.32 -348 769 C-349.32 769 -350.64 769 -352 769 C-352 769.99 -352 770.98 -352 772 C-353.32 772 -354.64 772 -356 772 C-356 772.99 -356 773.98 -356 775 C-357.65 775 -359.3 775 -361 775 C-361 775.66 -361 776.32 -361 777 C-363.6881249 777.08164159 -366.373723 777.14079668 -369.0625 777.1875 C-370.19075195 777.22520508 -370.19075195 777.22520508 -371.34179688 777.26367188 C-376.66631856 777.33282151 -380.24346434 776.40669334 -385 774 C-385 773.34 -385 772.68 -385 772 C-385.598125 771.87625 -386.19625 771.7525 -386.8125 771.625 C-389 771 -389 771 -392 769 C-392 768.34 -392 767.68 -392 767 C-393.32 767 -394.64 767 -396 767 C-396 766.01 -396 765.02 -396 764 C-396.556875 763.731875 -397.11375 763.46375 -397.6875 763.1875 C-400.22621704 761.88383449 -402.65291559 760.62991973 -405 759 C-405 758.01 -405 757.02 -405 756 C-405.66 756 -406.32 756 -407 756 C-407 755.34 -407 754.68 -407 754 C-407.66 754 -408.32 754 -409 754 C-409 753.01 -409 752.02 -409 751 C-409.61875 750.690625 -410.2375 750.38125 -410.875 750.0625 C-412.25 749.375 -413.625 748.6875 -415 748 C-415 747.34 -415 746.68 -415 746 C-415.66 746 -416.32 746 -417 746 C-417 745.01 -417 744.02 -417 743 C-417.66 743 -418.32 743 -419 743 C-419 742.01 -419 741.02 -419 740 C-419.99 740 -420.98 740 -422 740 C-422 739.34 -422 738.68 -422 738 C-422.66 738 -423.32 738 -424 738 C-424 737.01 -424 736.02 -424 735 C-424.61875 734.690625 -425.2375 734.38125 -425.875 734.0625 C-427.25 733.375 -428.625 732.6875 -430 732 C-430 731.34 -430 730.68 -430 730 C-430.66 730 -431.32 730 -432 730 C-432 729.01 -432 728.02 -432 727 C-432.66 727 -433.32 727 -434 727 C-434 726.34 -434 725.68 -434 725 C-435.32 724.67 -436.64 724.34 -438 724 C-438 723.34 -438 722.68 -438 722 C-438.66 722 -439.32 722 -440 722 C-441.625 720.625 -441.625 720.625 -443 719 C-443 718.34 -443 717.68 -443 717 C-444.32 716.67 -445.64 716.34 -447 716 C-447 715.34 -447 714.68 -447 714 C-447.66 714 -448.32 714 -449 714 C-449 713.01 -449 712.02 -449 711 C-449.66 711 -450.32 711 -451 711 C-451 710.34 -451 709.68 -451 709 C-452.32 708.67 -453.64 708.34 -455 708 C-455 707.34 -455 706.68 -455 706 C-455.66 706 -456.32 706 -457 706 C-457 705.34 -457 704.68 -457 704 C-457.99 703.67 -458.98 703.34 -460 703 C-460 702.34 -460 701.68 -460 701 C-461.32 700.67 -462.64 700.34 -464 700 C-464 699.34 -464 698.68 -464 698 C-464.66 698 -465.32 698 -466 698 C-466 697.34 -466 696.68 -466 696 C-466.66 696 -467.32 696 -468 696 C-468 695.01 -468 694.02 -468 693 C-469.32 693 -470.64 693 -472 693 C-472 692.01 -472 691.02 -472 690 C-472.66 690 -473.32 690 -474 690 C-474 689.34 -474 688.68 -474 688 C-475.32 687.67 -476.64 687.34 -478 687 C-478 686.34 -478 685.68 -478 685 C-478.99 685 -479.98 685 -481 685 C-481 684.01 -481 683.02 -481 682 C-482.32 682 -483.64 682 -485 682 C-485 681.34 -485 680.68 -485 680 C-485.66 680 -486.32 680 -487 680 C-487 679.01 -487 678.02 -487 677 C-488.32 677 -489.64 677 -491 677 C-491.66 675.35 -492.32 673.7 -493 672 C-494.32 672 -495.64 672 -497 672 C-497 671.01 -497 670.02 -497 669 C-498.32 669 -499.64 669 -501 669 C-501 668.34 -501 667.68 -501 667 C-501.99 666.67 -502.98 666.34 -504 666 C-504 665.34 -504 664.68 -504 664 C-504.99 663.67 -505.98 663.34 -507 663 C-507 662.34 -507 661.68 -507 661 C-507.99 661 -508.98 661 -510 661 C-510 660.34 -510 659.68 -510 659 C-511.32 658.67 -512.64 658.34 -514 658 C-514 657.34 -514 656.68 -514 656 C-514.66 656 -515.32 656 -516 656 C-516 655.01 -516 654.02 -516 653 C-516.99 653 -517.98 653 -519 653 C-519 652.34 -519 651.68 -519 651 C-520.32 650.67 -521.64 650.34 -523 650 C-523 649.34 -523 648.68 -523 648 C-523.66 648 -524.32 648 -525 648 C-525 647.34 -525 646.68 -525 646 C-526.32 645.67 -527.64 645.34 -529 645 C-529 644.34 -529 643.68 -529 643 C-529.66 643 -530.32 643 -531 643 C-531 642.01 -531 641.02 -531 640 C-532.32 640 -533.64 640 -535 640 C-535 639.34 -535 638.68 -535 638 C-535.99 637.67 -536.98 637.34 -538 637 C-538 636.34 -538 635.68 -538 635 C-538.66 635 -539.32 635 -540 635 C-540 634.01 -540 633.02 -540 632 C-541.32 632 -542.64 632 -544 632 C-544 631.34 -544 630.68 -544 630 C-544.66 630 -545.32 630 -546 630 C-546 629.01 -546 628.02 -546 627 C-547.32 627 -548.64 627 -550 627 C-550 626.01 -550 625.02 -550 624 C-550.66 624 -551.32 624 -552 624 C-552 623.34 -552 622.68 -552 622 C-553.32 622 -554.64 622 -556 622 C-556 621.01 -556 620.02 -556 619 C-556.99 619 -557.98 619 -559 619 C-559.2475 618.195625 -559.495 617.39125 -559.75 616.5625 C-560.72238859 613.828919 -560.72238859 613.828919 -563.125 613.1875 C-563.74375 613.125625 -564.3625 613.06375 -565 613 C-565 612.34 -565 611.68 -565 611 C-565.66 611 -566.32 611 -567 611 C-567 610.34 -567 609.68 -567 609 C-567.66 609 -568.32 609 -569 609 C-569 608.01 -569 607.02 -569 606 C-570.32 606 -571.64 606 -573 606 C-573 605.01 -573 604.02 -573 603 C-573.99 603 -574.98 603 -576 603 C-576 602.34 -576 601.68 -576 601 C-576.66 601 -577.32 601 -578 601 C-578 600.01 -578 599.02 -578 598 C-579.32 598 -580.64 598 -582 598 C-582 597.01 -582 596.02 -582 595 C-582.66 595 -583.32 595 -584 595 C-584 594.34 -584 593.68 -584 593 C-584.99 592.67 -585.98 592.34 -587 592 C-587 591.34 -587 590.68 -587 590 C-587.99 590 -588.98 590 -590 590 C-590.268125 589.195625 -590.53625 588.39125 -590.8125 587.5625 C-591.204375 586.716875 -591.59625 585.87125 -592 585 C-592.99 584.67 -593.98 584.34 -595 584 C-595 583.34 -595 582.68 -595 582 C-595.66 582 -596.32 582 -597 582 C-597 581.34 -597 580.68 -597 580 C-597.66 580 -598.32 580 -599 580 C-599 579.01 -599 578.02 -599 577 C-600.32 576.67 -601.64 576.34 -603 576 C-603 575.34 -603 574.68 -603 574 C-603.66 574 -604.32 574 -605 574 C-605 573.34 -605 572.68 -605 572 C-605.66 572 -606.32 572 -607 572 C-607 571.01 -607 570.02 -607 569 C-607.66 569 -608.32 569 -609 569 C-608.67 568.01 -608.34 567.02 -608 566 C-607.38771545 566.61561546 -607.38771545 566.61561546 -606.76306152 567.2436676 C-602.48283652 571.54615602 -598.19898458 575.84500918 -593.91308594 580.1418457 C-592.31776699 581.74216818 -590.72334986 583.3433902 -589.12988281 584.94555664 C-586.82858669 587.2590937 -584.52397929 589.56928899 -582.21875 591.87890625 C-581.16512268 592.9402755 -581.16512268 592.9402755 -580.09020996 594.02308655 C-576.12875424 597.98498223 -572.07321949 601.77163172 -567.82002258 605.41932678 C-564.68602618 608.14117443 -561.69961764 611.01993877 -558.6875 613.875 C-553.53655961 618.72437206 -548.27361805 623.3112663 -542.7421875 627.7265625 C-539.549564 630.37343839 -536.52580916 633.16587706 -533.5 636 C-528.76757821 640.42672411 -523.91342312 644.61110801 -518.859375 648.671875 C-515.62410989 651.3060526 -512.46777054 654.02110545 -509.3125 656.75 C-504.21395537 661.14873054 -499.04509438 665.44914191 -493.8125 669.6875 C-493.13517822 670.23615723 -492.45785645 670.78481445 -491.76000977 671.35009766 C-488.83313961 673.71738244 -485.90175688 676.07877151 -482.96484375 678.43359375 C-477.01872481 683.23326673 -471.35691276 688.26325459 -465.7578125 693.45703125 C-463.59659452 695.44988239 -461.41653031 697.39707785 -459.1875 699.3125 C-447.67270301 709.36473205 -436.81437925 720.08257428 -426 730.875 C-425.40996185 731.46244995 -424.81992371 732.0498999 -424.21200562 732.65515137 C-417.91879695 738.92659785 -411.74369576 745.2136986 -406 752 C-400.97732394 757.66897629 -395.57923857 762.22445068 -389.3125 766.4375 C-388.68279297 766.86272949 -388.05308594 767.28795898 -387.40429688 767.72607422 C-380.19152247 772.42501814 -373.58702053 773.9582083 -365 773 C-350.43361704 768.79252558 -337.26715796 752.26347251 -327.72314453 741.22094727 C-324.16779314 737.13993251 -320.4298477 733.28489052 -316.59765625 729.46484375 C-315.91626083 728.78249161 -315.23486542 728.10013947 -314.53282166 727.39710999 C-313.10294259 725.96655563 -311.67182089 724.53724233 -310.23950195 723.10913086 C-308.06802289 720.94300926 -305.90193675 718.77159826 -303.73632812 716.59960938 C-302.33625798 715.20020013 -300.93587762 713.80110116 -299.53515625 712.40234375 C-298.58008934 711.44424049 -298.58008934 711.44424049 -297.60572815 710.46678162 C-293.77480648 706.65541678 -289.82994005 703.0282352 -285.73724365 699.49913025 C-283.5159046 697.58225661 -281.35293869 695.60461295 -279.1875 693.625 C-274.87441296 689.73270194 -270.43268288 686.03788431 -265.91796875 682.3828125 C-262.74582593 679.79244152 -259.61956706 677.15317133 -256.5 674.5 C-251.65060094 670.37875818 -246.74838629 666.33008186 -241.8125 662.3125 C-238.1195036 659.27603629 -234.47676835 656.18239924 -230.8359375 653.08374023 C-227.43054787 650.19127733 -223.9827889 647.36189282 -220.5 644.5625 C-215.76149128 640.71246166 -211.30066982 636.62505846 -206.84912109 632.45263672 C-202.53493848 628.4316385 -198.02411584 624.71283906 -193.42578125 621.01953125 C-190.66465266 618.72081389 -188.16862153 616.26177027 -185.67578125 613.6796875 C-183.85655544 611.85622107 -181.95232089 610.17981721 -180 608.5 C-176.8038805 605.74642012 -173.82692509 602.85361586 -170.87510681 599.84242249 C-169.06841179 598.06721933 -167.20465085 596.41638166 -165.27954102 594.77124023 C-161.0209759 591.06675103 -157.01136712 587.1560313 -153.02734375 583.16015625 C-152.30059952 582.43436874 -151.57385529 581.70858124 -150.8250885 580.96080017 C-149.30037704 579.43676444 -147.7769085 577.91148431 -146.25463867 576.38500977 C-143.94366109 574.06867537 -141.62739229 571.75772922 -139.31054688 569.44726562 C-137.8199918 567.95604966 -136.329747 566.46452347 -134.83984375 564.97265625 C-134.15736069 564.29219742 -133.47487762 563.61173859 -132.77171326 562.91065979 C-128.86443731 558.98456171 -125.14374515 554.95035849 -121.52412415 550.75770569 C-119.78054045 548.7469069 -117.97599247 546.80641878 -116.1328125 544.88671875 C-115.47941895 544.20174316 -114.82602539 543.51676758 -114.15283203 542.81103516 C-113.48364746 542.11026855 -112.81446289 541.40950195 -112.125 540.6875 C-106.85792149 535.13591003 -101.83140867 529.53116452 -97.0703125 523.5390625 C-94.8072758 520.76364014 -92.42607849 518.1338161 -90 515.5 C-85.10486353 510.17360731 -80.53935236 504.62976618 -76 499 C-74.60449481 497.31222863 -73.20865431 495.62473445 -71.8125 493.9375 C-66.5784688 487.54339556 -61.53231897 481.00499857 -56.47265625 474.47265625 C-53.95435145 471.22285368 -51.41686626 467.98949162 -48.86303711 464.76757812 C7.21249134 393.94419622 46.89265311 313.13725652 60.84765625 127.1015625 C60.56832211 124.73399312 60.28599363 122.36677417 60 120 C59.88253418 118.98647461 59.76506836 117.97294922 59.64404297 116.92871094 C54.71260718 75.13712556 38.39497708 33.36186748 6 5 C4.04458403 3.55575086 2.07186816 2.27499579 0 1 C0 0.67 0 0.34 0 0 Z " fill="#FFFBFB" transform="translate(819,49)"/>
<path d="M0 0 C1.65 0 3.3 0 5 0 C5 0.66 5 1.32 5 2 C6.32 2.33 7.64 2.66 9 3 C9 3.66 9 4.32 9 5 C9.66 5 10.32 5 11 5 C11 5.99 11 6.98 11 8 C12.32 8 13.64 8 15 8 C15 8.66 15 9.32 15 10 C16.32 10.33 17.64 10.66 19 11 C19 11.66 19 12.32 19 13 C19.639375 13.268125 20.27875 13.53625 20.9375 13.8125 C23 15 23 15 24 18 C26.01508358 18.73323796 26.01508358 18.73323796 28 19 C28 19.66 28 20.32 28 21 C28.66 21 29.32 21 30 21 C30 21.66 30 22.32 30 23 C30.66 23 31.32 23 32 23 C32.495 23.99 32.495 23.99 33 25 C33.99 25.33 34.98 25.66 36 26 C36 26.99 36 27.98 36 29 C36.66 29 37.32 29 38 29 C38 29.66 38 30.32 38 31 C38.99 31.33 39.98 31.66 41 32 C41 32.66 41 33.32 41 34 C42.32 34.33 43.64 34.66 45 35 C45 35.66 45 36.32 45 37 C45.66 37 46.32 37 47 37 C47 37.66 47 38.32 47 39 C47.66 39 48.32 39 49 39 C49 39.99 49 40.98 49 42 C50.32 42.33 51.64 42.66 53 43 C53 43.66 53 44.32 53 45 C53.66 45 54.32 45 55 45 C55 45.66 55 46.32 55 47 C55.66 47 56.32 47 57 47 C57 47.99 57 48.98 57 50 C57.639375 50.268125 58.27875 50.53625 58.9375 50.8125 C61 52 61 52 62 55 C62.66 55 63.32 55 64 55 C64 55.99 64 56.98 64 58 C64.66 58 65.32 58 66 58 C66 58.66 66 59.32 66 60 C66.66 60 67.32 60 68 60 C68 60.99 68 61.98 68 63 C69.98 63.495 69.98 63.495 72 64 C72 64.66 72 65.32 72 66 C72.66 66 73.32 66 74 66 C74.66 67.65 75.32 69.3 76 71 C76.66 71 77.32 71 78 71 C78 71.99 78 72.98 78 74 C78.66 74 79.32 74 80 74 C82.29648649 76.5614657 83 77.47967572 83 81 C83.66 81 84.32 81 85 81 C85 81.99 85 82.98 85 84 C85.66 84 86.32 84 87 84 C87 84.99 87 85.98 87 87 C87.66 87 88.32 87 89 87 C89 87.66 89 88.32 89 89 C89.66 89 90.32 89 91 89 C91 89.99 91 90.98 91 92 C91.66 92 92.32 92 93 92 C93 92.99 93 93.98 93 95 C93.66 95 94.32 95 95 95 C95 95.66 95 96.32 95 97 C95.66 97 96.32 97 97 97 C97 97.99 97 98.98 97 100 C97.66 100 98.32 100 99 100 C99.33 101.65 99.66 103.3 100 105 C100.66 105 101.32 105 102 105 C102 105.99 102 106.98 102 108 C102.66 108 103.32 108 104 108 C105.76462683 111.08809695 106 112.23312136 106 116 C106.66 116 107.32 116 108 116 C108 116.66 108 117.32 108 118 C108.66 118 109.32 118 110 118 C110 118.99 110 119.98 110 121 C110.66 121 111.32 121 112 121 C112 122.65 112 124.3 112 126 C112.66 126 113.32 126 114 126 C114 126.99 114 127.98 114 129 C114.66 129 115.32 129 116 129 C116 129.99 116 130.98 116 132 C116.99 132.33 117.98 132.66 119 133 C120.1875 136.0625 120.1875 136.0625 121 139 C121.66 139 122.32 139 123 139 C123 139.99 123 140.98 123 142 C123.66 142 124.32 142 125 142 C125 142.99 125 143.98 125 145 C126.32 145.33 127.64 145.66 129 146 C127.02 146.99 127.02 146.99 125 148 C119.57383632 141.39378348 115.07519673 134.45101586 110.6875 127.125 C99.40893215 108.56274637 87.85707189 89.76563818 74 73 C73.56139648 72.46810059 73.12279297 71.93620117 72.67089844 71.38818359 C64.30326741 61.27510333 55.62712102 51.53261934 46.27734375 42.3125 C44.36753982 40.37321368 42.60350518 38.41106455 40.875 36.3125 C38.27522745 33.19999453 35.40122106 30.62073302 32.3125 28 C30.11405554 26.09864263 27.98810877 24.13325479 25.86767578 22.14575195 C20.37985828 17.01427458 14.69320117 12.26290758 8.72021484 7.70410156 C5.59465566 5.30955637 2.70813035 2.86079456 0 0 Z " fill="#FFFAFA" transform="translate(321,70)"/>
<path d="M0 0 C3.42371471 3.15260608 5.88315962 6.66957933 8.375 10.5625 C17.6382211 24.7194319 27.93552106 38.10714556 38.58398438 51.24121094 C40.8987452 54.11630352 43.16611037 57.02811651 45.4375 59.9375 C51.04210581 67.09877108 56.77472053 74.15359566 62.52783203 81.19580078 C63.82271511 82.78273046 65.11290478 84.37348737 66.40234375 85.96484375 C74.66270412 96.13718627 83.19020626 106.07744554 91.99609375 115.78125 C93.81311982 117.79308393 95.59944392 119.82660434 97.375 121.875 C103.13622736 128.48580928 109.12751195 134.89557805 115.08203125 141.33203125 C115.83081543 142.14365723 115.83081543 142.14365723 116.59472656 142.97167969 C117.55193262 144.00913057 118.51083904 145.04501596 119.47167969 146.07910156 C121.53058169 148.31251273 123.30916335 150.46374503 125 153 C123.68 153 122.36 153 121 153 C121 152.34 121 151.68 121 151 C120.01 150.67 119.02 150.34 118 150 C118 149.34 118 148.68 118 148 C117.34 148 116.68 148 116 148 C115.01 145.525 115.01 145.525 114 143 C113.34 143 112.68 143 112 143 C112 142.01 112 141.02 112 140 C111.38125 139.690625 110.7625 139.38125 110.125 139.0625 C108.75 138.375 107.375 137.6875 106 137 C106 136.34 106 135.68 106 135 C105.34 135 104.68 135 104 135 C104 134.01 104 133.02 104 132 C103.34 132 102.68 132 102 132 C102 131.34 102 130.68 102 130 C101.01 129.67 100.02 129.34 99 129 C99 128.34 99 127.68 99 127 C98.34 127 97.68 127 97 127 C97 126.01 97 125.02 97 124 C96.38125 123.9175 95.7625 123.835 95.125 123.75 C93 123 93 123 91.75 120.9375 C91.5025 120.298125 91.255 119.65875 91 119 C90.34 119 89.68 119 89 119 C89 118.01 89 117.02 89 116 C88.34 116 87.68 116 87 116 C87 115.34 87 114.68 87 114 C86.34 114 85.68 114 85 114 C85 113.01 85 112.02 85 111 C84.34 111 83.68 111 83 111 C83 110.34 83 109.68 83 109 C81.515 108.505 81.515 108.505 80 108 C80 107.34 80 106.68 80 106 C79.34 106 78.68 106 78 106 C78 105.01 78 104.02 78 103 C77.34 103 76.68 103 76 103 C76 102.34 76 101.68 76 101 C75.34 101 74.68 101 74 101 C74 100.01 74 99.02 74 98 C73.34 98 72.68 98 72 98 C72 97.01 72 96.02 72 95 C71.34 95 70.68 95 70 95 C70 94.34 70 93.68 70 93 C69.34 93 68.68 93 68 93 C68 92.01 68 91.02 68 90 C67.34 90 66.68 90 66 90 C65.34 88.35 64.68 86.7 64 85 C63.01 85 62.02 85 61 85 C61 84.01 61 83.02 61 82 C60.34 82 59.68 82 59 82 C59 81.34 59 80.68 59 80 C58.34 80 57.68 80 57 80 C55.1953125 78.0234375 55.1953125 78.0234375 53.125 75.375 C52.41085938 74.46234375 51.69671875 73.5496875 50.9609375 72.609375 C49.48394098 70.64396927 48.08006843 68.6892662 46.75 66.625 C45.16127318 64.03752382 45.16127318 64.03752382 43.30078125 62.3671875 C40.01925101 58.99094416 37.27080088 55.2543627 34.4375 51.5 C33.86064453 50.74074219 33.28378906 49.98148437 32.68945312 49.19921875 C31.12269072 47.13550172 29.5594459 45.06924982 28 43 C27.44320557 42.29939453 26.88641113 41.59878906 26.31274414 40.87695312 C25 39 25 39 25 37 C24.34 37 23.68 37 23 37 C23 36.34 23 35.68 23 35 C22.34 35 21.68 35 21 35 C21 34.01 21 33.02 21 32 C20.34 32 19.68 32 19 32 C19 31.01 19 30.02 19 29 C18.34 29 17.68 29 17 29 C17 28.34 17 27.68 17 27 C16.34 27 15.68 27 15 27 C15 26.01 15 25.02 15 24 C14.34 24 13.68 24 13 24 C13 23.01 13 22.02 13 21 C12.34 21 11.68 21 11 21 C10.34 18.69 9.68 16.38 9 14 C8.34 14 7.68 14 7 14 C7 13.01 7 12.02 7 11 C6.34 11 5.68 11 5 11 C3.7109375 9.35546875 3.7109375 9.35546875 2.375 7.1875 C1.92898437 6.47980469 1.48296875 5.77210938 1.0234375 5.04296875 C0 3 0 3 0 0 Z " fill="#FFF9F9" transform="translate(85,462)"/>
<path d="M0 0 C0.33 0 0.66 0 1 0 C1.01981934 0.9386792 1.03963867 1.8773584 1.06005859 2.84448242 C1.51118069 23.61758084 2.33822111 44.2846079 4 65 C3.34 65 2.68 65 2 65 C1.17826854 62.08568112 0.83444298 59.39778681 0.71875 56.375 C0.68136719 55.50359375 0.64398438 54.6321875 0.60546875 53.734375 C0.53515625 51.91145833 0.46484375 50.08854167 0.39453125 48.265625 C0.35714844 47.39421875 0.31976563 46.5228125 0.28125 45.625 C0.25095703 44.83351562 0.22066406 44.04203125 0.18945312 43.2265625 C0.07350913 41.04447664 0.07350913 41.04447664 -0.50927734 39.17773438 C-1.23014967 35.97863929 -1.14240105 32.79326643 -1.1328125 29.53125 C-1.13376923 28.813927 -1.13472595 28.096604 -1.13571167 27.35754395 C-1.13639056 25.84464429 -1.13455658 24.33174168 -1.13037109 22.81884766 C-1.1250187 20.50807123 -1.1303259 18.19748916 -1.13671875 15.88671875 C-1.13605792 14.41406207 -1.13477665 12.94140552 -1.1328125 11.46875 C-1.13483673 10.78010864 -1.13686096 10.09146729 -1.13894653 9.38195801 C-1.12301232 6.10897984 -1.00395078 3.130492 0 0 Z " fill="#FFF9F9" transform="translate(10,202)"/>
<path d="M0 0 C2.24653821 2.8205543 3.87391684 5.58832491 5.3828125 8.859375 C5.82391357 9.80337158 6.26501465 10.74736816 6.71948242 11.7199707 C7.18330322 12.71988037 7.64712402 13.71979004 8.125 14.75 C11.90052116 22.7935016 15.85137313 30.64233694 20.35791016 38.30175781 C23 42.81679849 23 42.81679849 23 45 C22.34 45 21.68 45 21 45 C21 44.34 21 43.68 21 43 C20.34 43 19.68 43 19 43 C18.02890359 41.05780718 17.05818268 39.11544495 16.08984375 37.171875 C15.15822495 35.31531568 14.20616707 33.4690365 13.25 31.625 C12 29 12 29 12 27 C11.34 27 10.68 27 10 27 C10 25.35 10 23.7 10 22 C9.34 22 8.68 22 8 22 C8 21.01 8 20.02 8 19 C7.34 19 6.68 19 6 19 C6 17.35 6 15.7 6 14 C5.34 14 4.68 14 4 14 C2.74335022 11.09399739 2 9.20395416 2 6 C1.34 6 0.68 6 0 6 C0 4.02 0 2.04 0 0 Z " fill="#FFF8F8" transform="translate(54,404)"/>
<path d="M0 0 C1.32 0 2.64 0 4 0 C4 0.66 4 1.32 4 2 C5.0828125 2.185625 5.0828125 2.185625 6.1875 2.375 C8.95721894 2.9904931 11.3970354 3.88444374 14 5 C14 5.66 14 6.32 14 7 C16.97 7.99 19.94 8.98 23 10 C23 10.99 23 11.98 23 13 C24.32 13 25.64 13 27 13 C27 13.66 27 14.32 27 15 C27.928125 15.4640625 27.928125 15.4640625 28.875 15.9375 C30.25 16.625 31.625 17.3125 33 18 C33 18.99 33 19.98 33 21 C30.3094301 19.70334428 27.80450029 18.28921226 25.3125 16.64453125 C24.61890381 16.18997559 23.92530762 15.73541992 23.21069336 15.26708984 C22.48116455 14.7870752 21.75163574 14.30706055 21 13.8125 C14.78050874 9.74372393 8.51044635 5.87968668 2.02734375 2.2421875 C1.35832031 1.83226562 0.68929688 1.42234375 0 1 C0 0.67 0 0.34 0 0 Z " fill="#FFF9F9" transform="translate(288,49)"/>
<path d="M0 0 C1.99737956 2.99606933 3.15954883 5.71669991 4.4609375 9.06640625 C4.93273438 10.27490234 5.40453125 11.48339844 5.890625 12.72851562 C6.3855451 14.00646069 6.88033603 15.28445578 7.375 16.5625 C7.86164055 17.81328284 8.34861654 19.06393522 8.8359375 20.31445312 C9.78177568 22.74201878 10.72678557 25.16990735 11.67089844 27.59814453 C13.42049216 32.07625601 15.20239229 36.54097382 17 41 C16.01 41 15.02 41 14 41 C13.32404685 39.58774074 12.65959941 38.16997095 12 36.75 C11.62875 35.96109375 11.2575 35.1721875 10.875 34.359375 C10 32 10 32 10 28 C9.34 28 8.68 28 8 28 C6.57741188 24.17679443 5.75957724 21.08718695 6 17 C5.34 17 4.68 17 4 17 C4 15.35 4 13.7 4 12 C3.34 12 2.68 12 2 12 C2 10.35 2 8.7 2 7 C1.34 7 0.68 7 0 7 C0 4.69 0 2.38 0 0 Z " fill="#FFF5F5" transform="translate(35,358)"/>
<path d="M0 0 C1.20462891 0.01401855 1.20462891 0.01401855 2.43359375 0.02832031 C3.75230469 0.03605469 3.75230469 0.03605469 5.09765625 0.04394531 C6.01289062 0.06457031 6.928125 0.08519531 7.87109375 0.10644531 C8.78632812 0.11160156 9.7015625 0.11675781 10.64453125 0.12207031 C17.40590568 0.20138262 17.40590568 0.20138262 20.87109375 1.35644531 C20.87109375 2.01644531 20.87109375 2.67644531 20.87109375 3.35644531 C12.29109375 3.35644531 3.71109375 3.35644531 -5.12890625 3.35644531 C-2.12890625 0.35644531 -2.12890625 0.35644531 0 0 Z " fill="#FFF1F1" transform="translate(720.12890625,16.6435546875)"/>
<path d="M0 0 C3.3 0 6.6 0 10 0 C10.33 0.99 10.66 1.98 11 3 C13.64 3 16.28 3 19 3 C19 3.66 19 4.32 19 5 C21.97 5.495 21.97 5.495 25 6 C25 6.66 25 7.32 25 8 C26.65 8 28.3 8 30 8 C30 8.99 30 9.98 30 11 C20 7.66666667 10 4.33333333 0 1 C0 0.67 0 0.34 0 0 Z " fill="#FFF5F5" transform="translate(762,22)"/>
<path d="M0 0 C1.98 0 3.96 0 6 0 C6 0.66 6 1.32 6 2 C8.97 2.495 8.97 2.495 12 3 C12 3.66 12 4.32 12 5 C13.65 5.33 15.3 5.66 17 6 C17 6.66 17 7.32 17 8 C18.32 8 19.64 8 21 8 C21 8.66 21 9.32 21 10 C22.32 10.33 23.64 10.66 25 11 C25 11.66 25 12.32 25 13 C25.66 13 26.32 13 27 13 C26.67 13.99 26.34 14.98 26 16 C25.12859375 15.41992188 24.2571875 14.83984375 23.359375 14.2421875 C15.78782709 9.2575317 8.22673787 4.8421578 0 1 C0 0.67 0 0.34 0 0 Z " fill="#FFF8F8" transform="translate(792,33)"/>
<path d="M0 0 C3.12498063 -0.02895976 6.2499269 -0.04678483 9.375 -0.0625 C10.70917969 -0.07506836 10.70917969 -0.07506836 12.0703125 -0.08789062 C13.34648437 -0.09272461 13.34648437 -0.09272461 14.6484375 -0.09765625 C15.43395996 -0.10289307 16.21948242 -0.10812988 17.02880859 -0.11352539 C19 0 19 0 21 1 C21 1.66 21 2.32 21 3 C13.74 3 6.48 3 -1 3 C-0.67 2.01 -0.34 1.02 0 0 Z " fill="#FFF2F2" transform="translate(161,17)"/>
<path d="M0 0 C0.99 0 1.98 0 3 0 C1.54254576 3.36335594 -0.31117854 5.54534005 -2.9140625 8.109375 C-3.67460938 8.86347656 -4.43515625 9.61757812 -5.21875 10.39453125 C-6.0128125 11.17183594 -6.806875 11.94914062 -7.625 12.75 C-8.42679688 13.54277344 -9.22859375 14.33554688 -10.0546875 15.15234375 C-12.03202846 17.10614493 -14.01388909 19.05512103 -16 21 C-16 18 -16 18 -15 16 C-14.34 16 -13.68 16 -13 16 C-13 15.01 -13 14.02 -13 13 C-12.34 13 -11.68 13 -11 13 C-11 12.34 -11 11.68 -11 11 C-9.625 9.375 -9.625 9.375 -8 8 C-7.34 8 -6.68 8 -6 8 C-6 7.34 -6 6.68 -6 6 C-4.68 5.67 -3.36 5.34 -2 5 C-2 4.34 -2 3.68 -2 3 C-1.34 3 -0.68 3 0 3 C0 2.01 0 1.02 0 0 Z M-19 21 C-18.01 21.495 -18.01 21.495 -17 22 C-17.99 22.495 -17.99 22.495 -19 23 C-19 22.34 -19 21.68 -19 21 Z " fill="#FFCDCD" transform="translate(539,96)"/>
<path d="M0 0 C2.20797361 2.20797361 2.59757579 3.41458345 3.47265625 6.359375 C3.73240234 7.22820312 3.99214844 8.09703125 4.25976562 8.9921875 C4.52466797 9.90226562 4.78957031 10.81234375 5.0625 11.75 C5.33126953 12.64460938 5.60003906 13.53921875 5.87695312 14.4609375 C7.20583157 18.95460128 8.37547982 23.34308408 9 28 C8.01 27.67 7.02 27.34 6 27 C4.34950283 22.56971812 3.77026859 18.70949382 4 14 C3.34 14 2.68 14 2 14 C1.855625 12.865625 1.71125 11.73125 1.5625 10.5625 C1.38828522 7.19222799 1.38828522 7.19222799 0 6 C-0.04080783 4.00041636 -0.04254356 1.99954746 0 0 Z " fill="#FFF1F1" transform="translate(24,324)"/>
<path d="M0 0 C5.19209404 -0.21192221 9.126739 0.4087311 14 2 C14 2.99 14 3.98 14 5 C16.31 5 18.62 5 21 5 C21 5.99 21 6.98 21 8 C16.31196344 7.26951699 12.09114445 5.63363115 7.6875 3.9375 C6.94693359 3.65583984 6.20636719 3.37417969 5.44335938 3.08398438 C3.62757345 2.39281425 1.81360101 1.69688311 0 1 C0 0.67 0 0.34 0 0 Z " fill="#FFF4F4" transform="translate(250,33)"/>
<path d="M0 0 C1.98 0 3.96 0 6 0 C6 0.66 6 1.32 6 2 C7.65 2 9.3 2 11 2 C11.33 2.99 11.66 3.98 12 5 C13.65 5 15.3 5 17 5 C17 5.99 17 6.98 17 8 C11.00067626 6.1668733 5.55079437 3.92678249 0 1 C0 0.67 0 0.34 0 0 Z " fill="#FFF8F8" transform="translate(271,41)"/>
<path d="M0 0 C3.63 0 7.26 0 11 0 C11 0.66 11 1.32 11 2 C12.093125 1.979375 13.18625 1.95875 14.3125 1.9375 C18 2 18 2 21 3 C21 3.66 21 4.32 21 5 C16.12689995 4.35401634 11.36868161 3.49028264 6.5625 2.4375 C5.32628906 2.16808594 4.09007812 1.89867188 2.81640625 1.62109375 C1.42228516 1.31365234 1.42228516 1.31365234 0 1 C0 0.67 0 0.34 0 0 Z " fill="#FFF6F6" transform="translate(220,25)"/>
<path d="M0 0 C2.31242092 2.16323247 4.0156396 4.37647804 5.6875 7.0625 C6.12449219 7.75472656 6.56148438 8.44695312 7.01171875 9.16015625 C8 11 8 11 8 13 C7.34 13 6.68 13 6 13 C6 12.34 6 11.68 6 11 C5.34 11 4.68 11 4 11 C4 10.01 4 9.02 4 8 C3.34 8 2.68 8 2 8 C0.23537317 4.91190305 0 3.76687864 0 0 Z " fill="#FFF7F7" transform="translate(77,449)"/>
<path d="M0 0 C2.29109597 -0.08075665 4.58299267 -0.13907731 6.875 -0.1875 C8.78925781 -0.23970703 8.78925781 -0.23970703 10.7421875 -0.29296875 C11.81726563 -0.19628906 12.89234375 -0.09960938 14 0 C14.66 0.99 15.32 1.98 16 3 C10.72 2.34 5.44 1.68 0 1 C0 0.67 0 0.34 0 0 Z " fill="#FFF2F2" transform="translate(204,22)"/>
<path d="M0 0 C1.8871875 0.0309375 1.8871875 0.0309375 3.8125 0.0625 C3.8125 0.3925 3.8125 0.7225 3.8125 1.0625 C-0.3071377 2.35493536 -3.85581683 3.32502625 -8.1875 3.0625 C-6.45706736 -0.39836529 -3.47359009 -0.0569441 0 0 Z " fill="#FFF3F3" transform="translate(661.1875,26.9375)"/>
</svg>
