<?xml version="1.0" encoding="UTF-8"?>
<svg version="1.1" xmlns="http://www.w3.org/2000/svg" width="892" height="812">
<path d="M0 0 C3.12498063 -0.02895976 6.2499269 -0.04678483 9.375 -0.0625 C10.70917969 -0.07506836 10.70917969 -0.07506836 12.0703125 -0.08789062 C12.92109375 -0.09111328 13.771875 -0.09433594 14.6484375 -0.09765625 C15.43395996 -0.10289307 16.21948242 -0.10812988 17.02880859 -0.11352539 C19 0 19 0 21 1 C21 1.66 21 2.32 21 3 C27.93 3 34.86 3 42 3 C42 3.66 42 4.32 42 5 C47.28 5 52.56 5 58 5 C58.33 5.99 58.66 6.98 59 8 C59.76183594 7.96519531 60.52367187 7.93039063 61.30859375 7.89453125 C68.17200139 7.71459172 73.66535055 8.31257296 80 11 C80 11.66 80 12.32 80 13 C82.64 13 85.28 13 88 13 C88.33 13.66 88.66 14.32 89 15 C90.89533342 15.46523063 90.89533342 15.46523063 93.0625 15.625 C94.361875 15.74875 95.66125 15.8725 97 16 C97 16.66 97 17.32 97 18 C98.98 18 100.96 18 103 18 C103.33 18.99 103.66 19.98 104 21 C104.94875 20.95875 105.8975 20.9175 106.875 20.875 C110 21 110 21 112 23 C114.06874034 23.6425235 114.06874034 23.6425235 116 24 C116 24.66 116 25.32 116 26 C117.65 26 119.3 26 121 26 C121.33 26.99 121.66 27.98 122 29 C123.65 29 125.3 29 127 29 C127 29.99 127 30.98 127 32 C128.65 32 130.3 32 132 32 C132 32.66 132 33.32 132 34 C133.65 34.33 135.3 34.66 137 35 C137 35.66 137 36.32 137 37 C138.32 37 139.64 37 141 37 C141 37.66 141 38.32 141 39 C142.65 39.33 144.3 39.66 146 40 C146 40.66 146 41.32 146 42 C147.32 42 148.64 42 150 42 C150 42.99 150 43.98 150 45 C151.32 45 152.64 45 154 45 C154 45.66 154 46.32 154 47 C155.32 47.33 156.64 47.66 158 48 C158 48.66 158 49.32 158 50 C158.66 50 159.32 50 160 50 C160 50.99 160 51.98 160 53 C161.65 53 163.3 53 165 53 C165 53.66 165 54.32 165 55 C166.32 55.33 167.64 55.66 169 56 C169 56.66 169 57.32 169 58 C170.32 58.33 171.64 58.66 173 59 C173 59.66 173 60.32 173 61 C173.66 61 174.32 61 175 61 C175 61.66 175 62.32 175 63 C176.32 63.33 177.64 63.66 179 64 C179 64.66 179 65.32 179 66 C179.639375 66.268125 180.27875 66.53625 180.9375 66.8125 C183 68 183 68 184 71 C185.32 71 186.64 71 188 71 C188 71.99 188 72.98 188 74 C188.66 74 189.32 74 190 74 C190 74.66 190 75.32 190 76 C191.32 76.33 192.64 76.66 194 77 C194 77.66 194 78.32 194 79 C194.66 79 195.32 79 196 79 C196 79.99 196 80.98 196 82 C196.66 82 197.32 82 198 82 C198 82.66 198 83.32 198 84 C199.32 84.33 200.64 84.66 202 85 C202 85.66 202 86.32 202 87 C202.99 87 203.98 87 205 87 C205 87.99 205 88.98 205 90 C205.66 90 206.32 90 207 90 C207 90.66 207 91.32 207 92 C207.66 92 208.32 92 209 92 C209 92.99 209 93.98 209 95 C210.32 95 211.64 95 213 95 C213 95.99 213 96.98 213 98 C213.66 98 214.32 98 215 98 C215 98.66 215 99.32 215 100 C215.66 100 216.32 100 217 100 C217 100.99 217 101.98 217 103 C217.99 103 218.98 103 220 103 C220.66 104.65 221.32 106.3 222 108 C222.66 108 223.32 108 224 108 C224 108.99 224 109.98 224 111 C224.66 111 225.32 111 226 111 C226 111.66 226 112.32 226 113 C226.61875 113.309375 227.2375 113.61875 227.875 113.9375 C229.25 114.625 230.625 115.3125 232 116 C232 116.99 232 117.98 232 119 C232.66 119 233.32 119 234 119 C234 119.66 234 120.32 234 121 C234.66 121 235.32 121 236 121 C236 121.99 236 122.98 236 124 C236.66 124 237.32 124 238 124 C238 124.99 238 125.98 238 127 C238.60328125 127.24878906 239.2065625 127.49757813 239.828125 127.75390625 C242.34076601 129.19551144 243.26420364 130.47493011 244.75 132.9375 C245.17796875 133.62714844 245.6059375 134.31679687 246.046875 135.02734375 C247 137 247 137 247 140 C247.66 140 248.32 140 249 140 C249 140.66 249 141.32 249 142 C249.66 142 250.32 142 251 142 C251 142.99 251 143.98 251 145 C251.66 145 252.32 145 253 145 C253 145.99 253 146.98 253 148 C253.66 148 254.32 148 255 148 C255 148.66 255 149.32 255 150 C255.66 150 256.32 150 257 150 C257 150.99 257 151.98 257 153 C257.66 153 258.32 153 259 153 C259.33 154.65 259.66 156.3 260 158 C260.66 158 261.32 158 262 158 C262 158.99 262 159.98 262 161 C262.66 161 263.32 161 264 161 C264 161.99 264 162.98 264 164 C264.66 164 265.32 164 266 164 C266 165.65 266 167.3 266 169 C266.66 169 267.32 169 268 169 C268 169.66 268 170.32 268 171 C268.66 171 269.32 171 270 171 C270 171.99 270 172.98 270 174 C270.66 174 271.32 174 272 174 C272 175.65 272 177.3 272 179 C272.66 179 273.32 179 274 179 C274 179.99 274 180.98 274 182 C274.66 182 275.32 182 276 182 C281 187.23809524 281 187.23809524 281 192 C281.66 192 282.32 192 283 192 C283 192.99 283 193.98 283 195 C283.66 195 284.32 195 285 195 C285 195.99 285 196.98 285 198 C286.32 198 287.64 198 289 198 C289.268125 197.29875 289.53625 196.5975 289.8125 195.875 C291.0681449 192.8350176 292.50235123 189.9272226 294 187 C294.66 187 295.32 187 296 187 C296.66 185.35 297.32 183.7 298 182 C298.66 182 299.32 182 300 182 C300 180.35 300 178.7 300 177 C300.66 177 301.32 177 302 177 C302 176.01 302 175.02 302 174 C302.66 174 303.32 174 304 174 C304 173.01 304 172.02 304 171 C304.66 171 305.32 171 306 171 C306 170.34 306 169.68 306 169 C306.66 169 307.32 169 308 169 C308.144375 168.236875 308.28875 167.47375 308.4375 166.6875 C309 164 309 164 310 161 C310.66 161 311.32 161 312 161 C312 160.01 312 159.02 312 158 C313.375 156.3125 313.375 156.3125 315 155 C315.66 155 316.32 155 317 155 C317 153.35 317 151.7 317 150 C317.66 150 318.32 150 319 150 C319 149.34 319 148.68 319 148 C319.66 148 320.32 148 321 148 C321 147.01 321 146.02 321 145 C321.66 145 322.32 145 323 145 C323 144.01 323 143.02 323 142 C323.66 142 324.32 142 325 142 C325 141.34 325 140.68 325 140 C325.66 140 326.32 140 327 140 C327 138.35 327 136.7 327 135 C327.66 135 328.32 135 329 135 C329 134.01 329 133.02 329 132 C329.66 132 330.32 132 331 132 C331.33 131.01 331.66 130.02 332 129 C332.66 129 333.32 129 334 129 C334 128.34 334 127.68 334 127 C334.66 127 335.32 127 336 127 C336 126.01 336 125.02 336 124 C336.66 124 337.32 124 338 124 C338 123.01 338 122.02 338 121 C338.66 121 339.32 121 340 121 C340 120.34 340 119.68 340 119 C343.46153846 116 343.46153846 116 346 116 C346 115.01 346 114.02 346 113 C346.66 113 347.32 113 348 113 C348 112.34 348 111.68 348 111 C348.66 111 349.32 111 350 111 C350 110.01 350 109.02 350 108 C350.66 108 351.32 108 352 108 C352.33 107.01 352.66 106.02 353 105 C353.66 105 354.32 105 355 105 C355 104.34 355 103.68 355 103 C355.66 103 356.32 103 357 103 C357 102.34 357 101.68 357 101 C357.61875 100.938125 358.2375 100.87625 358.875 100.8125 C361.27761141 100.171081 361.27761141 100.171081 362.25 97.4375 C362.4975 96.633125 362.745 95.82875 363 95 C363.66 95 364.32 95 365 95 C365 94.01 365 93.02 365 92 C365.66 92 366.32 92 367 92 C367 91.34 367 90.68 367 90 C367.66 90 368.32 90 369 90 C369.33 89.01 369.66 88.02 370 87 C370.66 87 371.32 87 372 87 C372 86.34 372 85.68 372 85 C373.32 84.67 374.64 84.34 376 84 C376 83.34 376 82.68 376 82 C376.66 82 377.32 82 378 82 C378 81.01 378 80.02 378 79 C379.485 78.505 379.485 78.505 381 78 C381.33 77.34 381.66 76.68 382 76 C382.66 76 383.32 76 384 76 C384 75.34 384 74.68 384 74 C384.66 74 385.32 74 386 74 C386.33 73.01 386.66 72.02 387 71 C387.99 71 388.98 71 390 71 C390.33 70.01 390.66 69.02 391 68 C391.66 68 392.32 68 393 68 C393 67.34 393 66.68 393 66 C393.66 66 394.32 66 395 66 C395 65.34 395 64.68 395 64 C396.32 63.67 397.64 63.34 399 63 C399 62.34 399 61.68 399 61 C400.32 61 401.64 61 403 61 C403 60.01 403 59.02 403 58 C403.66 58 404.32 58 405 58 C405.33 57.01 405.66 56.02 406 55 C406.99 55 407.98 55 409 55 C409 54.34 409 53.68 409 53 C410.65 53 412.3 53 414 53 C414 52.01 414 51.02 414 50 C414.66 50 415.32 50 416 50 C416 49.34 416 48.68 416 48 C417.32 47.67 418.64 47.34 420 47 C420 46.34 420 45.68 420 45 C421.32 45 422.64 45 424 45 C424 44.01 424 43.02 424 42 C428.455 40.515 428.455 40.515 433 39 C433 38.34 433 37.68 433 37 C434.65 37 436.3 37 438 37 C438.33 36.01 438.66 35.02 439 34 C440.32 34 441.64 34 443 34 C443 33.34 443 32.68 443 32 C444.65 32 446.3 32 448 32 C448 31.01 448 30.02 448 29 C449.98 29 451.96 29 454 29 C454 28.01 454 27.02 454 26 C457.61973402 24.68373308 460.09567131 24 464 24 C464.33 23.01 464.66 22.02 465 21 C466.98 21 468.96 21 471 21 C471 20.34 471 19.68 471 19 C475.92984325 16.96006486 479.57960425 15.59347032 485 16 C485.33 15.01 485.66 14.02 486 13 C487.6396875 12.814375 487.6396875 12.814375 489.3125 12.625 C493.07381802 12.24535199 493.07381802 12.24535199 496 10 C498.32914823 9.63858045 500.66253478 9.30300475 503 9 C503.33 8.67 503.66 8.34 504 8 C506.18639453 7.92741054 508.37500389 7.91626217 510.5625 7.9375 C512.35880859 7.95103516 512.35880859 7.95103516 514.19140625 7.96484375 C515.58166016 7.98224609 515.58166016 7.98224609 517 8 C517.33 7.01 517.66 6.02 518 5 C522.62 5 527.24 5 532 5 C532 4.34 532 3.68 532 3 C539.59 3 547.18 3 555 3 C555 2.34 555 1.68 555 1 C559.00299872 -1.00149936 564.09916731 -0.18485209 568.5 -0.1875 C569.57121094 -0.19974609 570.64242187 -0.21199219 571.74609375 -0.22460938 C572.76832031 -0.22654297 573.79054688 -0.22847656 574.84375 -0.23046875 C575.78412109 -0.23457764 576.72449219 -0.23868652 577.69335938 -0.24291992 C580 0 580 0 582 2 C584.03060659 2.36894582 584.03060659 2.36894582 586.3515625 2.4140625 C587.20234375 2.45273438 588.053125 2.49140625 588.9296875 2.53125 C589.81914063 2.5621875 590.70859375 2.593125 591.625 2.625 C592.97078125 2.68300781 592.97078125 2.68300781 594.34375 2.7421875 C596.5622927 2.83659357 598.78082403 2.92216748 601 3 C601 3.66 601 4.32 601 5 C604.3 5 607.6 5 611 5 C611.33 5.99 611.66 6.98 612 8 C614.64 8 617.28 8 620 8 C620 8.66 620 9.32 620 10 C620.886875 10.12375 621.77375 10.2475 622.6875 10.375 C625.70387502 10.94412736 628.20326054 11.76614436 631 13 C631 13.99 631 14.98 631 16 C632.98 16 634.96 16 637 16 C637 16.66 637 17.32 637 18 C638.98 18.33 640.96 18.66 643 19 C643 19.66 643 20.32 643 21 C644.65 21 646.3 21 648 21 C648 21.99 648 22.98 648 24 C649.32 24 650.64 24 652 24 C652 24.66 652 25.32 652 26 C653.32 26 654.64 26 656 26 C656 26.99 656 27.98 656 29 C657.32 29 658.64 29 660 29 C660 29.99 660 30.98 660 32 C660.8971875 32.185625 660.8971875 32.185625 661.8125 32.375 C664 33 664 33 667 35 C667 35.66 667 36.32 667 37 C667.66 37 668.32 37 669 37 C669 37.66 669 38.32 669 39 C670.32 39.33 671.64 39.66 673 40 C673 40.66 673 41.32 673 42 C673.66 42 674.32 42 675 42 C675 42.99 675 43.98 675 45 C675.66 45 676.32 45 677 45 C677 45.66 677 46.32 677 47 C677.61875 47.2475 678.2375 47.495 678.875 47.75 C681.35068687 49.20628639 681.95125002 50.37812506 683 53 C683.66 53 684.32 53 685 53 C687.04169485 55.90548882 688 57.40142046 688 61 C688.66 61 689.32 61 690 61 C690 61.66 690 62.32 690 63 C690.66 63 691.32 63 692 63 C692 63.99 692 64.98 692 66 C692.66 66 693.32 66 694 66 C694 66.99 694 67.98 694 69 C694.66 69 695.32 69 696 69 C696 70.65 696 72.3 696 74 C696.66 74 697.32 74 698 74 C698 74.66 698 75.32 698 76 C698.66 76 699.32 76 700 76 C700.8466034 77.38782485 701.67675339 78.78569397 702.5 80.1875 C702.9640625 80.96480469 703.428125 81.74210937 703.90625 82.54296875 C705.10729647 85.24103386 705.20741043 87.0806982 705 90 C705.66 90 706.32 90 707 90 C707 91.65 707 93.3 707 95 C707.66 95 708.32 95 709 95 C711.81849506 100.54891215 713.5326514 104.741346 713 111 C713.66 111 714.32 111 715 111 C715 113.64 715 116.28 715 119 C715.66 119 716.32 119 717 119 C717 122.3 717 125.6 717 129 C717.66 129 718.32 129 719 129 C719.04898438 129.90363281 719.09796875 130.80726563 719.1484375 131.73828125 C719.22320313 132.91777344 719.29796875 134.09726563 719.375 135.3125 C719.44460938 136.48425781 719.51421875 137.65601563 719.5859375 138.86328125 C719.78613747 142.15699887 719.78613747 142.15699887 722 145 C722.2764449 147.69035041 722.4641488 150.3037379 722.5625 153 C722.75044259 158.57912011 722.75044259 158.57912011 724 164 C724.13827771 165.96742816 724.22495201 167.93867843 724.28125 169.91015625 C724.31863281 171.06451172 724.35601563 172.21886719 724.39453125 173.40820312 C724.4649564 175.84830404 724.53526854 178.28840823 724.60546875 180.72851562 C724.64285156 181.88158203 724.68023438 183.03464844 724.71875 184.22265625 C724.74904297 185.28234619 724.77933594 186.34203613 724.81054688 187.43383789 C724.8356482 189.98808453 724.8356482 189.98808453 726 192 C726.09699846 193.93557678 726.13076201 195.87449537 726.1328125 197.8125 C726.13410156 198.97007812 726.13539063 200.12765625 726.13671875 201.3203125 C726.13285156 202.53460938 726.12898437 203.74890625 726.125 205 C726.12886719 206.21429688 726.13273438 207.42859375 726.13671875 208.6796875 C726.13542969 209.83726562 726.13414062 210.99484375 726.1328125 212.1875 C726.13112061 213.78658203 726.13112061 213.78658203 726.12939453 215.41796875 C726 218 726 218 725 220 C724.85950149 221.63076047 724.77429799 223.26648497 724.71875 224.90234375 C724.66267578 226.36124023 724.66267578 226.36124023 724.60546875 227.84960938 C724.57066406 228.86861328 724.53585937 229.88761719 724.5 230.9375 C724.4311112 232.94675672 724.3583642 234.9558859 724.28125 236.96484375 C724.25095703 237.8580835 724.22066406 238.75132324 724.18945312 239.67163086 C724 242 724 242 723 245 C722.74101721 248.42792492 722.55758845 251.84994315 722.39453125 255.28320312 C722.10079169 260.79841662 722.10079169 260.79841662 721 263 C720.34 263 719.68 263 719 263 C719.01160156 264.07121094 719.02320313 265.14242188 719.03515625 266.24609375 C719.04453299 267.64322743 719.05363331 269.04036299 719.0625 270.4375 C719.07087891 271.14455078 719.07925781 271.85160156 719.08789062 272.58007812 C719.09653588 274.38693559 719.05220011 276.19387603 719 278 C718.67 278.33 718.34 278.66 718 279 C717.84025503 280.5175772 717.72264738 282.03966579 717.625 283.5625 C717.25158642 287.79652821 716.32928087 291.14841307 714.6953125 295.04296875 C713.54198362 298.289136 713.35944617 301.58526135 713 305 C712.67 305.33 712.34 305.66 712 306 C711.835 307.155 711.67 308.31 711.5 309.5 C711 313 711 313 710 314 C709.63239269 316.32817964 709.29758419 318.6618385 709 321 C708.34 321 707.68 321 707 321 C707 322.98 707 324.96 707 327 C706.34 327 705.68 327 705 327 C705.0928125 328.485 705.0928125 328.485 705.1875 330 C705.21491645 334.46888211 703.7208227 337.91304608 702 342 C701.34 342 700.68 342 700 342 C700 343.98 700 345.96 700 348 C699.34 348 698.68 348 698 348 C698 349.65 698 351.3 698 353 C697.34 353 696.68 353 696 353 C696 354.65 696 356.3 696 358 C695.34 358 694.68 358 694 358 C694 359.98 694 361.96 694 364 C693.34 364 692.68 364 692 364 C692 365.65 692 367.3 692 369 C691.34 369 690.68 369 690 369 C690 370.65 690 372.3 690 374 C689.34 374 688.68 374 688 374 C687.896875 374.66 687.79375 375.32 687.6875 376 C686.80786436 379.83841009 685.43030104 383.33096691 684 387 C683.01 387 682.02 387 681 387 C681 388.98 681 390.96 681 393 C680.34 393 679.68 393 679 393 C679 394.65 679 396.3 679 398 C678.34 398 677.68 398 677 398 C677 398.99 677 399.98 677 401 C676.34 401 675.68 401 675 401 C675 402.65 675 404.3 675 406 C674.34 406 673.68 406 673 406 C672.855625 406.763125 672.71125 407.52625 672.5625 408.3125 C672 411 672 411 671 414 C670.34 414 669.68 414 669 414 C668.855625 414.763125 668.71125 415.52625 668.5625 416.3125 C668 419 668 419 667 422 C666.34 422 665.68 422 665 422 C664.67 423.65 664.34 425.3 664 427 C663.34 427 662.68 427 662 427 C662 427.99 662 428.98 662 430 C661.34 430 660.68 430 660 430 C660 430.66 660 431.32 660 432 C659.34 432 658.68 432 658 432 C658 433.65 658 435.3 658 437 C657.34 437 656.68 437 656 437 C656 437.99 656 438.98 656 440 C655.34 440 654.68 440 654 440 C653.855625 440.5775 653.71125 441.155 653.5625 441.75 C653.04166667 443.83333333 652.52083333 445.91666667 652 448 C651.34 448 650.68 448 650 448 C650 448.99 650 449.98 650 451 C649.34 451 648.68 451 648 451 C648 451.66 648 452.32 648 453 C647.34 453 646.68 453 646 453 C646 453.99 646 454.98 646 456 C645.34 456 644.68 456 644 456 C643.67 456.99 643.34 457.98 643 459 C642.34 459 641.68 459 641 459 C640.855625 459.598125 640.71125 460.19625 640.5625 460.8125 C640.1127561 462.56150404 639.57107659 464.28677023 639 466 C638.34 466 637.68 466 637 466 C637 466.99 637 467.98 637 469 C636.34 469 635.68 469 635 469 C635 469.99 635 470.98 635 472 C634.34 472 633.68 472 633 472 C633 472.66 633 473.32 633 474 C632.34 474 631.68 474 631 474 C631 474.99 631 475.98 631 477 C630.34 477 629.68 477 629 477 C629 477.99 629 478.98 629 480 C628.34 480 627.68 480 627 480 C627 480.66 627 481.32 627 482 C626.34 482 625.68 482 625 482 C625 482.99 625 483.98 625 485 C624.01 485 623.02 485 622 485 C622 485.99 622 486.98 622 488 C621.34 488 620.68 488 620 488 C620 488.66 620 489.32 620 490 C619.34 490 618.68 490 618 490 C618 490.99 618 491.98 618 493 C617.34 493 616.68 493 616 493 C616 493.99 616 494.98 616 496 C615.34 496 614.68 496 614 496 C613.7421875 496.71542969 613.484375 497.43085938 613.21875 498.16796875 C611.92615235 501.17160111 610.3722291 503.63505372 608.5 506.3125 C607.8915625 507.19550781 607.283125 508.07851563 606.65625 508.98828125 C606.1096875 509.65214844 605.563125 510.31601562 605 511 C604.34 511 603.68 511 603 511 C603 511.99 603 512.98 603 514 C602.34 514 601.68 514 601 514 C600.34 515.65 599.68 517.3 599 519 C598.34 519 597.68 519 597 519 C597 519.99 597 520.98 597 522 C596.34 522 595.68 522 595 522 C594.34 523.65 593.68 525.3 593 527 C592.34 527 591.68 527 591 527 C590.731875 527.639375 590.46375 528.27875 590.1875 528.9375 C589 531 589 531 586 532 C586 532.99 586 533.98 586 535 C585.34 535 584.68 535 584 535 C584 535.66 584 536.32 584 537 C583.34 537 582.68 537 582 537 C582 537.99 582 538.98 582 540 C578.66666667 543 578.66666667 543 576 543 C576 543.99 576 544.98 576 546 C575.34 546 574.68 546 574 546 C574 546.66 574 547.32 574 548 C573.34 548 572.68 548 572 548 C572 548.99 572 549.98 572 551 C571.34 551 570.68 551 570 551 C569.34 552.65 568.68 554.3 568 556 C567.01 556 566.02 556 565 556 C565 556.99 565 557.98 565 559 C564.34 559 563.68 559 563 559 C563 559.66 563 560.32 563 561 C562.34 561 561.68 561 561 561 C561 561.99 561 562.98 561 564 C560.34 564 559.68 564 559 564 C558.7525 564.639375 558.505 565.27875 558.25 565.9375 C557 568 557 568 554.875 568.75 C553.946875 568.87375 553.946875 568.87375 553 569 C553 569.99 553 570.98 553 572 C552.34 572 551.68 572 551 572 C551 572.99 551 573.98 551 575 C550.34 575 549.68 575 549 575 C549 575.66 549 576.32 549 577 C548.01 577 547.02 577 546 577 C546 577.99 546 578.98 546 580 C545.34 580 544.68 580 544 580 C543.34 581.65 542.68 583.3 542 585 C541.34 585 540.68 585 540 585 C540 585.66 540 586.32 540 587 C539.071875 587.0928125 539.071875 587.0928125 538.125 587.1875 C535.72238859 587.828919 535.72238859 587.828919 534.75 590.5625 C534.5025 591.366875 534.255 592.17125 534 593 C533.34 593 532.68 593 532 593 C531.67 593.99 531.34 594.98 531 596 C530.34 596 529.68 596 529 596 C529 596.66 529 597.32 529 598 C528.34 598 527.68 598 527 598 C526.67 598.99 526.34 599.98 526 601 C525.01 601 524.02 601 523 601 C523 601.99 523 602.98 523 604 C522.34 604 521.68 604 521 604 C521 604.66 521 605.32 521 606 C520.34 606 519.68 606 519 606 C519 606.99 519 607.98 519 609 C518.34 609 517.68 609 517 609 C517 609.66 517 610.32 517 611 C515.68 611.33 514.36 611.66 513 612 C513 612.66 513 613.32 513 614 C512.34 614 511.68 614 511 614 C511 614.99 511 615.98 511 617 C510.01 617 509.02 617 508 617 C508 617.66 508 618.32 508 619 C507.34 619 506.68 619 506 619 C505.67 619.99 505.34 620.98 505 622 C504.01 622 503.02 622 502 622 C502 622.99 502 623.98 502 625 C501.34 625 500.68 625 500 625 C500 625.66 500 626.32 500 627 C499.34 627 498.68 627 498 627 C498 627.99 498 628.98 498 630 C497.01 630 496.02 630 495 630 C494.67 630.99 494.34 631.98 494 633 C493.34 633 492.68 633 492 633 C492 633.66 492 634.32 492 635 C491.01 635 490.02 635 489 635 C489 635.99 489 636.98 489 638 C485.66666667 641 485.66666667 641 483 641 C483 641.66 483 642.32 483 643 C482.34 643 481.68 643 481 643 C481 643.99 481 644.98 481 646 C480.34 646 479.68 646 479 646 C479 646.66 479 647.32 479 648 C478.01 648.33 477.02 648.66 476 649 C475.67 649.66 475.34 650.32 475 651 C474.34 651 473.68 651 473 651 C472.67 651.99 472.34 652.98 472 654 C470.68 654 469.36 654 468 654 C468 654.66 468 655.32 468 656 C467.34 656 466.68 656 466 656 C466 656.99 466 657.98 466 659 C465.01 659.33 464.02 659.66 463 660 C462.67 660.66 462.34 661.32 462 662 C461.34 662 460.68 662 460 662 C460 662.66 460 663.32 460 664 C459.34 664 458.68 664 458 664 C457.67 664.99 457.34 665.98 457 667 C456.01 667 455.02 667 454 667 C453.67 667.99 453.34 668.98 453 670 C452.34 670 451.68 670 451 670 C451 670.66 451 671.32 451 672 C449.68 672 448.36 672 447 672 C447 672.99 447 673.98 447 675 C446.34 675 445.68 675 445 675 C445 675.66 445 676.32 445 677 C441.53846154 680 441.53846154 680 439 680 C439 680.99 439 681.98 439 683 C436 685 436 685 433 685 C432.67 685.99 432.34 686.98 432 688 C431.34 688 430.68 688 430 688 C430 688.66 430 689.32 430 690 C428.68 690.33 427.36 690.66 426 691 C426 691.66 426 692.32 426 693 C425.34 693 424.68 693 424 693 C424 693.99 424 694.98 424 696 C422.68 696 421.36 696 420 696 C420 696.99 420 697.98 420 699 C417 701 417 701 414 701 C414 701.99 414 702.98 414 704 C413.01 704 412.02 704 411 704 C411 704.66 411 705.32 411 706 C409.68 706.33 408.36 706.66 407 707 C407 707.66 407 708.32 407 709 C406.34 709 405.68 709 405 709 C404.67 709.99 404.34 710.98 404 712 C403.01 712 402.02 712 401 712 C401 712.66 401 713.32 401 714 C400.34 714 399.68 714 399 714 C399 714.99 399 715.98 399 717 C397.68 717 396.36 717 395 717 C394.67 717.99 394.34 718.98 394 720 C393.34 720 392.68 720 392 720 C392 720.66 392 721.32 392 722 C390.68 722 389.36 722 388 722 C388 722.99 388 723.98 388 725 C387.34 725 386.68 725 386 725 C386 725.66 386 726.32 386 727 C384.68 727.33 383.36 727.66 382 728 C382 728.66 382 729.32 382 730 C381.34 730 380.68 730 380 730 C379.67 730.99 379.34 731.98 379 733 C378.01 733 377.02 733 376 733 C375.731875 733.639375 375.46375 734.27875 375.1875 734.9375 C374 737 374 737 371 738 C371 738.99 371 739.98 371 741 C369.68 741 368.36 741 367 741 C367 741.66 367 742.32 367 743 C366.34 743 365.68 743 365 743 C365 743.99 365 744.98 365 746 C361.66666667 749 361.66666667 749 359 749 C359 749.66 359 750.32 359 751 C358.34 751 357.68 751 357 751 C357 751.99 357 752.98 357 754 C356.01 754 355.02 754 354 754 C353.62875 754.9590625 353.62875 754.9590625 353.25 755.9375 C352 758 352 758 349.875 758.75 C348.946875 758.87375 348.946875 758.87375 348 759 C348 759.99 348 760.98 348 762 C347.34 762 346.68 762 346 762 C345.34 763.65 344.68 765.3 344 767 C343.01 767 342.02 767 341 767 C340.67 767.99 340.34 768.98 340 770 C339.34 770 338.68 770 338 770 C338 770.66 338 771.32 338 772 C337.34 772 336.68 772 336 772 C335.67 772.99 335.34 773.98 335 775 C334.34 775 333.68 775 333 775 C333 775.99 333 776.98 333 778 C332.34 778 331.68 778 331 778 C331 778.66 331 779.32 331 780 C330.34 780 329.68 780 329 780 C329 780.99 329 781.98 329 783 C328.34 783 327.68 783 327 783 C327 783.66 327 784.32 327 785 C326.34 785 325.68 785 325 785 C324.67 785.99 324.34 786.98 324 788 C323.01 788 322.02 788 321 788 C321 788.99 321 789.98 321 791 C320.34 791 319.68 791 319 791 C318.67 791.99 318.34 792.98 318 794 C317.34 794 316.68 794 316 794 C316 794.66 316 795.32 316 796 C314.68 796 313.36 796 312 796 C312 796.99 312 797.98 312 799 C311.34 799 310.68 799 310 799 C310 799.66 310 800.32 310 801 C308.68 801 307.36 801 306 801 C306 801.99 306 802.98 306 804 C302.37481498 805.1323081 298.96984125 805.12928795 295.1875 805.1328125 C294.53676514 805.13376923 293.88603027 805.13472595 293.21557617 805.13571167 C291.84391177 805.13639018 290.47224411 805.13455887 289.10058594 805.13037109 C287.00708774 805.12501812 284.91380407 805.13032716 282.8203125 805.13671875 C281.48437453 805.13605791 280.14843669 805.13477663 278.8125 805.1328125 C277.60207031 805.13168457 276.39164062 805.13055664 275.14453125 805.12939453 C272.55679636 805.02291165 270.45519851 804.76686877 268 804 C268 803.01 268 802.02 268 801 C266.68 801 265.36 801 264 801 C264 800.34 264 799.68 264 799 C263.34 799 262.68 799 262 799 C262 798.01 262 797.02 262 796 C260.68 796 259.36 796 258 796 C258 795.34 258 794.68 258 794 C257.01 793.67 256.02 793.34 255 793 C255 792.34 255 791.68 255 791 C254.34 791 253.68 791 253 791 C253 790.01 253 789.02 253 788 C252.38125 787.690625 251.7625 787.38125 251.125 787.0625 C249.75 786.375 248.375 785.6875 247 785 C247 784.34 247 783.68 247 783 C246.34 783 245.68 783 245 783 C245 782.01 245 781.02 245 780 C244.34 780 243.68 780 243 780 C243 779.34 243 778.68 243 778 C242.34 778 241.68 778 241 778 C241 777.01 241 776.02 241 775 C240.34 775 239.68 775 239 775 C239 774.01 239 773.02 239 772 C237.68 772 236.36 772 235 772 C235 771.34 235 770.68 235 770 C234.01 769.67 233.02 769.34 232 769 C232 768.34 232 767.68 232 767 C231.34 767 230.68 767 230 767 C229.34 765.35 228.68 763.7 228 762 C227.34 762 226.68 762 226 762 C225.67 761.34 225.34 760.68 225 760 C224.01 759.67 223.02 759.34 222 759 C222 758.34 222 757.68 222 757 C221.34 757 220.68 757 220 757 C220 756.01 220 755.02 220 754 C219.01 753.67 218.02 753.34 217 753 C217 752.34 217 751.68 217 751 C216.38125 750.855625 215.7625 750.71125 215.125 750.5625 C213 750 213 750 211 749 C211 748.01 211 747.02 211 746 C210.34 746 209.68 746 209 746 C209 745.01 209 744.02 209 743 C207.68 743 206.36 743 205 743 C205 742.34 205 741.68 205 741 C204.34 741 203.68 741 203 741 C203 740.01 203 739.02 203 738 C202.34 738 201.68 738 201 738 C201 737.34 201 736.68 201 736 C199.68 735.67 198.36 735.34 197 735 C197 734.34 197 733.68 197 733 C196.01 733 195.02 733 194 733 C194 732.01 194 731.02 194 730 C193.34 730 192.68 730 192 730 C192 729.34 192 728.68 192 728 C190.68 727.67 189.36 727.34 188 727 C188 726.34 188 725.68 188 725 C187.34 725 186.68 725 186 725 C186 724.01 186 723.02 186 722 C184.68 722 183.36 722 182 722 C182 721.34 182 720.68 182 720 C181.34 720 180.68 720 180 720 C180 719.01 180 718.02 180 717 C178.68 716.67 177.36 716.34 176 716 C176 715.34 176 714.68 176 714 C175.01 714 174.02 714 173 714 C173 713.34 173 712.68 173 712 C171.68 711.67 170.36 711.34 169 711 C169 710.34 169 709.68 169 709 C168.34 709 167.68 709 167 709 C167 708.34 167 707.68 167 707 C165.68 706.67 164.36 706.34 163 706 C163 705.34 163 704.68 163 704 C162.34 704 161.68 704 161 704 C161 703.01 161 702.02 161 701 C159.35 701 157.7 701 156 701 C156 700.34 156 699.68 156 699 C155.34 699 154.68 699 154 699 C154 698.01 154 697.02 154 696 C152.68 696 151.36 696 150 696 C150 695.01 150 694.02 150 693 C149.34 693 148.68 693 148 693 C148 692.34 148 691.68 148 691 C146.68 691 145.36 691 144 691 C144 690.01 144 689.02 144 688 C143.34 688 142.68 688 142 688 C142 687.01 142 686.02 142 685 C141.21625 684.855625 140.4325 684.71125 139.625 684.5625 C137 684 137 684 135 683 C135 682.01 135 681.02 135 680 C133.68 679.67 132.36 679.34 131 679 C131 678.34 131 677.68 131 677 C130.34 677 129.68 677 129 677 C129 676.34 129 675.68 129 675 C128.34 675 127.68 675 127 675 C127 674.01 127 673.02 127 672 C125.68 672 124.36 672 123 672 C123 671.34 123 670.68 123 670 C122.01 669.67 121.02 669.34 120 669 C120 668.34 120 667.68 120 667 C118.68 666.67 117.36 666.34 116 666 C116 665.34 116 664.68 116 664 C115.34 664 114.68 664 114 664 C114 663.34 114 662.68 114 662 C112.68 661.67 111.36 661.34 110 661 C110 660.34 110 659.68 110 659 C109.34 659 108.68 659 108 659 C108 658.01 108 657.02 108 656 C106.68 656 105.36 656 104 656 C104 655.34 104 654.68 104 654 C103.01 653.67 102.02 653.34 101 653 C101 652.34 101 651.68 101 651 C100.34 651 99.68 651 99 651 C98.67 650.34 98.34 649.68 98 649 C97.01 648.67 96.02 648.34 95 648 C95 647.34 95 646.68 95 646 C94.34 646 93.68 646 93 646 C93 645.01 93 644.02 93 643 C92.34 643 91.68 643 91 643 C91 642.34 91 641.68 91 641 C89.68 640.67 88.36 640.34 87 640 C87 639.34 87 638.68 87 638 C86.34 638 85.68 638 85 638 C85 637.01 85 636.02 85 635 C83.68 635 82.36 635 81 635 C81 634.34 81 633.68 81 633 C80.01 632.67 79.02 632.34 78 632 C78 631.34 78 630.68 78 630 C77.34 630 76.68 630 76 630 C76 629.01 76 628.02 76 627 C75.38125 626.855625 74.7625 626.71125 74.125 626.5625 C72 626 72 626 70 625 C70 624.01 70 623.02 70 622 C69.34 622 68.68 622 68 622 C67.731875 621.195625 67.46375 620.39125 67.1875 619.5625 C66.795625 618.716875 66.40375 617.87125 66 617 C65.01 616.67 64.02 616.34 63 616 C63 615.34 63 614.68 63 614 C62.01 614 61.02 614 60 614 C58.3125 612.625 58.3125 612.625 57 611 C57 610.34 57 609.68 57 609 C56.34 609 55.68 609 55 609 C55 608.01 55 607.02 55 606 C54.34 606 53.68 606 53 606 C53 605.34 53 604.68 53 604 C52.34 604 51.68 604 51 604 C51 603.01 51 602.02 51 601 C49.68 601 48.36 601 47 601 C47 600.01 47 599.02 47 598 C46.34 598 45.68 598 45 598 C45 597.34 45 596.68 45 596 C44.01 596 43.02 596 42 596 C42 595.01 42 594.02 42 593 C41.34 593 40.68 593 40 593 C38.64567325 591.68799596 37.31266518 590.35368596 36 589 C35.34 588.67 34.68 588.34 34 588 C34 587.01 34 586.02 34 585 C33.34 585 32.68 585 32 585 C32 584.34 32 583.68 32 583 C31.34 583 30.68 583 30 583 C30 582.01 30 581.02 30 580 C29.34 580 28.68 580 28 580 C28 579.01 28 578.02 28 577 C27.1646875 576.87625 27.1646875 576.87625 26.3125 576.75 C23.23811154 575.75290104 21.33757048 574.20770546 19 572 C19 571.01 19 570.02 19 569 C18.34 569 17.68 569 17 569 C17 568.34 17 567.68 17 567 C16.34 567 15.68 567 15 567 C15 566.01 15 565.02 15 564 C14.34 564 13.68 564 13 564 C12.34 562.35 11.68 560.7 11 559 C10.34 559 9.68 559 9 559 C9 558.01 9 557.02 9 556 C8.34 556 7.68 556 7 556 C7 555.34 7 554.68 7 554 C6.01 553.67 5.02 553.34 4 553 C4 552.34 4 551.68 4 551 C3.01 551 2.02 551 1 551 C-2 547.66666667 -2 547.66666667 -2 545 C-2.66 545 -3.32 545 -4 545 C-4.66 543.35 -5.32 541.7 -6 540 C-6.66 540 -7.32 540 -8 540 C-8.66 538.35 -9.32 536.7 -10 535 C-10.66 535 -11.32 535 -12 535 C-12 534.01 -12 533.02 -12 532 C-12.66 532 -13.32 532 -14 532 C-14 531.34 -14 530.68 -14 530 C-14.99 529.67 -15.98 529.34 -17 529 C-17 528.34 -17 527.68 -17 527 C-17.66 527 -18.32 527 -19 527 C-19 526.01 -19 525.02 -19 524 C-19.66 524 -20.32 524 -21 524 C-21 523.34 -21 522.68 -21 522 C-21.66 522 -22.32 522 -23 522 C-23 521.01 -23 520.02 -23 519 C-23.66 519 -24.32 519 -25 519 C-25.66 517.35 -26.32 515.7 -27 514 C-27.66 514 -28.32 514 -29 514 C-29 513.01 -29 512.02 -29 511 C-29.66 511 -30.32 511 -31 511 C-31 510.34 -31 509.68 -31 509 C-31.66 509 -32.32 509 -33 509 C-33 508.01 -33 507.02 -33 506 C-33.99 505.67 -34.98 505.34 -36 505 C-36 504.34 -36 503.68 -36 503 C-36.66 503 -37.32 503 -38 503 C-38.66 501.35 -39.32 499.7 -40 498 C-40.66 498 -41.32 498 -42 498 C-42 497.01 -42 496.02 -42 495 C-42.66 495 -43.32 495 -44 495 C-44.66 493.35 -45.32 491.7 -46 490 C-46.66 490 -47.32 490 -48 490 C-48.66 488.35 -49.32 486.7 -50 485 C-50.66 485 -51.32 485 -52 485 C-52 484.01 -52 483.02 -52 482 C-52.66 482 -53.32 482 -54 482 C-56.04169485 479.09451118 -57 477.59857954 -57 474 C-57.66 474 -58.32 474 -59 474 C-59 473.34 -59 472.68 -59 472 C-59.66 472 -60.32 472 -61 472 C-61 471.01 -61 470.02 -61 469 C-61.66 469 -62.32 469 -63 469 C-63 468.34 -63 467.68 -63 467 C-63.66 467 -64.32 467 -65 467 C-65 466.01 -65 465.02 -65 464 C-65.66 464 -66.32 464 -67 464 C-67 463.01 -67 462.02 -67 461 C-67.66 461 -68.32 461 -69 461 C-69 459.35 -69 457.7 -69 456 C-69.99 455.67 -70.98 455.34 -72 455 C-72 454.34 -72 453.68 -72 453 C-72.66 453 -73.32 453 -74 453 C-76.8394052 449.32547562 -78 447.73113419 -78 443 C-78.66 443 -79.32 443 -80 443 C-80 442.01 -80 441.02 -80 440 C-80.66 440 -81.32 440 -82 440 C-82.67154933 438.71086513 -83.33708859 437.41859796 -84 436.125 C-84.37125 435.40570313 -84.7425 434.68640625 -85.125 433.9453125 C-86 432 -86 432 -86 430 C-86.66 430 -87.32 430 -88 430 C-88 429.01 -88 428.02 -88 427 C-88.66 427 -89.32 427 -90 427 C-94.40774487 418.738041 -94.40774487 418.738041 -95 414 C-95.66 414 -96.32 414 -97 414 C-97 413.01 -97 412.02 -97 411 C-97.66 411 -98.32 411 -99 411 C-99 409.35 -99 407.7 -99 406 C-99.66 406 -100.32 406 -101 406 C-101 404.35 -101 402.7 -101 401 C-101.66 401 -102.32 401 -103 401 C-103 400.01 -103 399.02 -103 398 C-103.66 398 -104.32 398 -105 398 C-105 396.35 -105 394.7 -105 393 C-105.66 393 -106.32 393 -107 393 C-107 391.02 -107 389.04 -107 387 C-107.66 387 -108.32 387 -109 387 C-111.04169485 384.09451118 -112 382.59857954 -112 379 C-112.66 379 -113.32 379 -114 379 C-114 377.35 -114 375.7 -114 374 C-114.66 374 -115.32 374 -116 374 C-116 372.35 -116 370.7 -116 369 C-116.66 369 -117.32 369 -118 369 C-118 367.35 -118 365.7 -118 364 C-118.66 364 -119.32 364 -120 364 C-120 362.02 -120 360.04 -120 358 C-120.66 358 -121.32 358 -122 358 C-122 356.35 -122 354.7 -122 353 C-122.66 353 -123.32 353 -124 353 C-124 351.35 -124 349.7 -124 348 C-124.66 348 -125.32 348 -126 348 C-127.45184478 343.46298506 -128.23509196 339.81938524 -128 335 C-128.99 334.67 -129.98 334.34 -131 334 C-131 332.35 -131 330.7 -131 329 C-131.66 329 -132.32 329 -133 329 C-133 326.36 -133 323.72 -133 321 C-133.66 321 -134.32 321 -135 321 C-135.103125 320.01 -135.20625 319.02 -135.3125 318 C-135.81738357 314.42253931 -136.92195348 311.31666538 -138.234375 307.96484375 C-140.63466644 301.80491214 -141.26636929 296.52604765 -141 290 C-141.66 290 -142.32 290 -143 290 C-143 285.71 -143 281.42 -143 277 C-143.66 277 -144.32 277 -145 277 C-145 273.37 -145 269.74 -145 266 C-145.66 266 -146.32 266 -147 266 C-147 261.71 -147 257.42 -147 253 C-147.66 253 -148.32 253 -149 253 C-149.79023574 250.17138798 -150.16175006 247.56078642 -150.28125 244.62890625 C-150.31863281 243.80712891 -150.35601562 242.98535156 -150.39453125 242.13867188 C-150.44673828 240.8634668 -150.44673828 240.8634668 -150.5 239.5625 C-150.56935476 237.87615182 -150.64217203 236.18994186 -150.71875 234.50390625 C-150.74904297 233.75955322 -150.77933594 233.0152002 -150.81054688 232.24829102 C-150.94879134 229.98514077 -150.94879134 229.98514077 -151.50927734 227.75976562 C-152.18563008 223.95603858 -152.14264164 220.18971099 -152.1328125 216.33984375 C-152.13376923 215.51295547 -152.13472595 214.6860672 -152.13571167 213.8341217 C-152.13639017 212.09180627 -152.13455895 210.34948827 -152.13037109 208.60717773 C-152.12501134 205.94313887 -152.13033077 203.27926807 -152.13671875 200.61523438 C-152.13605804 198.91927046 -152.13477704 197.22330665 -152.1328125 195.52734375 C-152.13483673 194.73247055 -152.13686096 193.93759735 -152.13894653 193.11863708 C-152.12388945 189.56307328 -151.89798893 186.42554461 -151 183 C-150.86623216 181.15741692 -150.77668982 179.3113673 -150.71875 177.46484375 C-150.66267578 175.88026367 -150.66267578 175.88026367 -150.60546875 174.26367188 C-150.53503251 172.04232163 -150.46472045 169.82096744 -150.39453125 167.59960938 C-150.35714844 166.54451172 -150.31976563 165.48941406 -150.28125 164.40234375 C-150.25095703 163.43804443 -150.22066406 162.47374512 -150.18945312 161.48022461 C-150 159 -150 159 -149 156 C-148.34 156 -147.68 156 -147 156 C-147.01160156 154.92878906 -147.02320313 153.85757813 -147.03515625 152.75390625 C-147.04453299 151.35677257 -147.05363331 149.95963701 -147.0625 148.5625 C-147.07087891 147.85544922 -147.07925781 147.14839844 -147.08789062 146.41992188 C-147.09653588 144.61306441 -147.05220011 142.80612397 -147 141 C-146.67 140.67 -146.34 140.34 -146 140 C-145.76636119 138.15108054 -145.58696365 136.29511969 -145.4375 134.4375 C-145.35371094 133.42558594 -145.26992187 132.41367188 -145.18359375 131.37109375 C-145.12300781 130.58863281 -145.06242188 129.80617187 -145 129 C-144.34 129 -143.68 129 -143 129 C-143 125.7 -143 122.4 -143 119 C-142.34 119 -141.68 119 -141 119 C-141 116.36 -141 113.72 -141 111 C-140.34 111 -139.68 111 -139 111 C-139.0825 110.21625 -139.165 109.4325 -139.25 108.625 C-138.90508489 103.62373094 -137.01353919 99.5484412 -135 95 C-134.34 95 -133.68 95 -133 95 C-133 93.35 -133 91.7 -133 90 C-132.34 90 -131.68 90 -131 90 C-130.67 88.02 -130.34 86.04 -130 84 C-129.34 84 -128.68 84 -128 84 C-128 83.34 -128 82.68 -128 82 C-127.34 82 -126.68 82 -126 82 C-126 80.35 -126 78.7 -126 77 C-125.34 77 -124.68 77 -124 77 C-124 76.01 -124 75.02 -124 74 C-123.34 74 -122.68 74 -122 74 C-122 73.01 -122 72.02 -122 71 C-121.34 71 -120.68 71 -120 71 C-119.855625 70.236875 -119.71125 69.47375 -119.5625 68.6875 C-119 66 -119 66 -118 63 C-117.34 63 -116.68 63 -116 63 C-116 62.34 -116 61.68 -116 61 C-115.34 61 -114.68 61 -114 61 C-114 60.01 -114 59.02 -114 58 C-113.34 58 -112.68 58 -112 58 C-111.67 57.01 -111.34 56.02 -111 55 C-110.34 55 -109.68 55 -109 55 C-109 54.34 -109 53.68 -109 53 C-108.34 53 -107.68 53 -107 53 C-107 52.01 -107 51.02 -107 50 C-106.34 50 -105.68 50 -105 50 C-105 49.01 -105 48.02 -105 47 C-104.34 47 -103.68 47 -103 47 C-103 46.34 -103 45.68 -103 45 C-102.34 45 -101.68 45 -101 45 C-101 44.01 -101 43.02 -101 42 C-99.36368108 40.95107762 -97.69514137 39.95093297 -96 39 C-95.505 38.01 -95.505 38.01 -95 37 C-94.34 37 -93.68 37 -93 37 C-92.67 36.01 -92.34 35.02 -92 34 C-90.68 34 -89.36 34 -88 34 C-88 33.34 -88 32.68 -88 32 C-87.34 32 -86.68 32 -86 32 C-86 31.01 -86 30.02 -86 29 C-84.68 29 -83.36 29 -82 29 C-82 28.01 -82 27.02 -82 26 C-80.68 26 -79.36 26 -78 26 C-78 25.34 -78 24.68 -78 24 C-76.68 24 -75.36 24 -74 24 C-73.505 22.515 -73.505 22.515 -73 21 C-71.68 21 -70.36 21 -69 21 C-69 20.34 -69 19.68 -69 19 C-67.02 18.67 -65.04 18.34 -63 18 C-63 17.34 -63 16.68 -63 16 C-61.68 16 -60.36 16 -59 16 C-58.67 15.01 -58.34 14.02 -58 13 C-55 11.875 -55 11.875 -52 11 C-51.67 10.67 -51.34 10.34 -51 10 C-49.33382885 9.95936168 -47.66611905 9.957279 -46 10 C-46 9.34 -46 8.68 -46 8 C-44.72125 7.87625 -43.4425 7.7525 -42.125 7.625 C-38.65209064 7.30957601 -38.65209064 7.30957601 -36 5 C-33.65234375 4.62109375 -33.65234375 4.62109375 -30.9375 4.4375 C-27.66160436 4.46018047 -27.66160436 4.46018047 -25 3 C-23.21928754 2.91273777 -21.4351686 2.89300959 -19.65234375 2.90234375 C-18.57275391 2.90556641 -17.49316406 2.90878906 -16.38085938 2.91210938 C-14.67639648 2.92467773 -14.67639648 2.92467773 -12.9375 2.9375 C-11.22723633 2.94426758 -11.22723633 2.94426758 -9.48242188 2.95117188 C-6.65489649 2.96300253 -3.8274736 2.9794859 -1 3 C-0.67 2.01 -0.34 1.02 0 0 Z " fill="#FF3131" transform="translate(155,7)"/>
<path d="M0 0 C1.98 0 3.96 0 6 0 C6 0.66 6 1.32 6 2 C7.98 2.33 9.96 2.66 12 3 C12 3.66 12 4.32 12 5 C13.65 5 15.3 5 17 5 C17 5.99 17 6.98 17 8 C18.32 8 19.64 8 21 8 C21 8.66 21 9.32 21 10 C22.32 10 23.64 10 25 10 C25 10.99 25 11.98 25 13 C26.32 13 27.64 13 29 13 C29 13.99 29 14.98 29 16 C29.598125 16.12375 30.19625 16.2475 30.8125 16.375 C33 17 33 17 36 19 C36 19.66 36 20.32 36 21 C36.66 21 37.32 21 38 21 C38 21.66 38 22.32 38 23 C39.32 23.33 40.64 23.66 42 24 C42 24.66 42 25.32 42 26 C42.66 26 43.32 26 44 26 C44 26.99 44 27.98 44 29 C44.66 29 45.32 29 46 29 C46 29.66 46 30.32 46 31 C46.61875 31.2475 47.2375 31.495 47.875 31.75 C50.35068687 33.20628639 50.95125002 34.37812506 52 37 C52.66 37 53.32 37 54 37 C56.04169485 39.90548882 57 41.40142046 57 45 C57.66 45 58.32 45 59 45 C59 45.66 59 46.32 59 47 C59.66 47 60.32 47 61 47 C61 47.99 61 48.98 61 50 C61.66 50 62.32 50 63 50 C63 50.99 63 51.98 63 53 C63.66 53 64.32 53 65 53 C65 54.65 65 56.3 65 58 C65.66 58 66.32 58 67 58 C67 58.66 67 59.32 67 60 C67.66 60 68.32 60 69 60 C69.8466034 61.38782485 70.67675339 62.78569397 71.5 64.1875 C72.19609375 65.35345703 72.19609375 65.35345703 72.90625 66.54296875 C74.10729647 69.24103386 74.20741043 71.0806982 74 74 C74.66 74 75.32 74 76 74 C76 75.65 76 77.3 76 79 C76.66 79 77.32 79 78 79 C80.81849506 84.54891215 82.5326514 88.741346 82 95 C82.66 95 83.32 95 84 95 C84 97.64 84 100.28 84 103 C84.66 103 85.32 103 86 103 C86 106.3 86 109.6 86 113 C86.66 113 87.32 113 88 113 C88.04898437 113.90363281 88.09796875 114.80726563 88.1484375 115.73828125 C88.26058594 117.50751953 88.26058594 117.50751953 88.375 119.3125 C88.44460938 120.48425781 88.51421875 121.65601563 88.5859375 122.86328125 C88.78613747 126.15699887 88.78613747 126.15699887 91 129 C91.2764449 131.69035041 91.4641488 134.3037379 91.5625 137 C91.75044259 142.57912011 91.75044259 142.57912011 93 148 C93.13827771 149.96742816 93.22495201 151.93867843 93.28125 153.91015625 C93.31863281 155.06451172 93.35601563 156.21886719 93.39453125 157.40820312 C93.4649564 159.84830404 93.53526854 162.28840823 93.60546875 164.72851562 C93.64285156 165.88158203 93.68023438 167.03464844 93.71875 168.22265625 C93.74904297 169.28234619 93.77933594 170.34203613 93.81054688 171.43383789 C93.8356482 173.98808453 93.8356482 173.98808453 95 176 C95.09699846 177.93557678 95.13076201 179.87449537 95.1328125 181.8125 C95.13410156 182.97007812 95.13539063 184.12765625 95.13671875 185.3203125 C95.13285156 186.53460938 95.12898438 187.74890625 95.125 189 C95.12886719 190.21429688 95.13273437 191.42859375 95.13671875 192.6796875 C95.13478516 194.41605469 95.13478516 194.41605469 95.1328125 196.1875 C95.13168457 197.25355469 95.13055664 198.31960937 95.12939453 199.41796875 C95 202 95 202 94 204 C93.85950149 205.63076047 93.77429799 207.26648497 93.71875 208.90234375 C93.68136719 209.87494141 93.64398437 210.84753906 93.60546875 211.84960938 C93.57066406 212.86861328 93.53585937 213.88761719 93.5 214.9375 C93.4311112 216.94675672 93.3583642 218.9558859 93.28125 220.96484375 C93.25095703 221.8580835 93.22066406 222.75132324 93.18945312 223.67163086 C93 226 93 226 92 229 C91.74101721 232.42792492 91.55758845 235.84994315 91.39453125 239.28320312 C91.10079169 244.79841662 91.10079169 244.79841662 90 247 C89.34 247 88.68 247 88 247 C88.01160156 248.07121094 88.02320313 249.14242187 88.03515625 250.24609375 C88.04453299 251.64322743 88.05363331 253.04036299 88.0625 254.4375 C88.07087891 255.14455078 88.07925781 255.85160156 88.08789062 256.58007812 C88.09653588 258.38693559 88.05220011 260.19387603 88 262 C87.67 262.33 87.34 262.66 87 263 C86.84025503 264.5175772 86.72264738 266.03966579 86.625 267.5625 C86.25158642 271.79652821 85.32928087 275.14841307 83.6953125 279.04296875 C82.54198362 282.289136 82.35944617 285.58526135 82 289 C81.67 289.33 81.34 289.66 81 290 C80.835 291.155 80.67 292.31 80.5 293.5 C80 297 80 297 79 298 C78.63239269 300.32817964 78.29758419 302.6618385 78 305 C77.34 305 76.68 305 76 305 C76 306.98 76 308.96 76 311 C75.34 311 74.68 311 74 311 C74.0928125 312.485 74.0928125 312.485 74.1875 314 C74.21491645 318.46888211 72.7208227 321.91304608 71 326 C70.34 326 69.68 326 69 326 C69 327.98 69 329.96 69 332 C68.34 332 67.68 332 67 332 C67 333.65 67 335.3 67 337 C66.34 337 65.68 337 65 337 C65 338.65 65 340.3 65 342 C64.34 342 63.68 342 63 342 C63 343.98 63 345.96 63 348 C62.34 348 61.68 348 61 348 C61 349.65 61 351.3 61 353 C60.34 353 59.68 353 59 353 C59 354.65 59 356.3 59 358 C58.34 358 57.68 358 57 358 C56.896875 358.66 56.79375 359.32 56.6875 360 C55.80786436 363.83841009 54.43030104 367.33096691 53 371 C52.01 371 51.02 371 50 371 C50 372.98 50 374.96 50 377 C49.34 377 48.68 377 48 377 C48 378.65 48 380.3 48 382 C47.34 382 46.68 382 46 382 C46 382.99 46 383.98 46 385 C45.34 385 44.68 385 44 385 C44 386.65 44 388.3 44 390 C43.34 390 42.68 390 42 390 C41.855625 390.763125 41.71125 391.52625 41.5625 392.3125 C41 395 41 395 40 398 C39.34 398 38.68 398 38 398 C37.855625 398.763125 37.71125 399.52625 37.5625 400.3125 C37 403 37 403 36 406 C35.34 406 34.68 406 34 406 C33.67 407.65 33.34 409.3 33 411 C32.34 411 31.68 411 31 411 C31 411.99 31 412.98 31 414 C30.34 414 29.68 414 29 414 C29 414.66 29 415.32 29 416 C28.34 416 27.68 416 27 416 C27 417.65 27 419.3 27 421 C26.34 421 25.68 421 25 421 C25 421.99 25 422.98 25 424 C24.34 424 23.68 424 23 424 C22.855625 424.5775 22.71125 425.155 22.5625 425.75 C22.04166667 427.83333333 21.52083333 429.91666667 21 432 C20.34 432 19.68 432 19 432 C19 432.99 19 433.98 19 435 C18.34 435 17.68 435 17 435 C17 435.66 17 436.32 17 437 C16.34 437 15.68 437 15 437 C15 437.99 15 438.98 15 440 C14.34 440 13.68 440 13 440 C12.67 440.99 12.34 441.98 12 443 C11.34 443 10.68 443 10 443 C9.855625 443.598125 9.71125 444.19625 9.5625 444.8125 C9.1127561 446.56150404 8.57107659 448.28677023 8 450 C7.34 450 6.68 450 6 450 C6 450.99 6 451.98 6 453 C5.34 453 4.68 453 4 453 C4 453.99 4 454.98 4 456 C3.34 456 2.68 456 2 456 C2 456.66 2 457.32 2 458 C1.34 458 0.68 458 0 458 C0 458.99 0 459.98 0 461 C-0.66 461 -1.32 461 -2 461 C-2 461.99 -2 462.98 -2 464 C-2.66 464 -3.32 464 -4 464 C-4 464.66 -4 465.32 -4 466 C-4.66 466 -5.32 466 -6 466 C-6 466.99 -6 467.98 -6 469 C-6.99 469 -7.98 469 -9 469 C-9 469.99 -9 470.98 -9 472 C-9.66 472 -10.32 472 -11 472 C-11 472.66 -11 473.32 -11 474 C-11.66 474 -12.32 474 -13 474 C-13 474.99 -13 475.98 -13 477 C-13.66 477 -14.32 477 -15 477 C-15 477.99 -15 478.98 -15 480 C-15.66 480 -16.32 480 -17 480 C-17.2578125 480.71542969 -17.515625 481.43085938 -17.78125 482.16796875 C-19.07384765 485.17160111 -20.6277709 487.63505372 -22.5 490.3125 C-23.1084375 491.19550781 -23.716875 492.07851563 -24.34375 492.98828125 C-25.16359375 493.98408203 -25.16359375 493.98408203 -26 495 C-26.66 495 -27.32 495 -28 495 C-28 495.99 -28 496.98 -28 498 C-28.66 498 -29.32 498 -30 498 C-30.66 499.65 -31.32 501.3 -32 503 C-32.66 503 -33.32 503 -34 503 C-34 503.99 -34 504.98 -34 506 C-34.66 506 -35.32 506 -36 506 C-36.66 507.65 -37.32 509.3 -38 511 C-38.66 511 -39.32 511 -40 511 C-40.4021875 511.9590625 -40.4021875 511.9590625 -40.8125 512.9375 C-42 515 -42 515 -45 516 C-45 516.99 -45 517.98 -45 519 C-45.66 519 -46.32 519 -47 519 C-47 519.66 -47 520.32 -47 521 C-47.66 521 -48.32 521 -49 521 C-49 521.99 -49 522.98 -49 524 C-52.33333333 527 -52.33333333 527 -55 527 C-55 527.99 -55 528.98 -55 530 C-55.66 530 -56.32 530 -57 530 C-57 530.66 -57 531.32 -57 532 C-57.66 532 -58.32 532 -59 532 C-59 532.99 -59 533.98 -59 535 C-59.66 535 -60.32 535 -61 535 C-61.66 536.65 -62.32 538.3 -63 540 C-63.99 540 -64.98 540 -66 540 C-66 540.99 -66 541.98 -66 543 C-66.66 543 -67.32 543 -68 543 C-68 543.66 -68 544.32 -68 545 C-68.66 545 -69.32 545 -70 545 C-70 545.99 -70 546.98 -70 548 C-70.66 548 -71.32 548 -72 548 C-72.37125 548.9590625 -72.37125 548.9590625 -72.75 549.9375 C-74 552 -74 552 -76.125 552.75 C-77.053125 552.87375 -77.053125 552.87375 -78 553 C-78 553.99 -78 554.98 -78 556 C-78.66 556 -79.32 556 -80 556 C-80 556.99 -80 557.98 -80 559 C-80.66 559 -81.32 559 -82 559 C-82 559.66 -82 560.32 -82 561 C-82.99 561 -83.98 561 -85 561 C-85 561.99 -85 562.98 -85 564 C-85.66 564 -86.32 564 -87 564 C-87.99 566.475 -87.99 566.475 -89 569 C-89.66 569 -90.32 569 -91 569 C-91 569.66 -91 570.32 -91 571 C-91.928125 571.0928125 -91.928125 571.0928125 -92.875 571.1875 C-95.27761141 571.828919 -95.27761141 571.828919 -96.25 574.5625 C-96.4975 575.366875 -96.745 576.17125 -97 577 C-97.66 577 -98.32 577 -99 577 C-99.33 577.99 -99.66 578.98 -100 580 C-100.66 580 -101.32 580 -102 580 C-102 580.66 -102 581.32 -102 582 C-102.66 582 -103.32 582 -104 582 C-104.33 582.99 -104.66 583.98 -105 585 C-105.99 585 -106.98 585 -108 585 C-108 585.99 -108 586.98 -108 588 C-108.66 588 -109.32 588 -110 588 C-110 588.66 -110 589.32 -110 590 C-110.66 590 -111.32 590 -112 590 C-112 590.99 -112 591.98 -112 593 C-112.66 593 -113.32 593 -114 593 C-114 593.66 -114 594.32 -114 595 C-115.32 595.33 -116.64 595.66 -118 596 C-118 596.66 -118 597.32 -118 598 C-118.66 598 -119.32 598 -120 598 C-120 598.99 -120 599.98 -120 601 C-120.99 601 -121.98 601 -123 601 C-123 601.66 -123 602.32 -123 603 C-123.66 603 -124.32 603 -125 603 C-125.33 603.99 -125.66 604.98 -126 606 C-126.99 606 -127.98 606 -129 606 C-129 606.99 -129 607.98 -129 609 C-129.66 609 -130.32 609 -131 609 C-131 609.66 -131 610.32 -131 611 C-131.66 611 -132.32 611 -133 611 C-133 611.99 -133 612.98 -133 614 C-133.99 614 -134.98 614 -136 614 C-136.33 614.99 -136.66 615.98 -137 617 C-137.66 617 -138.32 617 -139 617 C-139 617.66 -139 618.32 -139 619 C-139.99 619 -140.98 619 -142 619 C-142 619.99 -142 620.98 -142 622 C-145.33333333 625 -145.33333333 625 -148 625 C-148 625.66 -148 626.32 -148 627 C-148.66 627 -149.32 627 -150 627 C-150 627.99 -150 628.98 -150 630 C-150.66 630 -151.32 630 -152 630 C-152 630.66 -152 631.32 -152 632 C-152.99 632.33 -153.98 632.66 -155 633 C-155.33 633.66 -155.66 634.32 -156 635 C-156.66 635 -157.32 635 -158 635 C-158.33 635.99 -158.66 636.98 -159 638 C-160.32 638 -161.64 638 -163 638 C-163 638.66 -163 639.32 -163 640 C-163.66 640 -164.32 640 -165 640 C-165 640.99 -165 641.98 -165 643 C-165.99 643.33 -166.98 643.66 -168 644 C-168.33 644.66 -168.66 645.32 -169 646 C-169.66 646 -170.32 646 -171 646 C-171 646.66 -171 647.32 -171 648 C-171.66 648 -172.32 648 -173 648 C-173.33 648.99 -173.66 649.98 -174 651 C-174.99 651 -175.98 651 -177 651 C-177.33 651.99 -177.66 652.98 -178 654 C-178.66 654 -179.32 654 -180 654 C-180 654.66 -180 655.32 -180 656 C-181.32 656 -182.64 656 -184 656 C-184 656.99 -184 657.98 -184 659 C-184.66 659 -185.32 659 -186 659 C-186 659.66 -186 660.32 -186 661 C-189.46153846 664 -189.46153846 664 -192 664 C-192 664.99 -192 665.98 -192 667 C-195 669 -195 669 -198 669 C-198.33 669.99 -198.66 670.98 -199 672 C-199.66 672 -200.32 672 -201 672 C-201 672.66 -201 673.32 -201 674 C-202.32 674.33 -203.64 674.66 -205 675 C-205 675.66 -205 676.32 -205 677 C-205.66 677 -206.32 677 -207 677 C-207 677.99 -207 678.98 -207 680 C-208.32 680 -209.64 680 -211 680 C-211 680.99 -211 681.98 -211 683 C-214 685 -214 685 -217 685 C-217 685.99 -217 686.98 -217 688 C-217.99 688 -218.98 688 -220 688 C-220 688.66 -220 689.32 -220 690 C-221.32 690.33 -222.64 690.66 -224 691 C-224 691.66 -224 692.32 -224 693 C-224.66 693 -225.32 693 -226 693 C-226.33 693.99 -226.66 694.98 -227 696 C-227.99 696 -228.98 696 -230 696 C-230 696.66 -230 697.32 -230 698 C-230.66 698 -231.32 698 -232 698 C-232 698.99 -232 699.98 -232 701 C-233.32 701 -234.64 701 -236 701 C-236.33 701.99 -236.66 702.98 -237 704 C-237.66 704 -238.32 704 -239 704 C-239 704.66 -239 705.32 -239 706 C-240.32 706 -241.64 706 -243 706 C-243 706.99 -243 707.98 -243 709 C-243.66 709 -244.32 709 -245 709 C-245 709.66 -245 710.32 -245 711 C-246.32 711.33 -247.64 711.66 -249 712 C-249 712.66 -249 713.32 -249 714 C-249.66 714 -250.32 714 -251 714 C-251.33 714.99 -251.66 715.98 -252 717 C-252.99 717 -253.98 717 -255 717 C-255.4021875 717.9590625 -255.4021875 717.9590625 -255.8125 718.9375 C-257 721 -257 721 -260 722 C-260 722.99 -260 723.98 -260 725 C-261.32 725 -262.64 725 -264 725 C-264 725.66 -264 726.32 -264 727 C-264.66 727 -265.32 727 -266 727 C-266 727.99 -266 728.98 -266 730 C-269.33333333 733 -269.33333333 733 -272 733 C-272 733.66 -272 734.32 -272 735 C-272.66 735 -273.32 735 -274 735 C-274 735.99 -274 736.98 -274 738 C-274.99 738 -275.98 738 -277 738 C-277.2475 738.639375 -277.495 739.27875 -277.75 739.9375 C-279 742 -279 742 -281.125 742.75 C-282.053125 742.87375 -282.053125 742.87375 -283 743 C-283 743.99 -283 744.98 -283 746 C-283.66 746 -284.32 746 -285 746 C-285.99 748.475 -285.99 748.475 -287 751 C-287.99 751 -288.98 751 -290 751 C-290.33 751.99 -290.66 752.98 -291 754 C-291.66 754 -292.32 754 -293 754 C-293 754.66 -293 755.32 -293 756 C-293.66 756 -294.32 756 -295 756 C-295.33 756.99 -295.66 757.98 -296 759 C-296.66 759 -297.32 759 -298 759 C-298 759.99 -298 760.98 -298 762 C-298.66 762 -299.32 762 -300 762 C-300 762.66 -300 763.32 -300 764 C-300.66 764 -301.32 764 -302 764 C-302 764.99 -302 765.98 -302 767 C-302.66 767 -303.32 767 -304 767 C-304 767.66 -304 768.32 -304 769 C-304.66 769 -305.32 769 -306 769 C-306.33 769.99 -306.66 770.98 -307 772 C-307.99 772 -308.98 772 -310 772 C-310 772.99 -310 773.98 -310 775 C-310.66 775 -311.32 775 -312 775 C-312.33 775.99 -312.66 776.98 -313 778 C-313.66 778 -314.32 778 -315 778 C-315 778.66 -315 779.32 -315 780 C-316.32 780 -317.64 780 -319 780 C-319 780.99 -319 781.98 -319 783 C-319.66 783 -320.32 783 -321 783 C-321 783.66 -321 784.32 -321 785 C-322.32 785 -323.64 785 -325 785 C-325 785.99 -325 786.98 -325 788 C-328.67410785 789.17571451 -332.16929183 789.07366746 -336 789 C-333.97078272 787.44906506 -331.93575251 785.95777696 -329.80078125 784.5546875 C-318.77600159 777.11252854 -309.38252712 767.23918257 -300.71166992 757.20727539 C-297.16009632 753.13102073 -293.42555383 749.28061025 -289.59765625 745.46484375 C-288.91626083 744.78249161 -288.23486542 744.10013947 -287.53282166 743.39710999 C-286.10294259 741.96655563 -284.67182089 740.53724233 -283.23950195 739.10913086 C-281.06802289 736.94300926 -278.90193675 734.77159826 -276.73632812 732.59960938 C-275.33625798 731.20020013 -273.93587762 729.80110116 -272.53515625 728.40234375 C-271.89844498 727.76360825 -271.2617337 727.12487274 -270.60572815 726.46678162 C-266.77480648 722.65541678 -262.82994005 719.0282352 -258.73724365 715.49913025 C-256.5159046 713.58225661 -254.35293869 711.60461295 -252.1875 709.625 C-247.87441296 705.73270194 -243.43268288 702.03788431 -238.91796875 698.3828125 C-235.74582593 695.79244152 -232.61956706 693.15317133 -229.5 690.5 C-224.65060094 686.37875818 -219.74838629 682.33008186 -214.8125 678.3125 C-211.1195036 675.27603629 -207.47676835 672.18239924 -203.8359375 669.08374023 C-200.43054787 666.19127733 -196.9827889 663.36189282 -193.5 660.5625 C-188.76149128 656.71246166 -184.30066982 652.62505846 -179.84912109 648.45263672 C-175.53493848 644.4316385 -171.02411584 640.71283906 -166.42578125 637.01953125 C-163.66465266 634.72081389 -161.16862153 632.26177027 -158.67578125 629.6796875 C-156.85655544 627.85622107 -154.95232089 626.17981721 -153 624.5 C-149.8038805 621.74642012 -146.82692509 618.85361586 -143.87510681 615.84242249 C-142.06841179 614.06721933 -140.20465085 612.41638166 -138.27954102 610.77124023 C-134.0209759 607.06675103 -130.01136712 603.1560313 -126.02734375 599.16015625 C-125.30059952 598.43436874 -124.57385529 597.70858124 -123.8250885 596.96080017 C-122.30037704 595.43676444 -120.7769085 593.91148431 -119.25463867 592.38500977 C-116.94366109 590.06867537 -114.62739229 587.75772922 -112.31054688 585.44726562 C-110.8199918 583.95604966 -109.329747 582.46452347 -107.83984375 580.97265625 C-107.15736069 580.29219742 -106.47487762 579.61173859 -105.77171326 578.91065979 C-101.86443731 574.98456171 -98.14374515 570.95035849 -94.52412415 566.75770569 C-92.78054045 564.7469069 -90.97599247 562.80641878 -89.1328125 560.88671875 C-88.47941895 560.20174316 -87.82602539 559.51676758 -87.15283203 558.81103516 C-86.48364746 558.11026855 -85.81446289 557.40950195 -85.125 556.6875 C-79.85792149 551.13591003 -74.83140867 545.53116452 -70.0703125 539.5390625 C-67.8072758 536.76364014 -65.42607849 534.1338161 -63 531.5 C-58.10486353 526.17360731 -53.53935236 520.62976618 -49 515 C-47.60449481 513.31222863 -46.20865431 511.62473445 -44.8125 509.9375 C-39.5784688 503.54339556 -34.53231897 497.00499857 -29.47265625 490.47265625 C-26.95435145 487.22285368 -24.41686626 483.98949162 -21.86303711 480.76757812 C-0.12237447 453.3091253 19.72724557 425.05674815 36 394 C36.46792969 393.10941895 36.93585938 392.21883789 37.41796875 391.30126953 C49.57354123 368.00734511 59.16890684 343.71972199 68 319 C68.29745117 318.18160645 68.59490234 317.36321289 68.90136719 316.52001953 C76.20280842 296.36399026 80.80151307 275.48464291 84.3125 254.375 C84.43560547 253.63880432 84.55871094 252.90260864 84.68554688 252.144104 C95.76041263 185.24405766 96.12365483 104.93095285 55.77246094 47.24511719 C40.74026514 26.52442822 23.12736846 11.76188794 0 1 C0 0.67 0 0.34 0 0 Z " fill="#FFF8F8" transform="translate(786,23)"/>
<path d="M0 0 C2.1850392 2.75032493 3.78860168 5.4194643 5.2421875 8.61328125 C5.66121338 9.51916992 6.08023926 10.42505859 6.51196289 11.35839844 C6.96176514 12.33325195 7.41156738 13.30810547 7.875 14.3125 C24.08356872 48.65053275 45.72050995 79.80743971 69.58398438 109.24121094 C71.8987452 112.11630352 74.16611037 115.02811651 76.4375 117.9375 C82.04210581 125.09877108 87.77472053 132.15359566 93.52783203 139.19580078 C94.82271511 140.78273046 96.11290478 142.37348737 97.40234375 143.96484375 C105.66270412 154.13718627 114.19020626 164.07744554 122.99609375 173.78125 C124.81311982 175.79308393 126.59944392 177.82660434 128.375 179.875 C132.57520532 184.69459044 136.90818334 189.39238481 141.24682617 194.0871582 C142.55796019 195.51770201 143.85850141 196.95796728 145.15356445 198.40307617 C153.21325389 207.33270034 161.68308022 215.83533533 170.19848633 224.32885742 C172.69663968 226.82161995 175.18936198 229.31972475 177.68164062 231.81835938 C179.29134591 233.42740428 180.90136115 235.03613918 182.51171875 236.64453125 C183.61201668 237.74786552 183.61201668 237.74786552 184.73454285 238.87348938 C188.76165075 242.88258276 192.87555182 246.72801 197.18945312 250.42756653 C200.32026649 253.14663213 203.30344987 256.02284634 206.3125 258.875 C211.46344039 263.72437206 216.72638195 268.3112663 222.2578125 272.7265625 C225.450436 275.37343839 228.47419084 278.16587706 231.5 281 C236.23242179 285.42672411 241.08657688 289.61110801 246.140625 293.671875 C249.37589011 296.3060526 252.53222946 299.02110545 255.6875 301.75 C260.78604463 306.14873054 265.95490562 310.44914191 271.1875 314.6875 C272.20348267 315.51048584 272.20348267 315.51048584 273.23999023 316.35009766 C276.16686039 318.71738244 279.09824312 321.07877151 282.03515625 323.43359375 C287.98127519 328.23326673 293.64308724 333.26325459 299.2421875 338.45703125 C301.40340548 340.44988239 303.58346969 342.39707785 305.8125 344.3125 C317.32729699 354.36473205 328.18562075 365.08257428 339 375.875 C339.59003815 376.46244995 340.18007629 377.0498999 340.78799438 377.65515137 C347.08120305 383.92659785 353.25630424 390.2136986 359 397 C365.17830817 403.97331107 372.04083019 408.95759774 379.83984375 413.93359375 C383 416 383 416 385 418 C381.7 417.67 378.4 417.34 375 417 C375 416.01 375 415.02 375 414 C373.68 414 372.36 414 371 414 C371 413.34 371 412.68 371 412 C370.34 412 369.68 412 369 412 C369 411.01 369 410.02 369 409 C367.68 409 366.36 409 365 409 C365 408.34 365 407.68 365 407 C364.01 406.67 363.02 406.34 362 406 C362 405.34 362 404.68 362 404 C361.34 404 360.68 404 360 404 C360 403.01 360 402.02 360 401 C359.071875 400.5359375 359.071875 400.5359375 358.125 400.0625 C356.75 399.375 355.375 398.6875 354 398 C354 397.34 354 396.68 354 396 C353.34 396 352.68 396 352 396 C352 395.01 352 394.02 352 393 C351.34 393 350.68 393 350 393 C350 392.34 350 391.68 350 391 C349.34 391 348.68 391 348 391 C348 390.01 348 389.02 348 388 C347.34 388 346.68 388 346 388 C346 387.01 346 386.02 346 385 C344.68 385 343.36 385 342 385 C342 384.34 342 383.68 342 383 C341.01 382.67 340.02 382.34 339 382 C339 381.34 339 380.68 339 380 C338.34 380 337.68 380 337 380 C336.34 378.35 335.68 376.7 335 375 C334.34 375 333.68 375 333 375 C332.67 374.34 332.34 373.68 332 373 C331.01 372.67 330.02 372.34 329 372 C329 371.34 329 370.68 329 370 C328.34 370 327.68 370 327 370 C327 369.01 327 368.02 327 367 C326.01 366.67 325.02 366.34 324 366 C324 365.34 324 364.68 324 364 C323.38125 363.855625 322.7625 363.71125 322.125 363.5625 C320 363 320 363 318 362 C318 361.01 318 360.02 318 359 C317.34 359 316.68 359 316 359 C316 358.01 316 357.02 316 356 C314.68 356 313.36 356 312 356 C312 355.34 312 354.68 312 354 C311.34 354 310.68 354 310 354 C310 353.01 310 352.02 310 351 C309.34 351 308.68 351 308 351 C308 350.34 308 349.68 308 349 C306.68 348.67 305.36 348.34 304 348 C304 347.34 304 346.68 304 346 C303.01 346 302.02 346 301 346 C301 345.01 301 344.02 301 343 C300.34 343 299.68 343 299 343 C299 342.34 299 341.68 299 341 C297.68 340.67 296.36 340.34 295 340 C295 339.34 295 338.68 295 338 C294.34 338 293.68 338 293 338 C293 337.01 293 336.02 293 335 C291.68 335 290.36 335 289 335 C289 334.34 289 333.68 289 333 C288.34 333 287.68 333 287 333 C287 332.01 287 331.02 287 330 C285.68 329.67 284.36 329.34 283 329 C283 328.34 283 327.68 283 327 C282.01 327 281.02 327 280 327 C280 326.34 280 325.68 280 325 C278.68 324.67 277.36 324.34 276 324 C276 323.34 276 322.68 276 322 C275.34 322 274.68 322 274 322 C274 321.34 274 320.68 274 320 C272.68 319.67 271.36 319.34 270 319 C270 318.34 270 317.68 270 317 C269.34 317 268.68 317 268 317 C268 316.01 268 315.02 268 314 C266.35 314 264.7 314 263 314 C263 313.34 263 312.68 263 312 C262.34 312 261.68 312 261 312 C261 311.01 261 310.02 261 309 C259.68 309 258.36 309 257 309 C257 308.01 257 307.02 257 306 C256.34 306 255.68 306 255 306 C255 305.34 255 304.68 255 304 C253.68 304 252.36 304 251 304 C251 303.01 251 302.02 251 301 C250.34 301 249.68 301 249 301 C249 300.01 249 299.02 249 298 C248.21625 297.855625 247.4325 297.71125 246.625 297.5625 C244 297 244 297 242 296 C242 295.01 242 294.02 242 293 C240.68 292.67 239.36 292.34 238 292 C238 291.34 238 290.68 238 290 C237.34 290 236.68 290 236 290 C236 289.34 236 288.68 236 288 C235.34 288 234.68 288 234 288 C234 287.01 234 286.02 234 285 C232.68 285 231.36 285 230 285 C230 284.34 230 283.68 230 283 C229.01 282.67 228.02 282.34 227 282 C227 281.34 227 280.68 227 280 C225.68 279.67 224.36 279.34 223 279 C223 278.34 223 277.68 223 277 C222.34 277 221.68 277 221 277 C221 276.34 221 275.68 221 275 C219.68 274.67 218.36 274.34 217 274 C217 273.34 217 272.68 217 272 C216.34 272 215.68 272 215 272 C215 271.01 215 270.02 215 269 C213.68 269 212.36 269 211 269 C211 268.34 211 267.68 211 267 C210.01 266.67 209.02 266.34 208 266 C208 265.34 208 264.68 208 264 C207.34 264 206.68 264 206 264 C205.67 263.34 205.34 262.68 205 262 C204.01 261.67 203.02 261.34 202 261 C202 260.34 202 259.68 202 259 C201.34 259 200.68 259 200 259 C200 258.01 200 257.02 200 256 C199.34 256 198.68 256 198 256 C198 255.34 198 254.68 198 254 C196.68 253.67 195.36 253.34 194 253 C194 252.34 194 251.68 194 251 C193.34 251 192.68 251 192 251 C192 250.01 192 249.02 192 248 C190.68 248 189.36 248 188 248 C188 247.34 188 246.68 188 246 C187.01 245.67 186.02 245.34 185 245 C185 244.34 185 243.68 185 243 C184.34 243 183.68 243 183 243 C183 242.01 183 241.02 183 240 C182.38125 239.855625 181.7625 239.71125 181.125 239.5625 C179 239 179 239 177 238 C177 237.01 177 236.02 177 235 C176.34 235 175.68 235 175 235 C174.731875 234.195625 174.46375 233.39125 174.1875 232.5625 C173.795625 231.716875 173.40375 230.87125 173 230 C172.01 229.67 171.02 229.34 170 229 C170 228.34 170 227.68 170 227 C169.01 227 168.02 227 167 227 C165.3125 225.625 165.3125 225.625 164 224 C164 223.34 164 222.68 164 222 C163.34 222 162.68 222 162 222 C162 221.01 162 220.02 162 219 C161.34 219 160.68 219 160 219 C160 218.34 160 217.68 160 217 C159.34 217 158.68 217 158 217 C158 216.01 158 215.02 158 214 C156.68 214 155.36 214 154 214 C154 213.01 154 212.02 154 211 C153.34 211 152.68 211 152 211 C152 210.34 152 209.68 152 209 C151.01 209 150.02 209 149 209 C149 208.01 149 207.02 149 206 C148.34 206 147.68 206 147 206 C145.64567325 204.68799596 144.31266518 203.35368596 143 202 C142.34 201.67 141.68 201.34 141 201 C141 200.01 141 199.02 141 198 C140.34 198 139.68 198 139 198 C139 197.34 139 196.68 139 196 C138.34 196 137.68 196 137 196 C137 195.01 137 194.02 137 193 C136.34 193 135.68 193 135 193 C135 192.01 135 191.02 135 190 C134.443125 189.9175 133.88625 189.835 133.3125 189.75 C130.23811154 188.75290104 128.33757048 187.20770546 126 185 C126 184.01 126 183.02 126 182 C125.34 182 124.68 182 124 182 C124 181.34 124 180.68 124 180 C123.34 180 122.68 180 122 180 C122 179.01 122 178.02 122 177 C121.34 177 120.68 177 120 177 C119.01 174.525 119.01 174.525 118 172 C117.34 172 116.68 172 116 172 C116 171.01 116 170.02 116 169 C115.34 169 114.68 169 114 169 C114 168.34 114 167.68 114 167 C113.01 166.67 112.02 166.34 111 166 C111 165.34 111 164.68 111 164 C110.01 164 109.02 164 108 164 C105 160.66666667 105 160.66666667 105 158 C104.34 158 103.68 158 103 158 C102.01 155.525 102.01 155.525 101 153 C100.34 153 99.68 153 99 153 C98.01 150.525 98.01 150.525 97 148 C96.34 148 95.68 148 95 148 C95 147.01 95 146.02 95 145 C94.34 145 93.68 145 93 145 C93 144.34 93 143.68 93 143 C92.01 142.67 91.02 142.34 90 142 C90 141.34 90 140.68 90 140 C89.34 140 88.68 140 88 140 C88 139.01 88 138.02 88 137 C87.34 137 86.68 137 86 137 C86 136.34 86 135.68 86 135 C85.34 135 84.68 135 84 135 C84 134.01 84 133.02 84 132 C83.34 132 82.68 132 82 132 C81.01 129.525 81.01 129.525 80 127 C79.34 127 78.68 127 78 127 C78 126.01 78 125.02 78 124 C77.34 124 76.68 124 76 124 C76 123.34 76 122.68 76 122 C75.34 122 74.68 122 74 122 C74 121.01 74 120.02 74 119 C72.515 118.505 72.515 118.505 71 118 C71 117.34 71 116.68 71 116 C70.34 116 69.68 116 69 116 C68.34 114.35 67.68 112.7 67 111 C66.34 111 65.68 111 65 111 C65 110.01 65 109.02 65 108 C64.34 108 63.68 108 63 108 C62.34 106.35 61.68 104.7 61 103 C60.34 103 59.68 103 59 103 C58.34 101.35 57.68 99.7 57 98 C56.34 98 55.68 98 55 98 C55 97.01 55 96.02 55 95 C54.34 95 53.68 95 53 95 C50.95830515 92.09451118 50 90.59857954 50 87 C49.34 87 48.68 87 48 87 C48 86.34 48 85.68 48 85 C47.34 85 46.68 85 46 85 C46 84.01 46 83.02 46 82 C45.34 82 44.68 82 44 82 C44 81.34 44 80.68 44 80 C43.34 80 42.68 80 42 80 C42 79.01 42 78.02 42 77 C41.34 77 40.68 77 40 77 C40 76.01 40 75.02 40 74 C39.34 74 38.68 74 38 74 C38 72.35 38 70.7 38 69 C37.01 68.67 36.02 68.34 35 68 C35 67.34 35 66.68 35 66 C34.34 66 33.68 66 33 66 C30.1605948 62.32547562 29 60.73113419 29 56 C28.34 56 27.68 56 27 56 C27 55.01 27 54.02 27 53 C26.34 53 25.68 53 25 53 C24.32845067 51.71086513 23.66291141 50.41859796 23 49.125 C22.62875 48.40570313 22.2575 47.68640625 21.875 46.9453125 C21 45 21 45 21 43 C20.34 43 19.68 43 19 43 C19 42.01 19 41.02 19 40 C18.34 40 17.68 40 17 40 C12.59225513 31.738041 12.59225513 31.738041 12 27 C11.34 27 10.68 27 10 27 C10 26.01 10 25.02 10 24 C9.34 24 8.68 24 8 24 C8 22.35 8 20.7 8 19 C7.34 19 6.68 19 6 19 C6 17.35 6 15.7 6 14 C5.34 14 4.68 14 4 14 C4 13.01 4 12.02 4 11 C3.34 11 2.68 11 2 11 C2 9.35 2 7.7 2 6 C1.34 6 0.68 6 0 6 C0 4.02 0 2.04 0 0 Z " fill="#FFF6F6" transform="translate(48,394)"/>
<path d="M0 0 C1.65 0 3.3 0 5 0 C5 0.66 5 1.32 5 2 C6.32 2.33 7.64 2.66 9 3 C9 3.66 9 4.32 9 5 C10.32 5.33 11.64 5.66 13 6 C13 6.66 13 7.32 13 8 C13.66 8 14.32 8 15 8 C15 8.66 15 9.32 15 10 C16.32 10.33 17.64 10.66 19 11 C19 11.66 19 12.32 19 13 C19.639375 13.268125 20.27875 13.53625 20.9375 13.8125 C23 15 23 15 24 18 C25.32 18 26.64 18 28 18 C28 18.99 28 19.98 28 21 C28.66 21 29.32 21 30 21 C30 21.66 30 22.32 30 23 C31.32 23.33 32.64 23.66 34 24 C34 24.66 34 25.32 34 26 C34.66 26 35.32 26 36 26 C36 26.99 36 27.98 36 29 C36.66 29 37.32 29 38 29 C38 29.66 38 30.32 38 31 C39.32 31.33 40.64 31.66 42 32 C42 32.66 42 33.32 42 34 C42.99 34 43.98 34 45 34 C45 34.99 45 35.98 45 37 C45.66 37 46.32 37 47 37 C47 37.66 47 38.32 47 39 C47.66 39 48.32 39 49 39 C49 39.99 49 40.98 49 42 C50.32 42 51.64 42 53 42 C53 42.99 53 43.98 53 45 C53.66 45 54.32 45 55 45 C55 45.66 55 46.32 55 47 C55.66 47 56.32 47 57 47 C57 47.99 57 48.98 57 50 C57.99 50 58.98 50 60 50 C60.66 51.65 61.32 53.3 62 55 C62.66 55 63.32 55 64 55 C64 55.99 64 56.98 64 58 C64.66 58 65.32 58 66 58 C66 58.66 66 59.32 66 60 C66.61875 60.309375 67.2375 60.61875 67.875 60.9375 C69.25 61.625 70.625 62.3125 72 63 C72 63.99 72 64.98 72 66 C72.66 66 73.32 66 74 66 C74 66.66 74 67.32 74 68 C74.66 68 75.32 68 76 68 C76 68.99 76 69.98 76 71 C76.66 71 77.32 71 78 71 C78 71.99 78 72.98 78 74 C78.60328125 74.24878906 79.2065625 74.49757813 79.828125 74.75390625 C82.34076601 76.19551144 83.26420364 77.47493011 84.75 79.9375 C85.17796875 80.62714844 85.6059375 81.31679687 86.046875 82.02734375 C87 84 87 84 87 87 C87.66 87 88.32 87 89 87 C89 87.66 89 88.32 89 89 C89.66 89 90.32 89 91 89 C91 89.99 91 90.98 91 92 C91.66 92 92.32 92 93 92 C93 92.99 93 93.98 93 95 C93.66 95 94.32 95 95 95 C95 95.66 95 96.32 95 97 C95.66 97 96.32 97 97 97 C97 97.99 97 98.98 97 100 C97.66 100 98.32 100 99 100 C99.33 101.65 99.66 103.3 100 105 C100.66 105 101.32 105 102 105 C102 105.99 102 106.98 102 108 C102.66 108 103.32 108 104 108 C104 108.99 104 109.98 104 111 C104.66 111 105.32 111 106 111 C106 112.65 106 114.3 106 116 C106.66 116 107.32 116 108 116 C108 116.66 108 117.32 108 118 C108.66 118 109.32 118 110 118 C110 118.99 110 119.98 110 121 C110.66 121 111.32 121 112 121 C112 122.65 112 124.3 112 126 C112.66 126 113.32 126 114 126 C114 126.99 114 127.98 114 129 C114.66 129 115.32 129 116 129 C121 134.23809524 121 134.23809524 121 139 C121.66 139 122.32 139 123 139 C123 139.99 123 140.98 123 142 C123.66 142 124.32 142 125 142 C125 142.99 125 143.98 125 145 C126.32 145.33 127.64 145.66 129 146 C127.02 146.99 127.02 146.99 125 148 C119.57383632 141.39378348 115.07519673 134.45101586 110.6875 127.125 C99.40893215 108.56274637 87.85707189 89.76563818 74 73 C73.56139648 72.46810059 73.12279297 71.93620117 72.67089844 71.38818359 C64.30326741 61.27510333 55.62712102 51.53261934 46.27734375 42.3125 C44.36753982 40.37321368 42.60350518 38.41106455 40.875 36.3125 C38.27522745 33.19999453 35.40122106 30.62073302 32.3125 28 C30.11405554 26.09864263 27.98810877 24.13325479 25.86767578 22.14575195 C20.37985828 17.01427458 14.69320117 12.26290758 8.72021484 7.70410156 C5.59465566 5.30955637 2.70813035 2.86079456 0 0 Z " fill="#FFF5F5" transform="translate(315,60)"/>
<path d="M0 0 C0.66 0 1.32 0 2 0 C1.92935333 0.75766159 1.85870667 1.51532318 1.78591919 2.29594421 C1.03186744 11.06957714 0.85261273 19.78037817 0.8671875 28.58203125 C0.86651105 30.04969804 0.86553821 31.51736472 0.86428833 32.98503113 C0.862826 36.04154541 0.86491731 39.0980302 0.86962891 42.15454102 C0.87530996 46.02343774 0.87204803 49.8922648 0.86605644 53.76115894 C0.86239781 56.78737386 0.86361366 59.81357298 0.86618423 62.83978844 C0.86683974 64.26397396 0.86607478 65.68816104 0.86370468 67.11234474 C0.85070754 77.11647197 1.27341838 87.02791327 2 97 C1.34 97 0.68 97 0 97 C-0.79023574 94.17138798 -1.16175006 91.56078642 -1.28125 88.62890625 C-1.31863281 87.80712891 -1.35601562 86.98535156 -1.39453125 86.13867188 C-1.42933594 85.28853516 -1.46414062 84.43839844 -1.5 83.5625 C-1.56935476 81.87615182 -1.64217203 80.18994186 -1.71875 78.50390625 C-1.74904297 77.75955322 -1.77933594 77.0152002 -1.81054688 76.24829102 C-1.94879134 73.98514077 -1.94879134 73.98514077 -2.50927734 71.75976562 C-3.18563008 67.95603858 -3.14264164 64.18971099 -3.1328125 60.33984375 C-3.13376923 59.51295547 -3.13472595 58.6860672 -3.13571167 57.8341217 C-3.13639017 56.09180627 -3.13455895 54.34948827 -3.13037109 52.60717773 C-3.12501134 49.94313887 -3.13033077 47.27926807 -3.13671875 44.61523438 C-3.13605804 42.91927046 -3.13477704 41.22330665 -3.1328125 39.52734375 C-3.13483673 38.73247055 -3.13686096 37.93759735 -3.13894653 37.11863708 C-3.12388945 33.56307328 -2.89798893 30.42554461 -2 27 C-1.86623216 25.15741692 -1.77668982 23.3113673 -1.71875 21.46484375 C-1.68136719 20.40845703 -1.64398438 19.35207031 -1.60546875 18.26367188 C-1.53503251 16.04232163 -1.46472045 13.82096744 -1.39453125 11.59960938 C-1.35714844 10.54451172 -1.31976563 9.48941406 -1.28125 8.40234375 C-1.25095703 7.43804443 -1.22066406 6.47374512 -1.18945312 5.48022461 C-1 3 -1 3 0 0 Z " fill="#FFF9F9" transform="translate(6,163)"/>
<path d="M0 0 C1.91576761 2.87365141 2.91672509 5.26121433 4.06640625 8.49609375 C4.46553223 9.603479 4.8646582 10.71086426 5.27587891 11.85180664 C5.91275635 13.62672485 5.91275635 13.62672485 6.5625 15.4375 C10.10067026 25.17952277 13.90460903 34.6979649 18.30688477 44.08178711 C21 49.83162175 21 49.83162175 21 52 C20.34 52 19.68 52 19 52 C16.95830515 49.09451118 16 47.59857954 16 44 C15.34 44 14.68 44 14 44 C14 42.35 14 40.7 14 39 C13.34 39 12.68 39 12 39 C12 37.35 12 35.7 12 34 C11.34 34 10.68 34 10 34 C10 32.35 10 30.7 10 29 C9.34 29 8.68 29 8 29 C8 27.02 8 25.04 8 23 C7.34 23 6.68 23 6 23 C6 21.35 6 19.7 6 18 C5.34 18 4.68 18 4 18 C4 16.35 4 14.7 4 13 C3.34 13 2.68 13 2 13 C0.54815522 8.46298506 -0.23509196 4.81938524 0 0 Z " fill="#FFEBEB" transform="translate(27,342)"/>
<path d="M0 0 C2.64 0 5.28 0 8 0 C8 0.66 8 1.32 8 2 C9.98 2 11.96 2 14 2 C14.33 2.99 14.66 3.98 15 5 C16.423125 4.938125 16.423125 4.938125 17.875 4.875 C21 5 21 5 23 7 C25.06874034 7.6425235 25.06874034 7.6425235 27 8 C27 8.66 27 9.32 27 10 C28.65 10 30.3 10 32 10 C32.495 11.485 32.495 11.485 33 13 C34.65 13 36.3 13 38 13 C38 13.99 38 14.98 38 16 C31.83491783 14.07307113 25.98878505 11.76237225 20.125 9.0625 C13.51318108 6.0659836 6.88990039 3.30675079 0 1 C0 0.67 0 0.34 0 0 Z " fill="#FFEEEE" transform="translate(244,23)"/>
<path d="M0 0 C1.65 0 3.3 0 5 0 C5 0.66 5 1.32 5 2 C6.65 2.33 8.3 2.66 10 3 C10 3.66 10 4.32 10 5 C11.32 5 12.64 5 14 5 C14 5.66 14 6.32 14 7 C15.65 7.33 17.3 7.66 19 8 C19 8.66 19 9.32 19 10 C20.32 10 21.64 10 23 10 C23 10.99 23 11.98 23 13 C24.32 13 25.64 13 27 13 C27 13.66 27 14.32 27 15 C28.32 15.33 29.64 15.66 31 16 C31 16.66 31 17.32 31 18 C31.66 18 32.32 18 33 18 C33 18.99 33 19.98 33 21 C30.3094301 19.70334428 27.80450029 18.28921226 25.3125 16.64453125 C24.61890381 16.18997559 23.92530762 15.73541992 23.21069336 15.26708984 C22.48116455 14.7870752 21.75163574 14.30706055 21 13.8125 C14.78050874 9.74372393 8.51044635 5.87968668 2.02734375 2.2421875 C1.35832031 1.83226562 0.68929688 1.42234375 0 1 C0 0.67 0 0.34 0 0 Z " fill="#FFF3F3" transform="translate(282,39)"/>
<path d="M0 0 C0.66 0 1.32 0 2 0 C1.93148331 0.77905197 1.86296661 1.55810394 1.79237366 2.36076355 C1.11663133 10.49300943 0.79916214 18.58048996 0.68359375 26.73828125 C0.66281265 27.98506149 0.64203156 29.23184174 0.62062073 30.5164032 C0.55591508 34.4483865 0.49661256 38.38042905 0.4375 42.3125 C0.39468148 44.99936215 0.35067611 47.68620443 0.30664062 50.37304688 C0.20031629 56.91530433 0.09841239 63.457619 0 70 C-0.33 70 -0.66 70 -1 70 C-1.02315734 61.31610145 -1.04093243 52.6322135 -1.05181217 43.94829082 C-1.05703356 39.91611835 -1.06411774 35.88396697 -1.07543945 31.85180664 C-1.08629472 27.96147771 -1.09228245 24.07116909 -1.09487724 20.18082619 C-1.09672672 18.6956532 -1.10033821 17.21048135 -1.10573006 15.725317 C-1.11297549 13.6471757 -1.11398946 11.56911867 -1.11352539 9.4909668 C-1.115746 8.30738083 -1.11796661 7.12379486 -1.12025452 5.90434265 C-1 3 -1 3 0 0 Z " fill="#FF6868" transform="translate(6,163)"/>
<path d="M0 0 C1.07121094 -0.020625 2.14242187 -0.04125 3.24609375 -0.0625 C4.26832031 -0.06765625 5.29054688 -0.0728125 6.34375 -0.078125 C7.28412109 -0.0874707 8.22449219 -0.09681641 9.19335938 -0.10644531 C10.33514648 0.06999512 10.33514648 0.06999512 11.5 0.25 C12.16 1.24 12.82 2.23 13.5 3.25 C4.59 3.25 -4.32 3.25 -13.5 3.25 C-13.5 2.59 -13.5 1.93 -13.5 1.25 C-9.49006552 -0.75496724 -4.40869588 0.02122116 0 0 Z " fill="#FFE5E5" transform="translate(723.5,6.75)"/>
<path d="M0 0 C3.3 0 6.6 0 10 0 C10.33 0.99 10.66 1.98 11 3 C13.64 3 16.28 3 19 3 C19 3.66 19 4.32 19 5 C19.886875 5.12375 20.77375 5.2475 21.6875 5.375 C24.70387502 5.94412736 27.20326054 6.76614436 30 8 C30 8.99 30 9.98 30 11 C20 7.66666667 10 4.33333333 0 1 C0 0.67 0 0.34 0 0 Z " fill="#FFE8E8" transform="translate(756,12)"/>
<path d="M0 0 C3.12498063 -0.02895976 6.2499269 -0.04678483 9.375 -0.0625 C10.70917969 -0.07506836 10.70917969 -0.07506836 12.0703125 -0.08789062 C13.34648437 -0.09272461 13.34648437 -0.09272461 14.6484375 -0.09765625 C15.43395996 -0.10289307 16.21948242 -0.10812988 17.02880859 -0.11352539 C19 0 19 0 21 1 C21 1.66 21 2.32 21 3 C13.74 3 6.48 3 -1 3 C-0.67 2.01 -0.34 1.02 0 0 Z " fill="#FFE4E4" transform="translate(155,7)"/>
<path d="M0 0 C0.99 0 1.98 0 3 0 C1.54254576 3.36335594 -0.31117854 5.54534005 -2.9140625 8.109375 C-3.67460938 8.86347656 -4.43515625 9.61757812 -5.21875 10.39453125 C-6.0128125 11.17183594 -6.806875 11.94914062 -7.625 12.75 C-8.42679688 13.54277344 -9.22859375 14.33554688 -10.0546875 15.15234375 C-12.03202846 17.10614493 -14.01388909 19.05512103 -16 21 C-16 18 -16 18 -15 16 C-14.34 16 -13.68 16 -13 16 C-13 15.01 -13 14.02 -13 13 C-12.34 13 -11.68 13 -11 13 C-11 12.34 -11 11.68 -11 11 C-10.34 11 -9.68 11 -9 11 C-8.67 10.01 -8.34 9.02 -8 8 C-7.34 8 -6.68 8 -6 8 C-6 7.34 -6 6.68 -6 6 C-4.68 5.67 -3.36 5.34 -2 5 C-2 4.34 -2 3.68 -2 3 C-1.34 3 -0.68 3 0 3 C0 2.01 0 1.02 0 0 Z M-19 21 C-17 22 -17 22 -17 22 Z " fill="#FF7373" transform="translate(533,86)"/>
<path d="M0 0 C1.32 0.33 2.64 0.66 4 1 C1.21641519 3.84137242 -1.57815727 6.67168155 -4.375 9.5 C-5.1690625 10.31082031 -5.963125 11.12164062 -6.78125 11.95703125 C-7.92207031 13.10751953 -7.92207031 13.10751953 -9.0859375 14.28125 C-9.7876709 14.99345703 -10.4894043 15.70566406 -11.21240234 16.43945312 C-13 18 -13 18 -15 18 C-15 17.34 -15 16.68 -15 16 C-14.34 16 -13.68 16 -13 16 C-13 15.01 -13 14.02 -13 13 C-12.34 13 -11.68 13 -11 13 C-11 12.34 -11 11.68 -11 11 C-10.34 11 -9.68 11 -9 11 C-9 10.01 -9 9.02 -9 8 C-7.36368108 6.95107762 -5.69514137 5.95093297 -4 5 C-3.67 4.34 -3.34 3.68 -3 3 C-2.34 3 -1.68 3 -1 3 C-0.67 2.01 -0.34 1.02 0 0 Z " fill="#FF8F8F" transform="translate(63,41)"/>
<path d="M0 0 C2.20797361 2.20797361 2.59757579 3.41458345 3.47265625 6.359375 C3.73240234 7.22820312 3.99214844 8.09703125 4.25976562 8.9921875 C4.52466797 9.90226562 4.78957031 10.81234375 5.0625 11.75 C5.33126953 12.64460938 5.60003906 13.53921875 5.87695312 14.4609375 C7.20583157 18.95460128 8.37547982 23.34308408 9 28 C8.01 27.67 7.02 27.34 6 27 C6 25.35 6 23.7 6 22 C5.34 22 4.68 22 4 22 C4 19.36 4 16.72 4 14 C3.34 14 2.68 14 2 14 C1.855625 12.865625 1.71125 11.73125 1.5625 10.5625 C1.38828522 7.19222799 1.38828522 7.19222799 0 6 C-0.04080783 4.00041636 -0.04254356 1.99954746 0 0 Z " fill="#FFE5E5" transform="translate(18,314)"/>
<path d="M0 0 C0.33 0 0.66 0 1 0 C1.19335938 1.07378906 1.38671875 2.14757812 1.5859375 3.25390625 C1.84877718 4.69013733 2.11180824 6.1263334 2.375 7.5625 C2.50132813 8.26697266 2.62765625 8.97144531 2.7578125 9.69726562 C3.59212358 14.22340325 4.72873345 18.57248546 6 23 C6.125 25.9375 6.125 25.9375 6 28 C4 27 4 27 2.875 24 C1.72478538 19.67770912 1.81875791 15.44043127 2 11 C1.34 11 0.68 11 0 11 C0 7.37 0 3.74 0 0 Z " fill="#FFE8E8" transform="translate(12,286)"/>
<path d="M0 0 C0.66 0 1.32 0 2 0 C1.34 8.91 0.68 17.82 0 27 C-0.33 27 -0.66 27 -1 27 C-1.02898816 23.06251542 -1.04679464 19.12505821 -1.0625 15.1875 C-1.07087891 14.06794922 -1.07925781 12.94839844 -1.08789062 11.79492188 C-1.09111328 10.72177734 -1.09433594 9.64863281 -1.09765625 8.54296875 C-1.10289307 7.55321045 -1.10812988 6.56345215 -1.11352539 5.54370117 C-1 3 -1 3 0 0 Z " fill="#FFEBEB" transform="translate(6,163)"/>
<path d="M0 0 C7.62951555 -0.34855655 13.92444501 -0.0017506 21 3 C21 3.66 21 4.32 21 5 C16.12689995 4.35401634 11.36868161 3.49028264 6.5625 2.4375 C5.32628906 2.16808594 4.09007812 1.89867188 2.81640625 1.62109375 C1.42228516 1.31365234 1.42228516 1.31365234 0 1 C0 0.67 0 0.34 0 0 Z " fill="#FFEFEF" transform="translate(214,15)"/>
<path d="M0 0 C1.23556641 0.01740234 1.23556641 0.01740234 2.49609375 0.03515625 C3.32238281 0.04417969 4.14867187 0.05320312 5 0.0625 C5.63808594 0.07410156 6.27617188 0.08570313 6.93359375 0.09765625 C6.93359375 0.42765625 6.93359375 0.75765625 6.93359375 1.09765625 C4.35291812 1.7968393 1.76986528 2.48226674 -0.81640625 3.16015625 C-1.54601562 3.35931641 -2.275625 3.55847656 -3.02734375 3.76367188 C-6.77671669 4.73510032 -9.36914863 5.25215012 -13.06640625 4.09765625 C-9.61581939 1.79726501 -7.12545123 1.62382875 -3.06640625 1.09765625 C-2.06640625 0.09765625 -2.06640625 0.09765625 0 0 Z " fill="#FFE7E7" transform="translate(661.06640625,14.90234375)"/>
<path d="M0 0 C4.29 0 8.58 0 13 0 C13.33 0.99 13.66 1.98 14 3 C12.22844346 2.88570603 10.45773771 2.75816963 8.6875 2.625 C7.70136719 2.55539062 6.71523437 2.48578125 5.69921875 2.4140625 C3 2 3 2 0 0 Z " fill="#FFECEC" transform="translate(200,12)"/>
<path d="M0 0 C3.17218843 3.62535821 4.42902597 7.51150278 6 12 C4.68 11.67 3.36 11.34 2 11 C2 9.35 2 7.7 2 6 C1.34 6 0.68 6 0 6 C0 4.02 0 2.04 0 0 Z " fill="#FFECEC" transform="translate(48,394)"/>
<path d="M0 0 C0.66 0.33 1.32 0.66 2 1 C1.01 1.33 0.02 1.66 -1 2 C-1.4021875 2.86625 -1.4021875 2.86625 -1.8125 3.75 C-3.55133944 7.04464314 -6.07645336 8.71200698 -9 11 C-9 10.01 -9 9.02 -9 8 C-8.34 8 -7.68 8 -7 8 C-7 7.34 -7 6.68 -7 6 C-6.34 6 -5.68 6 -5 6 C-4.67 5.01 -4.34 4.02 -4 3 C-3.34 3 -2.68 3 -2 3 C-2 2.34 -2 1.68 -2 1 C-1.34 0.67 -0.68 0.34 0 0 Z " fill="#FFD9D9" transform="translate(529,91)"/>
<path d="M0 0 C3.55780196 0.60990891 6.6828589 1.5783681 10 3 C10 3.99 10 4.98 10 6 C8.5164999 5.57742724 7.03823576 5.13643678 5.5625 4.6875 C4.73878906 4.44386719 3.91507813 4.20023438 3.06640625 3.94921875 C2.04353516 3.47935547 2.04353516 3.47935547 1 3 C0.67 2.01 0.34 1.02 0 0 Z " fill="#FFF3F3" transform="translate(776,17)"/>
<path d="M0 0 C2.475 0.495 2.475 0.495 5 1 C5 1.66 5 2.32 5 3 C6.65 3 8.3 3 10 3 C10 3.99 10 4.98 10 6 C8.5164999 5.57742724 7.03823576 5.13643678 5.5625 4.6875 C4.73878906 4.44386719 3.91507812 4.20023438 3.06640625 3.94921875 C2.04353516 3.47935547 2.04353516 3.47935547 1 3 C0.67 2.01 0.34 1.02 0 0 Z " fill="#FFF6F6" transform="translate(272,33)"/>
<path d="M0 0 C2.64 0 5.28 0 8 0 C8 0.66 8 1.32 8 2 C8.66 2 9.32 2 10 2 C10 2.66 10 3.32 10 4 C6.7 3.01 3.4 2.02 0 1 C0 0.67 0 0.34 0 0 Z " fill="#FFE3E3" transform="translate(244,23)"/>
<path d="M0 0 C2.64 0 5.28 0 8 0 C8.33 0.99 8.66 1.98 9 3 C4.545 2.01 4.545 2.01 0 1 C0 0.67 0 0.34 0 0 Z " fill="#FFEEEE" transform="translate(235,20)"/>
</svg>
